<?xml version="1.0" encoding="utf-8"?>
<svg viewBox="0 0 575 276" xmlns="http://www.w3.org/2000/svg" xmlns:xlink="http://www.w3.org/1999/xlink">
  <defs>
    <style id="bx-google-fonts">@import url(https://fonts.googleapis.com/css?family=Roboto:100,300,500,700,900,100italic,300italic,400,400italic,500italic,700italic,900italic);</style>
    <pattern id="pattern-0" x="0" y="0" width="20" height="20" patternUnits="userSpaceOnUse" viewBox="0 0 100 100">
      <path d="M 0 0 L 50 0 L 50 100 L 0 100 Z" style="fill: black;"/>
    </pattern>
    <pattern id="pattern-0-0" patternTransform="matrix(0.8744, 0, 0, 1.51498, 210.494827, 63.220676)" xlink:href="#pattern-0"/>
    <pattern id="pattern-1" patternTransform="matrix(0.859167, 0, 0, 1.4544, 209.031754, 67.947418)" xlink:href="#pattern-0"/>
    <pattern id="pattern-2" patternTransform="matrix(0.790673, 0, 0, 0.636496, 203.221558, 104.268723)" xlink:href="#pattern-0"/>
    <pattern id="pattern-3" patternTransform="matrix(0.790676, 0, 0, 0.636496, 206.241547, 109.877968)" xlink:href="#pattern-0"/>
    <pattern id="pattern-4" patternTransform="matrix(0.824922, 0, 0, -1.165903, 200.289932, 186.153183)" xlink:href="#pattern-0"/>
    <linearGradient id="gradient-1" gradientUnits="userSpaceOnUse" x1="347.906" y1="347.513" x2="347.906" y2="347.513">
      <stop offset="0" style="stop-color: rgba(0, 0, 0, 1)"/>
      <stop offset="1" style="stop-color: rgba(0, 0, 0, 1)"/>
    </linearGradient>
    <pattern id="pattern-0-1" patternTransform="matrix(1, 0, 0, 1, 227.017502, 349.594513)" xlink:href="#pattern-0"/>
    <pattern id="pattern-5" viewBox="0 0 100 100" patternUnits="userSpaceOnUse" preserveAspectRatio="none" width="100" height="100">
      <g>
        <rect x="-0.051" y="0.467" width="5.868" height="99.411" style="fill: rgb(1, 0, 0);"/>
        <rect x="8.751" y="0.467" width="18.122" height="99.756"/>
      </g>
      <g transform="matrix(1, 0, 0, 1, 39.695602, -0.17242)">
        <rect x="-0.051" y="0.467" width="5.868" height="99.411" style="fill: rgb(1, 0, 0);"/>
        <rect x="8.751" y="0.467" width="18.122" height="99.756"/>
      </g>
      <g transform="matrix(1, 0, 0, 1, 77.492607, -0.517597)">
        <rect x="-0.051" y="0.467" width="5.868" height="99.411" style="fill: rgb(1, 0, 0);"/>
        <rect x="8.751" y="0.467" width="18.122" height="99.756"/>
      </g>
    </pattern>
    <symbol id="symbol-0" viewBox="0 0 188.985 20.711">
      <path d="M 142.525 349.239 C 229.322 360.524 259.328 369.95 285.774 369.95 C 300.732 369.95 312.238 369.95 323.744 369.95 C 326.055 369.95 331.51 365.635 331.51 365.635" style="fill: none; stroke: url(#pattern-0-1);" transform="matrix(0.9999999999999999, 0, 0, 0.9999999999999999, -142.52500915527344, -349.239013671875)"/>
    </symbol>
    <symbol id="symbol-1" viewBox="0 0 100 100"/>
  </defs>
  <g transform="matrix(1, 0, 0, 1, -50.720074, -13.086814)">
    <g transform="matrix(1, 0, 0, 1, 68.813759, 50.665073)">
      <path d="M 76.849 19.098 C 74.861 19.098 73.248 20.71 73.248 22.699 C 73.248 24.688 74.86 26.3 76.849 26.3 C 78.838 26.3 80.45 24.688 80.45 22.699 C 80.45 20.71 78.838 19.098 76.849 19.098 Z M 76.849 24.784 C 75.697 24.784 74.763 23.85 74.763 22.698 C 74.763 21.546 75.697 20.612 76.849 20.612 C 78.001 20.612 78.935 21.546 78.935 22.698 C 78.935 23.85 78.001 24.784 76.849 24.784 Z"/>
      <path d="M 17.502 19.098 C 15.514 19.098 13.901 20.71 13.901 22.699 C 13.901 24.688 15.513 26.3 17.502 26.3 C 19.491 26.3 21.103 24.688 21.103 22.699 C 21.103 20.71 19.49 19.098 17.502 19.098 Z M 17.502 24.784 C 16.35 24.784 15.416 23.85 15.416 22.698 C 15.416 21.546 16.35 20.612 17.502 20.612 C 18.654 20.612 19.588 21.546 19.588 22.698 C 19.588 23.85 18.654 24.784 17.502 24.784 Z"/>
      <circle cx="17.502" cy="22.624" r="0.72"/>
      <circle cx="76.849" cy="22.624" r="0.72"/>
      <rect x="18.905" width="26.163" height="3.874"/>
      <polygon points="17.502 0 14.175 2.93 14.175 3.874 18.458 3.874 18.458 0"/>
      <rect x="45.515" width="26.163" height="3.874"/>
      <polygon points="73.081 0 76.408 2.93 76.408 3.874 72.125 3.874 72.125 0"/>
      <path d="M 100 21.316 L 98.848 20.348 L 97.07 4.271 L 2.104 4.271 L 2.104 7.748 L 3.57 7.748 C 3.57 7.748 2.204 10.207 1.955 12.516 L 1.198 21.845 L 0.149 21.904 L 0 24.138 L 13.113 24.138 C 12.964 23.685 12.883 23.201 12.883 22.699 C 12.883 20.147 14.951 18.08 17.502 18.08 C 20.053 18.08 22.121 20.147 22.121 22.699 C 22.121 23.202 22.039 23.685 21.891 24.138 L 72.459 24.138 C 72.311 23.685 72.23 23.201 72.23 22.699 C 72.23 20.147 74.298 18.08 76.849 18.08 C 79.4 18.08 81.468 20.147 81.468 22.699 C 81.468 23.202 81.386 23.685 81.238 24.138 L 86.541 24.138 L 98.781 22.768 L 100 22.768 L 100 21.316 Z M 12.386 15.05 C 12.386 15.954 11.653 16.689 10.747 16.689 L 5.532 16.689 C 4.627 16.689 3.892 15.955 3.892 15.05 L 3.892 10.033 C 3.892 9.128 4.626 8.394 5.532 8.394 L 10.747 8.394 C 11.652 8.394 12.386 9.128 12.386 10.033 L 12.386 15.05 Z M 80.282 8.394 L 87.633 8.394 C 88.505 8.394 89.216 9.075 89.268 9.934 L 78.648 9.934 C 78.7 9.075 79.411 8.394 80.282 8.394 Z M 67.366 8.394 L 74.717 8.394 C 75.589 8.394 76.3 9.075 76.351 9.934 L 65.732 9.934 C 65.784 9.075 66.494 8.394 67.366 8.394 Z M 54.288 8.394 L 61.963 8.394 C 62.834 8.394 63.545 9.075 63.597 9.934 L 52.654 9.934 C 52.706 9.075 53.417 8.394 54.288 8.394 Z M 41.372 8.394 L 49.046 8.394 C 49.918 8.394 50.629 9.075 50.681 9.934 L 39.738 9.934 C 39.79 9.075 40.501 8.394 41.372 8.394 Z M 28.456 8.394 L 36.13 8.394 C 37.002 8.394 37.713 9.075 37.765 9.934 L 26.822 9.934 C 26.874 9.075 27.585 8.394 28.456 8.394 Z M 15.54 8.394 L 23.214 8.394 C 24.086 8.394 24.796 9.075 24.848 9.934 L 13.906 9.934 C 13.958 9.075 14.668 8.394 15.54 8.394 Z M 23.214 16.688 L 15.54 16.688 C 14.635 16.688 13.901 15.954 13.901 15.049 L 13.901 10.528 L 24.852 10.528 L 24.852 15.049 C 24.853 15.954 24.119 16.688 23.214 16.688 Z M 36.13 16.688 L 28.456 16.688 C 27.551 16.688 26.817 15.954 26.817 15.049 L 26.817 10.528 L 37.77 10.528 L 37.77 15.049 C 37.77 15.954 37.035 16.688 36.13 16.688 Z M 49.046 16.688 L 41.372 16.688 C 40.467 16.688 39.733 15.954 39.733 15.049 L 39.733 10.528 L 50.685 10.528 L 50.685 15.049 C 50.686 15.954 49.951 16.688 49.046 16.688 Z M 61.963 16.688 L 54.288 16.688 C 53.383 16.688 52.649 15.954 52.649 15.049 L 52.649 10.528 L 63.601 10.528 L 63.601 15.049 C 63.602 15.954 62.867 16.688 61.963 16.688 Z M 74.717 15.198 L 67.366 15.198 C 66.461 15.198 65.726 14.465 65.726 13.559 L 65.726 10.529 L 76.356 10.529 L 76.356 13.559 C 76.356 14.465 75.622 15.198 74.717 15.198 Z M 87.633 15.198 L 80.282 15.198 C 79.377 15.198 78.643 14.465 78.643 13.559 L 78.643 10.529 L 89.272 10.529 L 89.272 13.559 C 89.272 14.465 88.538 15.198 87.633 15.198 Z"/>
    </g>
    <g transform="matrix(1, 0, 0, 1, 153.670807, -993.935242)">
      <g transform="translate(628,-140.49998)">
        <g transform="translate(-599.5,50.350676)">
          <g transform="translate(-29.5,89.649313)">
            <g transform="translate(1.5,-1.5000527)">
              <path style="color:#000000;font-style:normal;font-variant:normal;font-weight:normal;font-stretch:normal;font-size:medium;line-height:normal;font-family:sans-serif;text-indent:0;text-align:start;text-decoration:none;text-decoration-line:none;text-decoration-style:solid;text-decoration-color:#000000;letter-spacing:normal;word-spacing:normal;text-transform:none;direction:ltr;block-progression:tb;writing-mode:lr-tb;baseline-shift:baseline;text-anchor:start;white-space:normal;clip-rule:nonzero;display:inline;overflow:visible;visibility:visible;opacity:1;isolation:auto;mix-blend-mode:normal;color-interpolation:sRGB;color-interpolation-filters:linearRGB;solid-color:#000000;solid-opacity:1;fill:#000000;fill-opacity:1;fill-rule:nonzero;stroke:none;stroke-width:1;stroke-linecap:round;stroke-linejoin:round;stroke-miterlimit:4;stroke-dasharray:none;stroke-dashoffset:0;stroke-opacity:1;color-rendering:auto;image-rendering:auto;shape-rendering:auto;text-rendering:auto;enable-background:accumulate" d="M 2.1796875 0 A 0.48405063 0.51657831 0 0 0 1.8320312 0.15625 C -0.61194405 2.76445 -0.61193725 7.0089875 1.8320312 9.6171875 A 0.48445689 0.51701187 0 0 0 2.5175781 8.8867188 C 0.44353036 6.6733187 0.44353036 3.1020719 2.5175781 0.88867188 A 0.48405063 0.51657831 0 0 0 2.5273438 0.15625 A 0.48405063 0.51657831 0 0 0 2.1796875 0 z M 13.820312 0 A 0.48405063 0.51657831 0 0 0 13.472656 0.15625 A 0.48405063 0.51657831 0 0 0 13.484375 0.88671875 C 15.558416 3.1002188 15.55643 6.6733187 13.482422 8.8867188 A 0.48445693 0.51701191 0 0 0 14.167969 9.6171875 C 16.611937 7.0089875 16.611937 2.76445 14.167969 0.15625 A 0.48405063 0.51657831 0 0 0 13.820312 0 z M 3.7070312 1.2480469 A 0.48405063 0.51657831 0 0 0 3.3613281 1.4042969 C 1.5632115 3.3232969 1.5632115 6.4501406 3.3613281 8.3691406 A 0.48443864 0.51699239 0 0 0 4.0449219 7.6386719 C 2.6167294 6.1144719 2.6167261 3.6589656 4.0449219 2.1347656 A 0.48405063 0.51657831 0 0 0 4.0546875 1.4042969 A 0.48405063 0.51657831 0 0 0 3.7070312 1.2480469 z M 12.292969 1.2480469 A 0.48405063 0.51657831 0 0 0 11.945312 1.4042969 A 0.48405063 0.51657831 0 0 0 11.955078 2.1347656 C 13.383267 3.6589656 13.383234 6.1144719 11.955078 7.6386719 A 0.48443864 0.51699239 0 1 0 12.638672 8.3691406 C 14.436789 6.4501406 14.436782 3.3232969 12.638672 1.4042969 A 0.48405063 0.51657831 0 0 0 12.292969 1.2480469 z M 5.2128906 2.4941406 A 0.48405063 0.51657831 0 0 0 4.8652344 2.6523438 C 3.7130244 3.8819437 3.7130176 5.8914938 4.8652344 7.1210938 A 0.48443864 0.51699239 0 1 0 5.5507812 6.390625 C 4.7684783 5.555725 4.7684852 4.2177125 5.5507812 3.3828125 A 0.48405063 0.51657831 0 0 0 5.5605469 2.6542969 L 5.5605469 2.6523438 A 0.48405063 0.51657831 0 0 0 5.2128906 2.4941406 z M 10.787109 2.4941406 A 0.48405063 0.51657831 0 0 0 10.439453 2.6523438 L 10.439453 2.6542969 A 0.48405063 0.51657831 0 0 0 10.449219 3.3828125 C 11.231514 4.2177125 11.231521 5.555725 10.449219 6.390625 A 0.48443864 0.51699239 0 1 0 11.134766 7.1210938 C 12.286983 5.8914938 12.286976 3.8819437 11.134766 2.6523438 A 0.48405063 0.51657831 0 0 0 10.787109 2.4941406 z M 7.9980469 2.7832031 C 6.8995642 2.7832031 5.9980612 3.6847031 5.9980469 4.7832031 C 5.9980589 5.7079043 6.640674 6.4856537 7.4980469 6.7109375 L 7.4980469 13.494141 A 0.50005 0.50005 0 1 0 8.4980469 13.494141 L 8.4980469 6.7109375 C 9.3554198 6.4856537 9.9980348 5.7079043 9.9980469 4.7832031 C 9.9980326 3.6847031 9.0965296 2.7832031 7.9980469 2.7832031 z M 7.9980469 3.7832031 C 8.5560945 3.7832031 8.9980396 4.2252031 8.9980469 4.7832031 C 8.9980396 5.3413031 8.5560945 5.7832031 7.9980469 5.7832031 C 7.4399993 5.7832031 6.9980541 5.3413031 6.9980469 4.7832031 C 6.9980541 4.2252031 7.4399993 3.7832031 7.9980469 3.7832031 z M 5.5 15 A 0.5 0.5 0 0 0 5 15.5 A 0.5 0.5 0 0 0 5.5 16 A 0.5 0.5 0 0 0 6 15.5 A 0.5 0.5 0 0 0 5.5 15 z M 8 15 A 0.5 0.5 0 0 0 7.5 15.5 A 0.5 0.5 0 0 0 8 16 A 0.5 0.5 0 0 0 8.5 15.5 A 0.5 0.5 0 0 0 8 15 z M 10.5 15 A 0.5 0.5 0 0 0 10 15.5 A 0.5 0.5 0 0 0 10.5 16 A 0.5 0.5 0 0 0 11 15.5 A 0.5 0.5 0 0 0 10.5 15 z " transform="translate(-0.5,1038.3622)"/>
            </g>
          </g>
        </g>
      </g>
    </g>
  </g>
  <g transform="matrix(1, 0, 0, 1, -50.720074, 42.74601)">
    <g transform="matrix(1, 0, 0, 1, 68.813759, 50.665073)">
      <path d="M 76.849 19.098 C 74.861 19.098 73.248 20.71 73.248 22.699 C 73.248 24.688 74.86 26.3 76.849 26.3 C 78.838 26.3 80.45 24.688 80.45 22.699 C 80.45 20.71 78.838 19.098 76.849 19.098 Z M 76.849 24.784 C 75.697 24.784 74.763 23.85 74.763 22.698 C 74.763 21.546 75.697 20.612 76.849 20.612 C 78.001 20.612 78.935 21.546 78.935 22.698 C 78.935 23.85 78.001 24.784 76.849 24.784 Z"/>
      <path d="M 17.502 19.098 C 15.514 19.098 13.901 20.71 13.901 22.699 C 13.901 24.688 15.513 26.3 17.502 26.3 C 19.491 26.3 21.103 24.688 21.103 22.699 C 21.103 20.71 19.49 19.098 17.502 19.098 Z M 17.502 24.784 C 16.35 24.784 15.416 23.85 15.416 22.698 C 15.416 21.546 16.35 20.612 17.502 20.612 C 18.654 20.612 19.588 21.546 19.588 22.698 C 19.588 23.85 18.654 24.784 17.502 24.784 Z"/>
      <circle cx="17.502" cy="22.624" r="0.72"/>
      <circle cx="76.849" cy="22.624" r="0.72"/>
      <rect x="18.905" width="26.163" height="3.874"/>
      <polygon points="17.502 0 14.175 2.93 14.175 3.874 18.458 3.874 18.458 0"/>
      <rect x="45.515" width="26.163" height="3.874"/>
      <polygon points="73.081 0 76.408 2.93 76.408 3.874 72.125 3.874 72.125 0"/>
      <path d="M 100 21.316 L 98.848 20.348 L 97.07 4.271 L 2.104 4.271 L 2.104 7.748 L 3.57 7.748 C 3.57 7.748 2.204 10.207 1.955 12.516 L 1.198 21.845 L 0.149 21.904 L 0 24.138 L 13.113 24.138 C 12.964 23.685 12.883 23.201 12.883 22.699 C 12.883 20.147 14.951 18.08 17.502 18.08 C 20.053 18.08 22.121 20.147 22.121 22.699 C 22.121 23.202 22.039 23.685 21.891 24.138 L 72.459 24.138 C 72.311 23.685 72.23 23.201 72.23 22.699 C 72.23 20.147 74.298 18.08 76.849 18.08 C 79.4 18.08 81.468 20.147 81.468 22.699 C 81.468 23.202 81.386 23.685 81.238 24.138 L 86.541 24.138 L 98.781 22.768 L 100 22.768 L 100 21.316 Z M 12.386 15.05 C 12.386 15.954 11.653 16.689 10.747 16.689 L 5.532 16.689 C 4.627 16.689 3.892 15.955 3.892 15.05 L 3.892 10.033 C 3.892 9.128 4.626 8.394 5.532 8.394 L 10.747 8.394 C 11.652 8.394 12.386 9.128 12.386 10.033 L 12.386 15.05 Z M 80.282 8.394 L 87.633 8.394 C 88.505 8.394 89.216 9.075 89.268 9.934 L 78.648 9.934 C 78.7 9.075 79.411 8.394 80.282 8.394 Z M 67.366 8.394 L 74.717 8.394 C 75.589 8.394 76.3 9.075 76.351 9.934 L 65.732 9.934 C 65.784 9.075 66.494 8.394 67.366 8.394 Z M 54.288 8.394 L 61.963 8.394 C 62.834 8.394 63.545 9.075 63.597 9.934 L 52.654 9.934 C 52.706 9.075 53.417 8.394 54.288 8.394 Z M 41.372 8.394 L 49.046 8.394 C 49.918 8.394 50.629 9.075 50.681 9.934 L 39.738 9.934 C 39.79 9.075 40.501 8.394 41.372 8.394 Z M 28.456 8.394 L 36.13 8.394 C 37.002 8.394 37.713 9.075 37.765 9.934 L 26.822 9.934 C 26.874 9.075 27.585 8.394 28.456 8.394 Z M 15.54 8.394 L 23.214 8.394 C 24.086 8.394 24.796 9.075 24.848 9.934 L 13.906 9.934 C 13.958 9.075 14.668 8.394 15.54 8.394 Z M 23.214 16.688 L 15.54 16.688 C 14.635 16.688 13.901 15.954 13.901 15.049 L 13.901 10.528 L 24.852 10.528 L 24.852 15.049 C 24.853 15.954 24.119 16.688 23.214 16.688 Z M 36.13 16.688 L 28.456 16.688 C 27.551 16.688 26.817 15.954 26.817 15.049 L 26.817 10.528 L 37.77 10.528 L 37.77 15.049 C 37.77 15.954 37.035 16.688 36.13 16.688 Z M 49.046 16.688 L 41.372 16.688 C 40.467 16.688 39.733 15.954 39.733 15.049 L 39.733 10.528 L 50.685 10.528 L 50.685 15.049 C 50.686 15.954 49.951 16.688 49.046 16.688 Z M 61.963 16.688 L 54.288 16.688 C 53.383 16.688 52.649 15.954 52.649 15.049 L 52.649 10.528 L 63.601 10.528 L 63.601 15.049 C 63.602 15.954 62.867 16.688 61.963 16.688 Z M 74.717 15.198 L 67.366 15.198 C 66.461 15.198 65.726 14.465 65.726 13.559 L 65.726 10.529 L 76.356 10.529 L 76.356 13.559 C 76.356 14.465 75.622 15.198 74.717 15.198 Z M 87.633 15.198 L 80.282 15.198 C 79.377 15.198 78.643 14.465 78.643 13.559 L 78.643 10.529 L 89.272 10.529 L 89.272 13.559 C 89.272 14.465 88.538 15.198 87.633 15.198 Z"/>
    </g>
    <g transform="matrix(1, 0, 0, 1, 153.670807, -993.935242)">
      <g transform="translate(628,-140.49998)">
        <g transform="translate(-599.5,50.350676)">
          <g transform="translate(-29.5,89.649313)">
            <g transform="translate(1.5,-1.5000527)">
              <path style="color:#000000;font-style:normal;font-variant:normal;font-weight:normal;font-stretch:normal;font-size:medium;line-height:normal;font-family:sans-serif;text-indent:0;text-align:start;text-decoration:none;text-decoration-line:none;text-decoration-style:solid;text-decoration-color:#000000;letter-spacing:normal;word-spacing:normal;text-transform:none;direction:ltr;block-progression:tb;writing-mode:lr-tb;baseline-shift:baseline;text-anchor:start;white-space:normal;clip-rule:nonzero;display:inline;overflow:visible;visibility:visible;opacity:1;isolation:auto;mix-blend-mode:normal;color-interpolation:sRGB;color-interpolation-filters:linearRGB;solid-color:#000000;solid-opacity:1;fill:#000000;fill-opacity:1;fill-rule:nonzero;stroke:none;stroke-width:1;stroke-linecap:round;stroke-linejoin:round;stroke-miterlimit:4;stroke-dasharray:none;stroke-dashoffset:0;stroke-opacity:1;color-rendering:auto;image-rendering:auto;shape-rendering:auto;text-rendering:auto;enable-background:accumulate" d="M 2.1796875 0 A 0.48405063 0.51657831 0 0 0 1.8320312 0.15625 C -0.61194405 2.76445 -0.61193725 7.0089875 1.8320312 9.6171875 A 0.48445689 0.51701187 0 0 0 2.5175781 8.8867188 C 0.44353036 6.6733187 0.44353036 3.1020719 2.5175781 0.88867188 A 0.48405063 0.51657831 0 0 0 2.5273438 0.15625 A 0.48405063 0.51657831 0 0 0 2.1796875 0 z M 13.820312 0 A 0.48405063 0.51657831 0 0 0 13.472656 0.15625 A 0.48405063 0.51657831 0 0 0 13.484375 0.88671875 C 15.558416 3.1002188 15.55643 6.6733187 13.482422 8.8867188 A 0.48445693 0.51701191 0 0 0 14.167969 9.6171875 C 16.611937 7.0089875 16.611937 2.76445 14.167969 0.15625 A 0.48405063 0.51657831 0 0 0 13.820312 0 z M 3.7070312 1.2480469 A 0.48405063 0.51657831 0 0 0 3.3613281 1.4042969 C 1.5632115 3.3232969 1.5632115 6.4501406 3.3613281 8.3691406 A 0.48443864 0.51699239 0 0 0 4.0449219 7.6386719 C 2.6167294 6.1144719 2.6167261 3.6589656 4.0449219 2.1347656 A 0.48405063 0.51657831 0 0 0 4.0546875 1.4042969 A 0.48405063 0.51657831 0 0 0 3.7070312 1.2480469 z M 12.292969 1.2480469 A 0.48405063 0.51657831 0 0 0 11.945312 1.4042969 A 0.48405063 0.51657831 0 0 0 11.955078 2.1347656 C 13.383267 3.6589656 13.383234 6.1144719 11.955078 7.6386719 A 0.48443864 0.51699239 0 1 0 12.638672 8.3691406 C 14.436789 6.4501406 14.436782 3.3232969 12.638672 1.4042969 A 0.48405063 0.51657831 0 0 0 12.292969 1.2480469 z M 5.2128906 2.4941406 A 0.48405063 0.51657831 0 0 0 4.8652344 2.6523438 C 3.7130244 3.8819437 3.7130176 5.8914938 4.8652344 7.1210938 A 0.48443864 0.51699239 0 1 0 5.5507812 6.390625 C 4.7684783 5.555725 4.7684852 4.2177125 5.5507812 3.3828125 A 0.48405063 0.51657831 0 0 0 5.5605469 2.6542969 L 5.5605469 2.6523438 A 0.48405063 0.51657831 0 0 0 5.2128906 2.4941406 z M 10.787109 2.4941406 A 0.48405063 0.51657831 0 0 0 10.439453 2.6523438 L 10.439453 2.6542969 A 0.48405063 0.51657831 0 0 0 10.449219 3.3828125 C 11.231514 4.2177125 11.231521 5.555725 10.449219 6.390625 A 0.48443864 0.51699239 0 1 0 11.134766 7.1210938 C 12.286983 5.8914938 12.286976 3.8819437 11.134766 2.6523438 A 0.48405063 0.51657831 0 0 0 10.787109 2.4941406 z M 7.9980469 2.7832031 C 6.8995642 2.7832031 5.9980612 3.6847031 5.9980469 4.7832031 C 5.9980589 5.7079043 6.640674 6.4856537 7.4980469 6.7109375 L 7.4980469 13.494141 A 0.50005 0.50005 0 1 0 8.4980469 13.494141 L 8.4980469 6.7109375 C 9.3554198 6.4856537 9.9980348 5.7079043 9.9980469 4.7832031 C 9.9980326 3.6847031 9.0965296 2.7832031 7.9980469 2.7832031 z M 7.9980469 3.7832031 C 8.5560945 3.7832031 8.9980396 4.2252031 8.9980469 4.7832031 C 8.9980396 5.3413031 8.5560945 5.7832031 7.9980469 5.7832031 C 7.4399993 5.7832031 6.9980541 5.3413031 6.9980469 4.7832031 C 6.9980541 4.2252031 7.4399993 3.7832031 7.9980469 3.7832031 z M 5.5 15 A 0.5 0.5 0 0 0 5 15.5 A 0.5 0.5 0 0 0 5.5 16 A 0.5 0.5 0 0 0 6 15.5 A 0.5 0.5 0 0 0 5.5 15 z M 8 15 A 0.5 0.5 0 0 0 7.5 15.5 A 0.5 0.5 0 0 0 8 16 A 0.5 0.5 0 0 0 8.5 15.5 A 0.5 0.5 0 0 0 8 15 z M 10.5 15 A 0.5 0.5 0 0 0 10 15.5 A 0.5 0.5 0 0 0 10.5 16 A 0.5 0.5 0 0 0 11 15.5 A 0.5 0.5 0 0 0 10.5 15 z " transform="translate(-0.5,1038.3622)"/>
            </g>
          </g>
        </g>
      </g>
    </g>
  </g>
  <g transform="matrix(1, 0, 0, 1, -51.85952, 161.248322)">
    <g transform="matrix(1, 0, 0, 1, 68.813759, 50.665073)">
      <path d="M 76.849 19.098 C 74.861 19.098 73.248 20.71 73.248 22.699 C 73.248 24.688 74.86 26.3 76.849 26.3 C 78.838 26.3 80.45 24.688 80.45 22.699 C 80.45 20.71 78.838 19.098 76.849 19.098 Z M 76.849 24.784 C 75.697 24.784 74.763 23.85 74.763 22.698 C 74.763 21.546 75.697 20.612 76.849 20.612 C 78.001 20.612 78.935 21.546 78.935 22.698 C 78.935 23.85 78.001 24.784 76.849 24.784 Z"/>
      <path d="M 17.502 19.098 C 15.514 19.098 13.901 20.71 13.901 22.699 C 13.901 24.688 15.513 26.3 17.502 26.3 C 19.491 26.3 21.103 24.688 21.103 22.699 C 21.103 20.71 19.49 19.098 17.502 19.098 Z M 17.502 24.784 C 16.35 24.784 15.416 23.85 15.416 22.698 C 15.416 21.546 16.35 20.612 17.502 20.612 C 18.654 20.612 19.588 21.546 19.588 22.698 C 19.588 23.85 18.654 24.784 17.502 24.784 Z"/>
      <circle cx="17.502" cy="22.624" r="0.72"/>
      <circle cx="76.849" cy="22.624" r="0.72"/>
      <rect x="18.905" width="26.163" height="3.874"/>
      <polygon points="17.502 0 14.175 2.93 14.175 3.874 18.458 3.874 18.458 0"/>
      <rect x="45.515" width="26.163" height="3.874"/>
      <polygon points="73.081 0 76.408 2.93 76.408 3.874 72.125 3.874 72.125 0"/>
      <path d="M 100 21.316 L 98.848 20.348 L 97.07 4.271 L 2.104 4.271 L 2.104 7.748 L 3.57 7.748 C 3.57 7.748 2.204 10.207 1.955 12.516 L 1.198 21.845 L 0.149 21.904 L 0 24.138 L 13.113 24.138 C 12.964 23.685 12.883 23.201 12.883 22.699 C 12.883 20.147 14.951 18.08 17.502 18.08 C 20.053 18.08 22.121 20.147 22.121 22.699 C 22.121 23.202 22.039 23.685 21.891 24.138 L 72.459 24.138 C 72.311 23.685 72.23 23.201 72.23 22.699 C 72.23 20.147 74.298 18.08 76.849 18.08 C 79.4 18.08 81.468 20.147 81.468 22.699 C 81.468 23.202 81.386 23.685 81.238 24.138 L 86.541 24.138 L 98.781 22.768 L 100 22.768 L 100 21.316 Z M 12.386 15.05 C 12.386 15.954 11.653 16.689 10.747 16.689 L 5.532 16.689 C 4.627 16.689 3.892 15.955 3.892 15.05 L 3.892 10.033 C 3.892 9.128 4.626 8.394 5.532 8.394 L 10.747 8.394 C 11.652 8.394 12.386 9.128 12.386 10.033 L 12.386 15.05 Z M 80.282 8.394 L 87.633 8.394 C 88.505 8.394 89.216 9.075 89.268 9.934 L 78.648 9.934 C 78.7 9.075 79.411 8.394 80.282 8.394 Z M 67.366 8.394 L 74.717 8.394 C 75.589 8.394 76.3 9.075 76.351 9.934 L 65.732 9.934 C 65.784 9.075 66.494 8.394 67.366 8.394 Z M 54.288 8.394 L 61.963 8.394 C 62.834 8.394 63.545 9.075 63.597 9.934 L 52.654 9.934 C 52.706 9.075 53.417 8.394 54.288 8.394 Z M 41.372 8.394 L 49.046 8.394 C 49.918 8.394 50.629 9.075 50.681 9.934 L 39.738 9.934 C 39.79 9.075 40.501 8.394 41.372 8.394 Z M 28.456 8.394 L 36.13 8.394 C 37.002 8.394 37.713 9.075 37.765 9.934 L 26.822 9.934 C 26.874 9.075 27.585 8.394 28.456 8.394 Z M 15.54 8.394 L 23.214 8.394 C 24.086 8.394 24.796 9.075 24.848 9.934 L 13.906 9.934 C 13.958 9.075 14.668 8.394 15.54 8.394 Z M 23.214 16.688 L 15.54 16.688 C 14.635 16.688 13.901 15.954 13.901 15.049 L 13.901 10.528 L 24.852 10.528 L 24.852 15.049 C 24.853 15.954 24.119 16.688 23.214 16.688 Z M 36.13 16.688 L 28.456 16.688 C 27.551 16.688 26.817 15.954 26.817 15.049 L 26.817 10.528 L 37.77 10.528 L 37.77 15.049 C 37.77 15.954 37.035 16.688 36.13 16.688 Z M 49.046 16.688 L 41.372 16.688 C 40.467 16.688 39.733 15.954 39.733 15.049 L 39.733 10.528 L 50.685 10.528 L 50.685 15.049 C 50.686 15.954 49.951 16.688 49.046 16.688 Z M 61.963 16.688 L 54.288 16.688 C 53.383 16.688 52.649 15.954 52.649 15.049 L 52.649 10.528 L 63.601 10.528 L 63.601 15.049 C 63.602 15.954 62.867 16.688 61.963 16.688 Z M 74.717 15.198 L 67.366 15.198 C 66.461 15.198 65.726 14.465 65.726 13.559 L 65.726 10.529 L 76.356 10.529 L 76.356 13.559 C 76.356 14.465 75.622 15.198 74.717 15.198 Z M 87.633 15.198 L 80.282 15.198 C 79.377 15.198 78.643 14.465 78.643 13.559 L 78.643 10.529 L 89.272 10.529 L 89.272 13.559 C 89.272 14.465 88.538 15.198 87.633 15.198 Z"/>
    </g>
    <g transform="matrix(1, 0, 0, 1, 153.670807, -993.935242)">
      <g transform="translate(628,-140.49998)">
        <g transform="translate(-599.5,50.350676)">
          <g transform="translate(-29.5,89.649313)">
            <g transform="translate(1.5,-1.5000527)">
              <path style="color:#000000;font-style:normal;font-variant:normal;font-weight:normal;font-stretch:normal;font-size:medium;line-height:normal;font-family:sans-serif;text-indent:0;text-align:start;text-decoration:none;text-decoration-line:none;text-decoration-style:solid;text-decoration-color:#000000;letter-spacing:normal;word-spacing:normal;text-transform:none;direction:ltr;block-progression:tb;writing-mode:lr-tb;baseline-shift:baseline;text-anchor:start;white-space:normal;clip-rule:nonzero;display:inline;overflow:visible;visibility:visible;opacity:1;isolation:auto;mix-blend-mode:normal;color-interpolation:sRGB;color-interpolation-filters:linearRGB;solid-color:#000000;solid-opacity:1;fill:#000000;fill-opacity:1;fill-rule:nonzero;stroke:none;stroke-width:1;stroke-linecap:round;stroke-linejoin:round;stroke-miterlimit:4;stroke-dasharray:none;stroke-dashoffset:0;stroke-opacity:1;color-rendering:auto;image-rendering:auto;shape-rendering:auto;text-rendering:auto;enable-background:accumulate" d="M 2.1796875 0 A 0.48405063 0.51657831 0 0 0 1.8320312 0.15625 C -0.61194405 2.76445 -0.61193725 7.0089875 1.8320312 9.6171875 A 0.48445689 0.51701187 0 0 0 2.5175781 8.8867188 C 0.44353036 6.6733187 0.44353036 3.1020719 2.5175781 0.88867188 A 0.48405063 0.51657831 0 0 0 2.5273438 0.15625 A 0.48405063 0.51657831 0 0 0 2.1796875 0 z M 13.820312 0 A 0.48405063 0.51657831 0 0 0 13.472656 0.15625 A 0.48405063 0.51657831 0 0 0 13.484375 0.88671875 C 15.558416 3.1002188 15.55643 6.6733187 13.482422 8.8867188 A 0.48445693 0.51701191 0 0 0 14.167969 9.6171875 C 16.611937 7.0089875 16.611937 2.76445 14.167969 0.15625 A 0.48405063 0.51657831 0 0 0 13.820312 0 z M 3.7070312 1.2480469 A 0.48405063 0.51657831 0 0 0 3.3613281 1.4042969 C 1.5632115 3.3232969 1.5632115 6.4501406 3.3613281 8.3691406 A 0.48443864 0.51699239 0 0 0 4.0449219 7.6386719 C 2.6167294 6.1144719 2.6167261 3.6589656 4.0449219 2.1347656 A 0.48405063 0.51657831 0 0 0 4.0546875 1.4042969 A 0.48405063 0.51657831 0 0 0 3.7070312 1.2480469 z M 12.292969 1.2480469 A 0.48405063 0.51657831 0 0 0 11.945312 1.4042969 A 0.48405063 0.51657831 0 0 0 11.955078 2.1347656 C 13.383267 3.6589656 13.383234 6.1144719 11.955078 7.6386719 A 0.48443864 0.51699239 0 1 0 12.638672 8.3691406 C 14.436789 6.4501406 14.436782 3.3232969 12.638672 1.4042969 A 0.48405063 0.51657831 0 0 0 12.292969 1.2480469 z M 5.2128906 2.4941406 A 0.48405063 0.51657831 0 0 0 4.8652344 2.6523438 C 3.7130244 3.8819437 3.7130176 5.8914938 4.8652344 7.1210938 A 0.48443864 0.51699239 0 1 0 5.5507812 6.390625 C 4.7684783 5.555725 4.7684852 4.2177125 5.5507812 3.3828125 A 0.48405063 0.51657831 0 0 0 5.5605469 2.6542969 L 5.5605469 2.6523438 A 0.48405063 0.51657831 0 0 0 5.2128906 2.4941406 z M 10.787109 2.4941406 A 0.48405063 0.51657831 0 0 0 10.439453 2.6523438 L 10.439453 2.6542969 A 0.48405063 0.51657831 0 0 0 10.449219 3.3828125 C 11.231514 4.2177125 11.231521 5.555725 10.449219 6.390625 A 0.48443864 0.51699239 0 1 0 11.134766 7.1210938 C 12.286983 5.8914938 12.286976 3.8819437 11.134766 2.6523438 A 0.48405063 0.51657831 0 0 0 10.787109 2.4941406 z M 7.9980469 2.7832031 C 6.8995642 2.7832031 5.9980612 3.6847031 5.9980469 4.7832031 C 5.9980589 5.7079043 6.640674 6.4856537 7.4980469 6.7109375 L 7.4980469 13.494141 A 0.50005 0.50005 0 1 0 8.4980469 13.494141 L 8.4980469 6.7109375 C 9.3554198 6.4856537 9.9980348 5.7079043 9.9980469 4.7832031 C 9.9980326 3.6847031 9.0965296 2.7832031 7.9980469 2.7832031 z M 7.9980469 3.7832031 C 8.5560945 3.7832031 8.9980396 4.2252031 8.9980469 4.7832031 C 8.9980396 5.3413031 8.5560945 5.7832031 7.9980469 5.7832031 C 7.4399993 5.7832031 6.9980541 5.3413031 6.9980469 4.7832031 C 6.9980541 4.2252031 7.4399993 3.7832031 7.9980469 3.7832031 z M 5.5 15 A 0.5 0.5 0 0 0 5 15.5 A 0.5 0.5 0 0 0 5.5 16 A 0.5 0.5 0 0 0 6 15.5 A 0.5 0.5 0 0 0 5.5 15 z M 8 15 A 0.5 0.5 0 0 0 7.5 15.5 A 0.5 0.5 0 0 0 8 16 A 0.5 0.5 0 0 0 8.5 15.5 A 0.5 0.5 0 0 0 8 15 z M 10.5 15 A 0.5 0.5 0 0 0 10 15.5 A 0.5 0.5 0 0 0 10.5 16 A 0.5 0.5 0 0 0 11 15.5 A 0.5 0.5 0 0 0 10.5 15 z " transform="translate(-0.5,1038.3622)"/>
            </g>
          </g>
        </g>
      </g>
    </g>
  </g>
  <text x="58.573" y="171.948" style="font-size: 36; font-family: Roboto; white-space: pre;" transform="matrix(0, 1, -1, 0, 232.4375, 87.125035)">...</text>
  <path d="M 120.103 35.214 C 158.63 35.214 288.817 107.717 318.378 121.528" style="fill: none; stroke: url(#pattern-0-0);"/>
  <path d="M 500.678 298.426 Z" style="stroke: black; fill: none;"/>
  <path d="M 361.666 298.426 Z" style="stroke: black; fill: none;"/>
  <rect x="358.731" y="39.441" width="203.655" height="206.244" style="stroke-linejoin: round; stroke: rgb(0, 0, 0); stroke-width: 3; fill: rgba(255, 255, 255, 0);"/>
  <g transform="matrix(-1, 0, 0, 1, 375.507782, 116.808449)">
    <path d="M60.808,20.632l3.245,0.115c0.145-4.058-3.039-7.477-7.097-7.622l-0.116,3.245C59.109,16.451,60.888,18.363,60.808,20.632z   "/>
    <path d="M67.522,10.143c-2.756-2.959-6.498-4.668-10.539-4.812l-0.116,3.245c3.174,0.113,6.114,1.456,8.278,3.78   c2.164,2.325,3.293,5.353,3.18,8.527l3.245,0.116C71.714,16.957,70.277,13.102,67.522,10.143z"/>
    <path d="M59.402,62.137L58.53,59.77l0,0l-7.035-19.108h1.74v-3.168H50.43v-9.588h-2.686v9.588h-2.769v3.168h1.676L27.98,91.377   h-0.557v3.167h4.95v-3.167h-1.018l1.397-3.795l16.063-9.534l16.721,9.924l1.253,3.405h-0.989v3.167h4.95v-3.167h-0.584   L59.402,62.137z M49.073,43.251l5.137,13.955l-8.432-5.004L49.073,43.251z M34.488,82.869l4.026-10.935l7.2,4.272L34.488,82.869z    M39.626,68.911l5.039-13.686l11.281,6.695l2.482,6.741l-9.611,5.704L39.626,68.911z M51.92,76.207l7.621-4.522l4.261,11.574   L51.92,76.207z"/>
  </g>
  <g transform="matrix(0.828614, 0, 0, 0.741116, 352.249939, 144.339951)">
    <circle fill="none" cx="50" cy="62.216" r="2.31"/>
    <path fill="none" d="M66.119,40.154c0,0.208-0.168,0.376-0.376,0.376H34.936c-0.208,0-0.376-0.168-0.376-0.376v-4.273h-6.465   v37.583h15.598c0.003-0.047,0.011-0.092,0.015-0.138c0.008-0.1,0.019-0.199,0.032-0.298c0.014-0.108,0.03-0.215,0.049-0.321   c0.018-0.097,0.038-0.194,0.06-0.289c0.024-0.104,0.051-0.208,0.08-0.31c0.027-0.094,0.056-0.187,0.087-0.28   c0.034-0.1,0.07-0.198,0.108-0.295c0.036-0.091,0.073-0.181,0.113-0.27c0.043-0.095,0.088-0.188,0.135-0.28   c0.044-0.086,0.089-0.172,0.136-0.256c0.051-0.09,0.106-0.178,0.161-0.265c0.052-0.081,0.104-0.162,0.159-0.241   c0.059-0.084,0.122-0.166,0.185-0.248c0.059-0.076,0.117-0.151,0.179-0.224c0.067-0.079,0.137-0.154,0.208-0.229   c0.065-0.07,0.13-0.14,0.199-0.206c0.074-0.072,0.152-0.141,0.23-0.209c0.071-0.063,0.141-0.126,0.215-0.185   c0.082-0.066,0.167-0.127,0.253-0.189c0.076-0.055,0.15-0.111,0.229-0.163c0.089-0.059,0.181-0.112,0.273-0.166   c0.08-0.047,0.159-0.097,0.241-0.141c0.096-0.051,0.196-0.096,0.294-0.142c0.083-0.039,0.164-0.08,0.249-0.115   c0.105-0.043,0.213-0.079,0.32-0.117c0.084-0.03,0.166-0.062,0.251-0.088c0.115-0.035,0.233-0.062,0.35-0.09   c0.082-0.02,0.162-0.044,0.245-0.061c0.131-0.026,0.266-0.043,0.4-0.061c0.072-0.01,0.143-0.024,0.216-0.032   c0.208-0.021,0.419-0.032,0.633-0.032s0.425,0.011,0.633,0.032c0.073,0.007,0.145,0.022,0.217,0.032   c0.134,0.018,0.268,0.035,0.399,0.061c0.084,0.017,0.164,0.041,0.247,0.061c0.117,0.029,0.234,0.055,0.348,0.09   c0.086,0.026,0.169,0.06,0.254,0.089c0.106,0.038,0.213,0.073,0.317,0.116c0.086,0.036,0.168,0.077,0.252,0.117   c0.098,0.046,0.197,0.09,0.292,0.141c0.083,0.044,0.162,0.093,0.242,0.141c0.092,0.054,0.184,0.107,0.273,0.166   c0.079,0.052,0.154,0.109,0.23,0.164c0.085,0.062,0.17,0.122,0.251,0.188c0.075,0.06,0.146,0.124,0.217,0.188   c0.077,0.068,0.154,0.136,0.228,0.208c0.069,0.067,0.134,0.137,0.2,0.207c0.07,0.075,0.14,0.15,0.207,0.228   c0.063,0.073,0.121,0.149,0.181,0.225c0.063,0.081,0.125,0.162,0.184,0.246c0.055,0.079,0.107,0.16,0.159,0.241   c0.056,0.087,0.11,0.175,0.161,0.265c0.048,0.084,0.092,0.169,0.136,0.255c0.047,0.093,0.093,0.186,0.136,0.282   c0.04,0.088,0.076,0.178,0.112,0.268c0.039,0.098,0.075,0.196,0.109,0.296c0.031,0.092,0.06,0.185,0.087,0.279   c0.029,0.103,0.056,0.206,0.08,0.31c0.022,0.095,0.042,0.191,0.06,0.288c0.02,0.107,0.036,0.215,0.049,0.323   c0.013,0.098,0.024,0.196,0.032,0.296c0.004,0.047,0.012,0.092,0.015,0.139h15.598V35.881h-5.786V40.154z M50,65.28   c-1.689,0-3.063-1.375-3.063-3.063c0-1.688,1.374-3.063,3.063-3.063c1.689,0,3.063,1.374,3.063,3.063   C53.063,63.905,51.689,65.28,50,65.28z"/>
    <circle fill="none" cx="50" cy="73.841" r="5.566"/>
    <path fill="none" d="M56.292,74.357c-0.008,0.099-0.019,0.197-0.032,0.295c-0.014,0.109-0.03,0.217-0.05,0.324   c-0.018,0.096-0.038,0.192-0.06,0.286c-0.024,0.105-0.051,0.209-0.081,0.313c-0.027,0.093-0.055,0.185-0.086,0.277   c-0.034,0.101-0.071,0.2-0.11,0.299c-0.035,0.089-0.072,0.178-0.111,0.265c-0.043,0.096-0.09,0.191-0.137,0.285   c-0.043,0.085-0.087,0.169-0.134,0.251c-0.052,0.091-0.107,0.18-0.164,0.269c-0.051,0.08-0.102,0.16-0.157,0.237   c-0.06,0.086-0.123,0.168-0.187,0.25c-0.058,0.075-0.116,0.149-0.177,0.221c-0.068,0.08-0.139,0.156-0.211,0.232   c-0.064,0.068-0.128,0.137-0.195,0.203c-0.075,0.073-0.154,0.143-0.234,0.212c-0.07,0.062-0.139,0.124-0.212,0.183   c-0.083,0.067-0.169,0.129-0.255,0.191c-0.075,0.054-0.148,0.11-0.226,0.161c-0.09,0.06-0.184,0.114-0.278,0.169   c-0.079,0.046-0.156,0.095-0.237,0.138c-0.097,0.052-0.198,0.097-0.299,0.144c-0.082,0.038-0.162,0.079-0.246,0.114   c-0.105,0.044-0.214,0.08-0.322,0.118c-0.083,0.029-0.164,0.062-0.249,0.088c-0.116,0.036-0.236,0.063-0.355,0.092   c-0.08,0.02-0.158,0.043-0.239,0.059c-0.132,0.027-0.268,0.044-0.403,0.062c-0.071,0.01-0.141,0.024-0.213,0.031   c-0.208,0.021-0.419,0.032-0.633,0.032s-0.425-0.011-0.633-0.032c-0.072-0.007-0.141-0.022-0.212-0.031   c-0.136-0.018-0.272-0.035-0.405-0.062c-0.08-0.016-0.158-0.04-0.237-0.059c-0.12-0.029-0.241-0.056-0.358-0.092   c-0.083-0.026-0.164-0.058-0.246-0.087c-0.109-0.039-0.219-0.075-0.325-0.119c-0.083-0.034-0.162-0.075-0.243-0.113   c-0.101-0.047-0.203-0.093-0.301-0.145c-0.081-0.043-0.158-0.091-0.236-0.138c-0.094-0.055-0.188-0.109-0.278-0.169   c-0.077-0.051-0.15-0.106-0.225-0.16c-0.087-0.063-0.174-0.125-0.257-0.192c-0.072-0.058-0.14-0.12-0.21-0.181   c-0.08-0.07-0.159-0.14-0.236-0.214c-0.067-0.065-0.13-0.134-0.194-0.202c-0.072-0.077-0.144-0.153-0.212-0.233   c-0.061-0.072-0.118-0.146-0.176-0.22c-0.065-0.083-0.128-0.166-0.189-0.252c-0.054-0.078-0.105-0.157-0.156-0.237   c-0.056-0.088-0.111-0.177-0.163-0.269c-0.047-0.083-0.091-0.167-0.135-0.252c-0.048-0.093-0.094-0.187-0.137-0.283   c-0.039-0.088-0.076-0.177-0.112-0.267c-0.039-0.098-0.075-0.197-0.109-0.298c-0.031-0.092-0.059-0.184-0.086-0.277   c-0.029-0.103-0.056-0.207-0.081-0.312c-0.022-0.095-0.042-0.191-0.06-0.288c-0.019-0.106-0.035-0.214-0.049-0.322   c-0.013-0.099-0.024-0.198-0.032-0.298c-0.004-0.046-0.012-0.091-0.015-0.138H28.095v15.756c0,2.357,1.918,4.274,4.274,4.274   h35.262c2.357,0,4.275-1.917,4.275-4.274V74.217H56.307C56.304,74.264,56.296,74.31,56.292,74.357z"/>
    <path fill="none" d="M66.119,26.059c0,0.208-0.168,0.376-0.376,0.376H34.936c-0.208,0-0.376-0.168-0.376-0.376v-4.274h-6.465   v13.343h6.465v-4.274c0-0.208,0.168-0.376,0.376-0.376h30.807c0.208,0,0.376,0.168,0.376,0.376v4.274h5.786V21.785h-5.786V26.059z"/>
    <path fill="none" d="M67.631,5.753H32.369c-2.357,0-4.274,1.917-4.274,4.273v11.007h6.465v-4.273c0-0.208,0.168-0.376,0.376-0.376   h30.807c0.208,0,0.376,0.168,0.376,0.376v4.273h5.786V10.026C71.905,7.67,69.988,5.753,67.631,5.753z"/>
    <polygon fill="none" points="65.366,17.135 35.312,17.135 35.312,21.409 35.312,25.683 65.366,25.683 65.366,21.409  "/>
    <polygon fill="none" points="65.366,31.231 35.312,31.231 35.312,35.505 35.312,39.778 65.366,39.778 65.366,35.505  "/>
    <path d="M67.631,5H32.369c-2.772,0-5.027,2.255-5.027,5.026v11.383v14.096v38.336v16.133c0,2.772,2.255,5.026,5.027,5.026h35.262   c2.772,0,5.027-2.255,5.027-5.026V73.841V35.505V21.409V10.026C72.658,7.254,70.403,5,67.631,5z M71.905,89.974   c0,2.357-1.918,4.274-4.275,4.274H32.369c-2.357,0-4.274-1.917-4.274-4.274V74.217h15.598c0.003,0.047,0.011,0.092,0.015,0.138   c0.008,0.1,0.019,0.199,0.032,0.298c0.014,0.108,0.03,0.216,0.049,0.322c0.018,0.097,0.038,0.192,0.06,0.288   c0.024,0.105,0.051,0.209,0.081,0.312c0.027,0.093,0.055,0.186,0.086,0.277c0.034,0.1,0.07,0.199,0.109,0.298   c0.036,0.09,0.072,0.179,0.112,0.267c0.043,0.096,0.089,0.19,0.137,0.283c0.043,0.085,0.088,0.17,0.135,0.252   c0.052,0.091,0.107,0.18,0.163,0.269c0.051,0.08,0.102,0.159,0.156,0.237c0.06,0.086,0.124,0.169,0.189,0.252   c0.058,0.074,0.115,0.148,0.176,0.22c0.068,0.08,0.14,0.157,0.212,0.233c0.064,0.068,0.127,0.136,0.194,0.202   c0.076,0.074,0.156,0.144,0.236,0.214c0.069,0.061,0.138,0.123,0.21,0.181c0.083,0.067,0.17,0.129,0.257,0.192   c0.075,0.054,0.148,0.11,0.225,0.16c0.09,0.06,0.184,0.114,0.278,0.169c0.078,0.046,0.156,0.095,0.236,0.138   c0.098,0.052,0.2,0.098,0.301,0.145c0.081,0.038,0.16,0.078,0.243,0.113c0.106,0.044,0.216,0.081,0.325,0.119   c0.082,0.029,0.162,0.061,0.246,0.087c0.117,0.036,0.238,0.063,0.358,0.092c0.079,0.019,0.157,0.043,0.237,0.059   c0.133,0.027,0.269,0.044,0.405,0.062c0.071,0.01,0.14,0.024,0.212,0.031c0.208,0.021,0.419,0.032,0.633,0.032   s0.425-0.011,0.633-0.032c0.072-0.007,0.142-0.022,0.213-0.031c0.135-0.018,0.271-0.035,0.403-0.062   c0.081-0.016,0.159-0.04,0.239-0.059c0.119-0.029,0.239-0.056,0.355-0.092c0.085-0.026,0.166-0.058,0.249-0.088   c0.108-0.038,0.217-0.074,0.322-0.118c0.084-0.035,0.164-0.076,0.246-0.114c0.1-0.047,0.201-0.092,0.299-0.144   c0.081-0.043,0.158-0.091,0.237-0.138c0.093-0.055,0.187-0.109,0.278-0.169c0.077-0.051,0.151-0.107,0.226-0.161   c0.086-0.063,0.173-0.125,0.255-0.191c0.073-0.059,0.142-0.121,0.212-0.183c0.079-0.07,0.158-0.139,0.234-0.212   c0.067-0.066,0.131-0.134,0.195-0.203c0.072-0.076,0.143-0.152,0.211-0.232c0.061-0.072,0.119-0.147,0.177-0.221   c0.064-0.082,0.127-0.165,0.187-0.25c0.054-0.078,0.106-0.157,0.157-0.237c0.056-0.089,0.112-0.177,0.164-0.269   c0.047-0.083,0.091-0.167,0.134-0.251c0.048-0.094,0.094-0.188,0.137-0.285c0.039-0.087,0.076-0.176,0.111-0.265   c0.039-0.099,0.076-0.198,0.11-0.299c0.031-0.091,0.059-0.183,0.086-0.277c0.03-0.103,0.056-0.207,0.081-0.313   c0.022-0.095,0.042-0.19,0.06-0.286c0.02-0.107,0.036-0.215,0.05-0.324c0.013-0.098,0.024-0.196,0.032-0.295   c0.004-0.047,0.012-0.092,0.015-0.139h15.598V89.974z M44.434,73.841c0-3.07,2.497-5.567,5.565-5.567   c3.069,0,5.566,2.497,5.566,5.567c0,3.068-2.497,5.565-5.566,5.565C46.931,79.406,44.434,76.909,44.434,73.841z M71.905,73.465   H56.307c-0.003-0.047-0.011-0.092-0.015-0.139c-0.008-0.099-0.019-0.198-0.032-0.296c-0.014-0.109-0.03-0.216-0.049-0.323   c-0.018-0.097-0.038-0.193-0.06-0.288c-0.024-0.104-0.051-0.208-0.08-0.31c-0.027-0.094-0.056-0.187-0.087-0.279   c-0.034-0.1-0.07-0.199-0.109-0.296c-0.036-0.09-0.072-0.18-0.112-0.268c-0.043-0.095-0.089-0.189-0.136-0.282   c-0.044-0.086-0.088-0.171-0.136-0.255c-0.051-0.09-0.106-0.178-0.161-0.265c-0.052-0.082-0.104-0.162-0.159-0.241   c-0.059-0.084-0.121-0.165-0.184-0.246c-0.059-0.076-0.118-0.152-0.181-0.225c-0.067-0.078-0.137-0.153-0.207-0.228   c-0.066-0.07-0.131-0.14-0.2-0.207c-0.074-0.072-0.151-0.139-0.228-0.208c-0.072-0.063-0.143-0.127-0.217-0.188   c-0.081-0.065-0.166-0.126-0.251-0.188c-0.076-0.055-0.151-0.112-0.23-0.164c-0.089-0.059-0.181-0.112-0.273-0.166   c-0.08-0.047-0.159-0.097-0.242-0.141c-0.095-0.051-0.194-0.095-0.292-0.141c-0.084-0.039-0.166-0.081-0.252-0.117   c-0.104-0.043-0.211-0.079-0.317-0.116c-0.085-0.03-0.168-0.063-0.254-0.089c-0.114-0.035-0.231-0.061-0.348-0.09   c-0.082-0.02-0.163-0.044-0.247-0.061c-0.131-0.026-0.265-0.043-0.399-0.061c-0.073-0.01-0.144-0.025-0.217-0.032   c-0.208-0.021-0.419-0.032-0.633-0.032s-0.425,0.011-0.633,0.032c-0.073,0.007-0.144,0.022-0.216,0.032   c-0.134,0.018-0.269,0.035-0.4,0.061c-0.083,0.017-0.163,0.041-0.245,0.061c-0.117,0.029-0.236,0.055-0.35,0.09   c-0.085,0.026-0.167,0.059-0.251,0.088c-0.107,0.038-0.216,0.074-0.32,0.117c-0.085,0.035-0.166,0.077-0.249,0.115   c-0.099,0.046-0.198,0.091-0.294,0.142c-0.082,0.044-0.161,0.093-0.241,0.141c-0.092,0.054-0.184,0.107-0.273,0.166   c-0.078,0.052-0.153,0.108-0.229,0.163c-0.085,0.062-0.171,0.123-0.253,0.189c-0.074,0.059-0.144,0.123-0.215,0.185   c-0.078,0.069-0.156,0.137-0.23,0.209c-0.068,0.067-0.133,0.137-0.199,0.206c-0.071,0.075-0.141,0.15-0.208,0.229   c-0.062,0.073-0.12,0.148-0.179,0.224c-0.063,0.081-0.126,0.163-0.185,0.248c-0.055,0.079-0.107,0.16-0.159,0.241   c-0.055,0.087-0.11,0.175-0.161,0.265c-0.048,0.084-0.092,0.169-0.136,0.256c-0.047,0.092-0.093,0.185-0.135,0.28   c-0.04,0.089-0.077,0.179-0.113,0.27c-0.038,0.097-0.075,0.196-0.108,0.295c-0.031,0.092-0.06,0.186-0.087,0.28   c-0.029,0.102-0.056,0.206-0.08,0.31c-0.022,0.096-0.042,0.192-0.06,0.289c-0.019,0.106-0.035,0.213-0.049,0.321   c-0.013,0.099-0.024,0.198-0.032,0.298c-0.004,0.046-0.012,0.091-0.015,0.138H28.095V35.881h6.465v4.273   c0,0.208,0.168,0.376,0.376,0.376h30.807c0.208,0,0.376-0.168,0.376-0.376v-4.273h5.786V73.465z M35.312,39.778v-4.273v-4.274   h30.054v4.274v4.273H35.312z M71.905,35.129h-5.786v-4.274c0-0.208-0.168-0.376-0.376-0.376H34.936   c-0.208,0-0.376,0.168-0.376,0.376v4.274h-6.465V21.785h6.465v4.274c0,0.208,0.168,0.376,0.376,0.376h30.807   c0.208,0,0.376-0.168,0.376-0.376v-4.274h5.786V35.129z M35.312,25.683v-4.274v-4.273h30.054v4.273v4.274H35.312z M71.905,21.033   h-5.786v-4.273c0-0.208-0.168-0.376-0.376-0.376H34.936c-0.208,0-0.376,0.168-0.376,0.376v4.273h-6.465V10.026   c0-2.356,1.918-4.273,4.274-4.273h35.262c2.357,0,4.275,1.917,4.275,4.273V21.033z"/>
    <path d="M50,59.153c-1.689,0-3.063,1.374-3.063,3.063c0,1.689,1.374,3.063,3.063,3.063c1.689,0,3.063-1.375,3.063-3.063   C53.063,60.528,51.689,59.153,50,59.153z M50,64.527c-1.274,0-2.311-1.036-2.311-2.311c0-1.274,1.037-2.31,2.311-2.31   c1.274,0,2.311,1.036,2.311,2.31C52.31,63.49,51.274,64.527,50,64.527z"/>
  </g>
  <g transform="matrix(1, 0, 0, 1, 13.233479, 85.431732)">
    <g transform="matrix(0.828614, 0, 0, 0.741116, 447.60553, 58.476715)">
      <circle fill="none" cx="50" cy="62.216" r="2.31"/>
      <path fill="none" d="M66.119,40.154c0,0.208-0.168,0.376-0.376,0.376H34.936c-0.208,0-0.376-0.168-0.376-0.376v-4.273h-6.465   v37.583h15.598c0.003-0.047,0.011-0.092,0.015-0.138c0.008-0.1,0.019-0.199,0.032-0.298c0.014-0.108,0.03-0.215,0.049-0.321   c0.018-0.097,0.038-0.194,0.06-0.289c0.024-0.104,0.051-0.208,0.08-0.31c0.027-0.094,0.056-0.187,0.087-0.28   c0.034-0.1,0.07-0.198,0.108-0.295c0.036-0.091,0.073-0.181,0.113-0.27c0.043-0.095,0.088-0.188,0.135-0.28   c0.044-0.086,0.089-0.172,0.136-0.256c0.051-0.09,0.106-0.178,0.161-0.265c0.052-0.081,0.104-0.162,0.159-0.241   c0.059-0.084,0.122-0.166,0.185-0.248c0.059-0.076,0.117-0.151,0.179-0.224c0.067-0.079,0.137-0.154,0.208-0.229   c0.065-0.07,0.13-0.14,0.199-0.206c0.074-0.072,0.152-0.141,0.23-0.209c0.071-0.063,0.141-0.126,0.215-0.185   c0.082-0.066,0.167-0.127,0.253-0.189c0.076-0.055,0.15-0.111,0.229-0.163c0.089-0.059,0.181-0.112,0.273-0.166   c0.08-0.047,0.159-0.097,0.241-0.141c0.096-0.051,0.196-0.096,0.294-0.142c0.083-0.039,0.164-0.08,0.249-0.115   c0.105-0.043,0.213-0.079,0.32-0.117c0.084-0.03,0.166-0.062,0.251-0.088c0.115-0.035,0.233-0.062,0.35-0.09   c0.082-0.02,0.162-0.044,0.245-0.061c0.131-0.026,0.266-0.043,0.4-0.061c0.072-0.01,0.143-0.024,0.216-0.032   c0.208-0.021,0.419-0.032,0.633-0.032s0.425,0.011,0.633,0.032c0.073,0.007,0.145,0.022,0.217,0.032   c0.134,0.018,0.268,0.035,0.399,0.061c0.084,0.017,0.164,0.041,0.247,0.061c0.117,0.029,0.234,0.055,0.348,0.09   c0.086,0.026,0.169,0.06,0.254,0.089c0.106,0.038,0.213,0.073,0.317,0.116c0.086,0.036,0.168,0.077,0.252,0.117   c0.098,0.046,0.197,0.09,0.292,0.141c0.083,0.044,0.162,0.093,0.242,0.141c0.092,0.054,0.184,0.107,0.273,0.166   c0.079,0.052,0.154,0.109,0.23,0.164c0.085,0.062,0.17,0.122,0.251,0.188c0.075,0.06,0.146,0.124,0.217,0.188   c0.077,0.068,0.154,0.136,0.228,0.208c0.069,0.067,0.134,0.137,0.2,0.207c0.07,0.075,0.14,0.15,0.207,0.228   c0.063,0.073,0.121,0.149,0.181,0.225c0.063,0.081,0.125,0.162,0.184,0.246c0.055,0.079,0.107,0.16,0.159,0.241   c0.056,0.087,0.11,0.175,0.161,0.265c0.048,0.084,0.092,0.169,0.136,0.255c0.047,0.093,0.093,0.186,0.136,0.282   c0.04,0.088,0.076,0.178,0.112,0.268c0.039,0.098,0.075,0.196,0.109,0.296c0.031,0.092,0.06,0.185,0.087,0.279   c0.029,0.103,0.056,0.206,0.08,0.31c0.022,0.095,0.042,0.191,0.06,0.288c0.02,0.107,0.036,0.215,0.049,0.323   c0.013,0.098,0.024,0.196,0.032,0.296c0.004,0.047,0.012,0.092,0.015,0.139h15.598V35.881h-5.786V40.154z M50,65.28   c-1.689,0-3.063-1.375-3.063-3.063c0-1.688,1.374-3.063,3.063-3.063c1.689,0,3.063,1.374,3.063,3.063   C53.063,63.905,51.689,65.28,50,65.28z"/>
      <circle fill="none" cx="50" cy="73.841" r="5.566"/>
      <path fill="none" d="M56.292,74.357c-0.008,0.099-0.019,0.197-0.032,0.295c-0.014,0.109-0.03,0.217-0.05,0.324   c-0.018,0.096-0.038,0.192-0.06,0.286c-0.024,0.105-0.051,0.209-0.081,0.313c-0.027,0.093-0.055,0.185-0.086,0.277   c-0.034,0.101-0.071,0.2-0.11,0.299c-0.035,0.089-0.072,0.178-0.111,0.265c-0.043,0.096-0.09,0.191-0.137,0.285   c-0.043,0.085-0.087,0.169-0.134,0.251c-0.052,0.091-0.107,0.18-0.164,0.269c-0.051,0.08-0.102,0.16-0.157,0.237   c-0.06,0.086-0.123,0.168-0.187,0.25c-0.058,0.075-0.116,0.149-0.177,0.221c-0.068,0.08-0.139,0.156-0.211,0.232   c-0.064,0.068-0.128,0.137-0.195,0.203c-0.075,0.073-0.154,0.143-0.234,0.212c-0.07,0.062-0.139,0.124-0.212,0.183   c-0.083,0.067-0.169,0.129-0.255,0.191c-0.075,0.054-0.148,0.11-0.226,0.161c-0.09,0.06-0.184,0.114-0.278,0.169   c-0.079,0.046-0.156,0.095-0.237,0.138c-0.097,0.052-0.198,0.097-0.299,0.144c-0.082,0.038-0.162,0.079-0.246,0.114   c-0.105,0.044-0.214,0.08-0.322,0.118c-0.083,0.029-0.164,0.062-0.249,0.088c-0.116,0.036-0.236,0.063-0.355,0.092   c-0.08,0.02-0.158,0.043-0.239,0.059c-0.132,0.027-0.268,0.044-0.403,0.062c-0.071,0.01-0.141,0.024-0.213,0.031   c-0.208,0.021-0.419,0.032-0.633,0.032s-0.425-0.011-0.633-0.032c-0.072-0.007-0.141-0.022-0.212-0.031   c-0.136-0.018-0.272-0.035-0.405-0.062c-0.08-0.016-0.158-0.04-0.237-0.059c-0.12-0.029-0.241-0.056-0.358-0.092   c-0.083-0.026-0.164-0.058-0.246-0.087c-0.109-0.039-0.219-0.075-0.325-0.119c-0.083-0.034-0.162-0.075-0.243-0.113   c-0.101-0.047-0.203-0.093-0.301-0.145c-0.081-0.043-0.158-0.091-0.236-0.138c-0.094-0.055-0.188-0.109-0.278-0.169   c-0.077-0.051-0.15-0.106-0.225-0.16c-0.087-0.063-0.174-0.125-0.257-0.192c-0.072-0.058-0.14-0.12-0.21-0.181   c-0.08-0.07-0.159-0.14-0.236-0.214c-0.067-0.065-0.13-0.134-0.194-0.202c-0.072-0.077-0.144-0.153-0.212-0.233   c-0.061-0.072-0.118-0.146-0.176-0.22c-0.065-0.083-0.128-0.166-0.189-0.252c-0.054-0.078-0.105-0.157-0.156-0.237   c-0.056-0.088-0.111-0.177-0.163-0.269c-0.047-0.083-0.091-0.167-0.135-0.252c-0.048-0.093-0.094-0.187-0.137-0.283   c-0.039-0.088-0.076-0.177-0.112-0.267c-0.039-0.098-0.075-0.197-0.109-0.298c-0.031-0.092-0.059-0.184-0.086-0.277   c-0.029-0.103-0.056-0.207-0.081-0.312c-0.022-0.095-0.042-0.191-0.06-0.288c-0.019-0.106-0.035-0.214-0.049-0.322   c-0.013-0.099-0.024-0.198-0.032-0.298c-0.004-0.046-0.012-0.091-0.015-0.138H28.095v15.756c0,2.357,1.918,4.274,4.274,4.274   h35.262c2.357,0,4.275-1.917,4.275-4.274V74.217H56.307C56.304,74.264,56.296,74.31,56.292,74.357z"/>
      <path fill="none" d="M66.119,26.059c0,0.208-0.168,0.376-0.376,0.376H34.936c-0.208,0-0.376-0.168-0.376-0.376v-4.274h-6.465   v13.343h6.465v-4.274c0-0.208,0.168-0.376,0.376-0.376h30.807c0.208,0,0.376,0.168,0.376,0.376v4.274h5.786V21.785h-5.786V26.059z"/>
      <path fill="none" d="M67.631,5.753H32.369c-2.357,0-4.274,1.917-4.274,4.273v11.007h6.465v-4.273c0-0.208,0.168-0.376,0.376-0.376   h30.807c0.208,0,0.376,0.168,0.376,0.376v4.273h5.786V10.026C71.905,7.67,69.988,5.753,67.631,5.753z"/>
      <polygon fill="none" points="65.366,17.135 35.312,17.135 35.312,21.409 35.312,25.683 65.366,25.683 65.366,21.409  "/>
      <polygon fill="none" points="65.366,31.231 35.312,31.231 35.312,35.505 35.312,39.778 65.366,39.778 65.366,35.505  "/>
      <path d="M67.631,5H32.369c-2.772,0-5.027,2.255-5.027,5.026v11.383v14.096v38.336v16.133c0,2.772,2.255,5.026,5.027,5.026h35.262   c2.772,0,5.027-2.255,5.027-5.026V73.841V35.505V21.409V10.026C72.658,7.254,70.403,5,67.631,5z M71.905,89.974   c0,2.357-1.918,4.274-4.275,4.274H32.369c-2.357,0-4.274-1.917-4.274-4.274V74.217h15.598c0.003,0.047,0.011,0.092,0.015,0.138   c0.008,0.1,0.019,0.199,0.032,0.298c0.014,0.108,0.03,0.216,0.049,0.322c0.018,0.097,0.038,0.192,0.06,0.288   c0.024,0.105,0.051,0.209,0.081,0.312c0.027,0.093,0.055,0.186,0.086,0.277c0.034,0.1,0.07,0.199,0.109,0.298   c0.036,0.09,0.072,0.179,0.112,0.267c0.043,0.096,0.089,0.19,0.137,0.283c0.043,0.085,0.088,0.17,0.135,0.252   c0.052,0.091,0.107,0.18,0.163,0.269c0.051,0.08,0.102,0.159,0.156,0.237c0.06,0.086,0.124,0.169,0.189,0.252   c0.058,0.074,0.115,0.148,0.176,0.22c0.068,0.08,0.14,0.157,0.212,0.233c0.064,0.068,0.127,0.136,0.194,0.202   c0.076,0.074,0.156,0.144,0.236,0.214c0.069,0.061,0.138,0.123,0.21,0.181c0.083,0.067,0.17,0.129,0.257,0.192   c0.075,0.054,0.148,0.11,0.225,0.16c0.09,0.06,0.184,0.114,0.278,0.169c0.078,0.046,0.156,0.095,0.236,0.138   c0.098,0.052,0.2,0.098,0.301,0.145c0.081,0.038,0.16,0.078,0.243,0.113c0.106,0.044,0.216,0.081,0.325,0.119   c0.082,0.029,0.162,0.061,0.246,0.087c0.117,0.036,0.238,0.063,0.358,0.092c0.079,0.019,0.157,0.043,0.237,0.059   c0.133,0.027,0.269,0.044,0.405,0.062c0.071,0.01,0.14,0.024,0.212,0.031c0.208,0.021,0.419,0.032,0.633,0.032   s0.425-0.011,0.633-0.032c0.072-0.007,0.142-0.022,0.213-0.031c0.135-0.018,0.271-0.035,0.403-0.062   c0.081-0.016,0.159-0.04,0.239-0.059c0.119-0.029,0.239-0.056,0.355-0.092c0.085-0.026,0.166-0.058,0.249-0.088   c0.108-0.038,0.217-0.074,0.322-0.118c0.084-0.035,0.164-0.076,0.246-0.114c0.1-0.047,0.201-0.092,0.299-0.144   c0.081-0.043,0.158-0.091,0.237-0.138c0.093-0.055,0.187-0.109,0.278-0.169c0.077-0.051,0.151-0.107,0.226-0.161   c0.086-0.063,0.173-0.125,0.255-0.191c0.073-0.059,0.142-0.121,0.212-0.183c0.079-0.07,0.158-0.139,0.234-0.212   c0.067-0.066,0.131-0.134,0.195-0.203c0.072-0.076,0.143-0.152,0.211-0.232c0.061-0.072,0.119-0.147,0.177-0.221   c0.064-0.082,0.127-0.165,0.187-0.25c0.054-0.078,0.106-0.157,0.157-0.237c0.056-0.089,0.112-0.177,0.164-0.269   c0.047-0.083,0.091-0.167,0.134-0.251c0.048-0.094,0.094-0.188,0.137-0.285c0.039-0.087,0.076-0.176,0.111-0.265   c0.039-0.099,0.076-0.198,0.11-0.299c0.031-0.091,0.059-0.183,0.086-0.277c0.03-0.103,0.056-0.207,0.081-0.313   c0.022-0.095,0.042-0.19,0.06-0.286c0.02-0.107,0.036-0.215,0.05-0.324c0.013-0.098,0.024-0.196,0.032-0.295   c0.004-0.047,0.012-0.092,0.015-0.139h15.598V89.974z M44.434,73.841c0-3.07,2.497-5.567,5.565-5.567   c3.069,0,5.566,2.497,5.566,5.567c0,3.068-2.497,5.565-5.566,5.565C46.931,79.406,44.434,76.909,44.434,73.841z M71.905,73.465   H56.307c-0.003-0.047-0.011-0.092-0.015-0.139c-0.008-0.099-0.019-0.198-0.032-0.296c-0.014-0.109-0.03-0.216-0.049-0.323   c-0.018-0.097-0.038-0.193-0.06-0.288c-0.024-0.104-0.051-0.208-0.08-0.31c-0.027-0.094-0.056-0.187-0.087-0.279   c-0.034-0.1-0.07-0.199-0.109-0.296c-0.036-0.09-0.072-0.18-0.112-0.268c-0.043-0.095-0.089-0.189-0.136-0.282   c-0.044-0.086-0.088-0.171-0.136-0.255c-0.051-0.09-0.106-0.178-0.161-0.265c-0.052-0.082-0.104-0.162-0.159-0.241   c-0.059-0.084-0.121-0.165-0.184-0.246c-0.059-0.076-0.118-0.152-0.181-0.225c-0.067-0.078-0.137-0.153-0.207-0.228   c-0.066-0.07-0.131-0.14-0.2-0.207c-0.074-0.072-0.151-0.139-0.228-0.208c-0.072-0.063-0.143-0.127-0.217-0.188   c-0.081-0.065-0.166-0.126-0.251-0.188c-0.076-0.055-0.151-0.112-0.23-0.164c-0.089-0.059-0.181-0.112-0.273-0.166   c-0.08-0.047-0.159-0.097-0.242-0.141c-0.095-0.051-0.194-0.095-0.292-0.141c-0.084-0.039-0.166-0.081-0.252-0.117   c-0.104-0.043-0.211-0.079-0.317-0.116c-0.085-0.03-0.168-0.063-0.254-0.089c-0.114-0.035-0.231-0.061-0.348-0.09   c-0.082-0.02-0.163-0.044-0.247-0.061c-0.131-0.026-0.265-0.043-0.399-0.061c-0.073-0.01-0.144-0.025-0.217-0.032   c-0.208-0.021-0.419-0.032-0.633-0.032s-0.425,0.011-0.633,0.032c-0.073,0.007-0.144,0.022-0.216,0.032   c-0.134,0.018-0.269,0.035-0.4,0.061c-0.083,0.017-0.163,0.041-0.245,0.061c-0.117,0.029-0.236,0.055-0.35,0.09   c-0.085,0.026-0.167,0.059-0.251,0.088c-0.107,0.038-0.216,0.074-0.32,0.117c-0.085,0.035-0.166,0.077-0.249,0.115   c-0.099,0.046-0.198,0.091-0.294,0.142c-0.082,0.044-0.161,0.093-0.241,0.141c-0.092,0.054-0.184,0.107-0.273,0.166   c-0.078,0.052-0.153,0.108-0.229,0.163c-0.085,0.062-0.171,0.123-0.253,0.189c-0.074,0.059-0.144,0.123-0.215,0.185   c-0.078,0.069-0.156,0.137-0.23,0.209c-0.068,0.067-0.133,0.137-0.199,0.206c-0.071,0.075-0.141,0.15-0.208,0.229   c-0.062,0.073-0.12,0.148-0.179,0.224c-0.063,0.081-0.126,0.163-0.185,0.248c-0.055,0.079-0.107,0.16-0.159,0.241   c-0.055,0.087-0.11,0.175-0.161,0.265c-0.048,0.084-0.092,0.169-0.136,0.256c-0.047,0.092-0.093,0.185-0.135,0.28   c-0.04,0.089-0.077,0.179-0.113,0.27c-0.038,0.097-0.075,0.196-0.108,0.295c-0.031,0.092-0.06,0.186-0.087,0.28   c-0.029,0.102-0.056,0.206-0.08,0.31c-0.022,0.096-0.042,0.192-0.06,0.289c-0.019,0.106-0.035,0.213-0.049,0.321   c-0.013,0.099-0.024,0.198-0.032,0.298c-0.004,0.046-0.012,0.091-0.015,0.138H28.095V35.881h6.465v4.273   c0,0.208,0.168,0.376,0.376,0.376h30.807c0.208,0,0.376-0.168,0.376-0.376v-4.273h5.786V73.465z M35.312,39.778v-4.273v-4.274   h30.054v4.274v4.273H35.312z M71.905,35.129h-5.786v-4.274c0-0.208-0.168-0.376-0.376-0.376H34.936   c-0.208,0-0.376,0.168-0.376,0.376v4.274h-6.465V21.785h6.465v4.274c0,0.208,0.168,0.376,0.376,0.376h30.807   c0.208,0,0.376-0.168,0.376-0.376v-4.274h5.786V35.129z M35.312,25.683v-4.274v-4.273h30.054v4.273v4.274H35.312z M71.905,21.033   h-5.786v-4.273c0-0.208-0.168-0.376-0.376-0.376H34.936c-0.208,0-0.376,0.168-0.376,0.376v4.273h-6.465V10.026   c0-2.356,1.918-4.273,4.274-4.273h35.262c2.357,0,4.275,1.917,4.275,4.273V21.033z"/>
      <path d="M50,59.153c-1.689,0-3.063,1.374-3.063,3.063c0,1.689,1.374,3.063,3.063,3.063c1.689,0,3.063-1.375,3.063-3.063   C53.063,60.528,51.689,59.153,50,59.153z M50,64.527c-1.274,0-2.311-1.036-2.311-2.311c0-1.274,1.037-2.31,2.311-2.31   c1.274,0,2.311,1.036,2.311,2.31C52.31,63.49,51.274,64.527,50,64.527z"/>
    </g>
  </g>
  <g transform="matrix(0.828614, 0, 0, 0.741116, 352.623016, 60.047821)">
    <circle fill="none" cx="50" cy="62.216" r="2.31"/>
    <path fill="none" d="M66.119,40.154c0,0.208-0.168,0.376-0.376,0.376H34.936c-0.208,0-0.376-0.168-0.376-0.376v-4.273h-6.465   v37.583h15.598c0.003-0.047,0.011-0.092,0.015-0.138c0.008-0.1,0.019-0.199,0.032-0.298c0.014-0.108,0.03-0.215,0.049-0.321   c0.018-0.097,0.038-0.194,0.06-0.289c0.024-0.104,0.051-0.208,0.08-0.31c0.027-0.094,0.056-0.187,0.087-0.28   c0.034-0.1,0.07-0.198,0.108-0.295c0.036-0.091,0.073-0.181,0.113-0.27c0.043-0.095,0.088-0.188,0.135-0.28   c0.044-0.086,0.089-0.172,0.136-0.256c0.051-0.09,0.106-0.178,0.161-0.265c0.052-0.081,0.104-0.162,0.159-0.241   c0.059-0.084,0.122-0.166,0.185-0.248c0.059-0.076,0.117-0.151,0.179-0.224c0.067-0.079,0.137-0.154,0.208-0.229   c0.065-0.07,0.13-0.14,0.199-0.206c0.074-0.072,0.152-0.141,0.23-0.209c0.071-0.063,0.141-0.126,0.215-0.185   c0.082-0.066,0.167-0.127,0.253-0.189c0.076-0.055,0.15-0.111,0.229-0.163c0.089-0.059,0.181-0.112,0.273-0.166   c0.08-0.047,0.159-0.097,0.241-0.141c0.096-0.051,0.196-0.096,0.294-0.142c0.083-0.039,0.164-0.08,0.249-0.115   c0.105-0.043,0.213-0.079,0.32-0.117c0.084-0.03,0.166-0.062,0.251-0.088c0.115-0.035,0.233-0.062,0.35-0.09   c0.082-0.02,0.162-0.044,0.245-0.061c0.131-0.026,0.266-0.043,0.4-0.061c0.072-0.01,0.143-0.024,0.216-0.032   c0.208-0.021,0.419-0.032,0.633-0.032s0.425,0.011,0.633,0.032c0.073,0.007,0.145,0.022,0.217,0.032   c0.134,0.018,0.268,0.035,0.399,0.061c0.084,0.017,0.164,0.041,0.247,0.061c0.117,0.029,0.234,0.055,0.348,0.09   c0.086,0.026,0.169,0.06,0.254,0.089c0.106,0.038,0.213,0.073,0.317,0.116c0.086,0.036,0.168,0.077,0.252,0.117   c0.098,0.046,0.197,0.09,0.292,0.141c0.083,0.044,0.162,0.093,0.242,0.141c0.092,0.054,0.184,0.107,0.273,0.166   c0.079,0.052,0.154,0.109,0.23,0.164c0.085,0.062,0.17,0.122,0.251,0.188c0.075,0.06,0.146,0.124,0.217,0.188   c0.077,0.068,0.154,0.136,0.228,0.208c0.069,0.067,0.134,0.137,0.2,0.207c0.07,0.075,0.14,0.15,0.207,0.228   c0.063,0.073,0.121,0.149,0.181,0.225c0.063,0.081,0.125,0.162,0.184,0.246c0.055,0.079,0.107,0.16,0.159,0.241   c0.056,0.087,0.11,0.175,0.161,0.265c0.048,0.084,0.092,0.169,0.136,0.255c0.047,0.093,0.093,0.186,0.136,0.282   c0.04,0.088,0.076,0.178,0.112,0.268c0.039,0.098,0.075,0.196,0.109,0.296c0.031,0.092,0.06,0.185,0.087,0.279   c0.029,0.103,0.056,0.206,0.08,0.31c0.022,0.095,0.042,0.191,0.06,0.288c0.02,0.107,0.036,0.215,0.049,0.323   c0.013,0.098,0.024,0.196,0.032,0.296c0.004,0.047,0.012,0.092,0.015,0.139h15.598V35.881h-5.786V40.154z M50,65.28   c-1.689,0-3.063-1.375-3.063-3.063c0-1.688,1.374-3.063,3.063-3.063c1.689,0,3.063,1.374,3.063,3.063   C53.063,63.905,51.689,65.28,50,65.28z"/>
    <circle fill="none" cx="50" cy="73.841" r="5.566"/>
    <path fill="none" d="M56.292,74.357c-0.008,0.099-0.019,0.197-0.032,0.295c-0.014,0.109-0.03,0.217-0.05,0.324   c-0.018,0.096-0.038,0.192-0.06,0.286c-0.024,0.105-0.051,0.209-0.081,0.313c-0.027,0.093-0.055,0.185-0.086,0.277   c-0.034,0.101-0.071,0.2-0.11,0.299c-0.035,0.089-0.072,0.178-0.111,0.265c-0.043,0.096-0.09,0.191-0.137,0.285   c-0.043,0.085-0.087,0.169-0.134,0.251c-0.052,0.091-0.107,0.18-0.164,0.269c-0.051,0.08-0.102,0.16-0.157,0.237   c-0.06,0.086-0.123,0.168-0.187,0.25c-0.058,0.075-0.116,0.149-0.177,0.221c-0.068,0.08-0.139,0.156-0.211,0.232   c-0.064,0.068-0.128,0.137-0.195,0.203c-0.075,0.073-0.154,0.143-0.234,0.212c-0.07,0.062-0.139,0.124-0.212,0.183   c-0.083,0.067-0.169,0.129-0.255,0.191c-0.075,0.054-0.148,0.11-0.226,0.161c-0.09,0.06-0.184,0.114-0.278,0.169   c-0.079,0.046-0.156,0.095-0.237,0.138c-0.097,0.052-0.198,0.097-0.299,0.144c-0.082,0.038-0.162,0.079-0.246,0.114   c-0.105,0.044-0.214,0.08-0.322,0.118c-0.083,0.029-0.164,0.062-0.249,0.088c-0.116,0.036-0.236,0.063-0.355,0.092   c-0.08,0.02-0.158,0.043-0.239,0.059c-0.132,0.027-0.268,0.044-0.403,0.062c-0.071,0.01-0.141,0.024-0.213,0.031   c-0.208,0.021-0.419,0.032-0.633,0.032s-0.425-0.011-0.633-0.032c-0.072-0.007-0.141-0.022-0.212-0.031   c-0.136-0.018-0.272-0.035-0.405-0.062c-0.08-0.016-0.158-0.04-0.237-0.059c-0.12-0.029-0.241-0.056-0.358-0.092   c-0.083-0.026-0.164-0.058-0.246-0.087c-0.109-0.039-0.219-0.075-0.325-0.119c-0.083-0.034-0.162-0.075-0.243-0.113   c-0.101-0.047-0.203-0.093-0.301-0.145c-0.081-0.043-0.158-0.091-0.236-0.138c-0.094-0.055-0.188-0.109-0.278-0.169   c-0.077-0.051-0.15-0.106-0.225-0.16c-0.087-0.063-0.174-0.125-0.257-0.192c-0.072-0.058-0.14-0.12-0.21-0.181   c-0.08-0.07-0.159-0.14-0.236-0.214c-0.067-0.065-0.13-0.134-0.194-0.202c-0.072-0.077-0.144-0.153-0.212-0.233   c-0.061-0.072-0.118-0.146-0.176-0.22c-0.065-0.083-0.128-0.166-0.189-0.252c-0.054-0.078-0.105-0.157-0.156-0.237   c-0.056-0.088-0.111-0.177-0.163-0.269c-0.047-0.083-0.091-0.167-0.135-0.252c-0.048-0.093-0.094-0.187-0.137-0.283   c-0.039-0.088-0.076-0.177-0.112-0.267c-0.039-0.098-0.075-0.197-0.109-0.298c-0.031-0.092-0.059-0.184-0.086-0.277   c-0.029-0.103-0.056-0.207-0.081-0.312c-0.022-0.095-0.042-0.191-0.06-0.288c-0.019-0.106-0.035-0.214-0.049-0.322   c-0.013-0.099-0.024-0.198-0.032-0.298c-0.004-0.046-0.012-0.091-0.015-0.138H28.095v15.756c0,2.357,1.918,4.274,4.274,4.274   h35.262c2.357,0,4.275-1.917,4.275-4.274V74.217H56.307C56.304,74.264,56.296,74.31,56.292,74.357z"/>
    <path fill="none" d="M66.119,26.059c0,0.208-0.168,0.376-0.376,0.376H34.936c-0.208,0-0.376-0.168-0.376-0.376v-4.274h-6.465   v13.343h6.465v-4.274c0-0.208,0.168-0.376,0.376-0.376h30.807c0.208,0,0.376,0.168,0.376,0.376v4.274h5.786V21.785h-5.786V26.059z"/>
    <path fill="none" d="M67.631,5.753H32.369c-2.357,0-4.274,1.917-4.274,4.273v11.007h6.465v-4.273c0-0.208,0.168-0.376,0.376-0.376   h30.807c0.208,0,0.376,0.168,0.376,0.376v4.273h5.786V10.026C71.905,7.67,69.988,5.753,67.631,5.753z"/>
    <polygon fill="none" points="65.366,17.135 35.312,17.135 35.312,21.409 35.312,25.683 65.366,25.683 65.366,21.409  "/>
    <polygon fill="none" points="65.366,31.231 35.312,31.231 35.312,35.505 35.312,39.778 65.366,39.778 65.366,35.505  "/>
    <path d="M67.631,5H32.369c-2.772,0-5.027,2.255-5.027,5.026v11.383v14.096v38.336v16.133c0,2.772,2.255,5.026,5.027,5.026h35.262   c2.772,0,5.027-2.255,5.027-5.026V73.841V35.505V21.409V10.026C72.658,7.254,70.403,5,67.631,5z M71.905,89.974   c0,2.357-1.918,4.274-4.275,4.274H32.369c-2.357,0-4.274-1.917-4.274-4.274V74.217h15.598c0.003,0.047,0.011,0.092,0.015,0.138   c0.008,0.1,0.019,0.199,0.032,0.298c0.014,0.108,0.03,0.216,0.049,0.322c0.018,0.097,0.038,0.192,0.06,0.288   c0.024,0.105,0.051,0.209,0.081,0.312c0.027,0.093,0.055,0.186,0.086,0.277c0.034,0.1,0.07,0.199,0.109,0.298   c0.036,0.09,0.072,0.179,0.112,0.267c0.043,0.096,0.089,0.19,0.137,0.283c0.043,0.085,0.088,0.17,0.135,0.252   c0.052,0.091,0.107,0.18,0.163,0.269c0.051,0.08,0.102,0.159,0.156,0.237c0.06,0.086,0.124,0.169,0.189,0.252   c0.058,0.074,0.115,0.148,0.176,0.22c0.068,0.08,0.14,0.157,0.212,0.233c0.064,0.068,0.127,0.136,0.194,0.202   c0.076,0.074,0.156,0.144,0.236,0.214c0.069,0.061,0.138,0.123,0.21,0.181c0.083,0.067,0.17,0.129,0.257,0.192   c0.075,0.054,0.148,0.11,0.225,0.16c0.09,0.06,0.184,0.114,0.278,0.169c0.078,0.046,0.156,0.095,0.236,0.138   c0.098,0.052,0.2,0.098,0.301,0.145c0.081,0.038,0.16,0.078,0.243,0.113c0.106,0.044,0.216,0.081,0.325,0.119   c0.082,0.029,0.162,0.061,0.246,0.087c0.117,0.036,0.238,0.063,0.358,0.092c0.079,0.019,0.157,0.043,0.237,0.059   c0.133,0.027,0.269,0.044,0.405,0.062c0.071,0.01,0.14,0.024,0.212,0.031c0.208,0.021,0.419,0.032,0.633,0.032   s0.425-0.011,0.633-0.032c0.072-0.007,0.142-0.022,0.213-0.031c0.135-0.018,0.271-0.035,0.403-0.062   c0.081-0.016,0.159-0.04,0.239-0.059c0.119-0.029,0.239-0.056,0.355-0.092c0.085-0.026,0.166-0.058,0.249-0.088   c0.108-0.038,0.217-0.074,0.322-0.118c0.084-0.035,0.164-0.076,0.246-0.114c0.1-0.047,0.201-0.092,0.299-0.144   c0.081-0.043,0.158-0.091,0.237-0.138c0.093-0.055,0.187-0.109,0.278-0.169c0.077-0.051,0.151-0.107,0.226-0.161   c0.086-0.063,0.173-0.125,0.255-0.191c0.073-0.059,0.142-0.121,0.212-0.183c0.079-0.07,0.158-0.139,0.234-0.212   c0.067-0.066,0.131-0.134,0.195-0.203c0.072-0.076,0.143-0.152,0.211-0.232c0.061-0.072,0.119-0.147,0.177-0.221   c0.064-0.082,0.127-0.165,0.187-0.25c0.054-0.078,0.106-0.157,0.157-0.237c0.056-0.089,0.112-0.177,0.164-0.269   c0.047-0.083,0.091-0.167,0.134-0.251c0.048-0.094,0.094-0.188,0.137-0.285c0.039-0.087,0.076-0.176,0.111-0.265   c0.039-0.099,0.076-0.198,0.11-0.299c0.031-0.091,0.059-0.183,0.086-0.277c0.03-0.103,0.056-0.207,0.081-0.313   c0.022-0.095,0.042-0.19,0.06-0.286c0.02-0.107,0.036-0.215,0.05-0.324c0.013-0.098,0.024-0.196,0.032-0.295   c0.004-0.047,0.012-0.092,0.015-0.139h15.598V89.974z M44.434,73.841c0-3.07,2.497-5.567,5.565-5.567   c3.069,0,5.566,2.497,5.566,5.567c0,3.068-2.497,5.565-5.566,5.565C46.931,79.406,44.434,76.909,44.434,73.841z M71.905,73.465   H56.307c-0.003-0.047-0.011-0.092-0.015-0.139c-0.008-0.099-0.019-0.198-0.032-0.296c-0.014-0.109-0.03-0.216-0.049-0.323   c-0.018-0.097-0.038-0.193-0.06-0.288c-0.024-0.104-0.051-0.208-0.08-0.31c-0.027-0.094-0.056-0.187-0.087-0.279   c-0.034-0.1-0.07-0.199-0.109-0.296c-0.036-0.09-0.072-0.18-0.112-0.268c-0.043-0.095-0.089-0.189-0.136-0.282   c-0.044-0.086-0.088-0.171-0.136-0.255c-0.051-0.09-0.106-0.178-0.161-0.265c-0.052-0.082-0.104-0.162-0.159-0.241   c-0.059-0.084-0.121-0.165-0.184-0.246c-0.059-0.076-0.118-0.152-0.181-0.225c-0.067-0.078-0.137-0.153-0.207-0.228   c-0.066-0.07-0.131-0.14-0.2-0.207c-0.074-0.072-0.151-0.139-0.228-0.208c-0.072-0.063-0.143-0.127-0.217-0.188   c-0.081-0.065-0.166-0.126-0.251-0.188c-0.076-0.055-0.151-0.112-0.23-0.164c-0.089-0.059-0.181-0.112-0.273-0.166   c-0.08-0.047-0.159-0.097-0.242-0.141c-0.095-0.051-0.194-0.095-0.292-0.141c-0.084-0.039-0.166-0.081-0.252-0.117   c-0.104-0.043-0.211-0.079-0.317-0.116c-0.085-0.03-0.168-0.063-0.254-0.089c-0.114-0.035-0.231-0.061-0.348-0.09   c-0.082-0.02-0.163-0.044-0.247-0.061c-0.131-0.026-0.265-0.043-0.399-0.061c-0.073-0.01-0.144-0.025-0.217-0.032   c-0.208-0.021-0.419-0.032-0.633-0.032s-0.425,0.011-0.633,0.032c-0.073,0.007-0.144,0.022-0.216,0.032   c-0.134,0.018-0.269,0.035-0.4,0.061c-0.083,0.017-0.163,0.041-0.245,0.061c-0.117,0.029-0.236,0.055-0.35,0.09   c-0.085,0.026-0.167,0.059-0.251,0.088c-0.107,0.038-0.216,0.074-0.32,0.117c-0.085,0.035-0.166,0.077-0.249,0.115   c-0.099,0.046-0.198,0.091-0.294,0.142c-0.082,0.044-0.161,0.093-0.241,0.141c-0.092,0.054-0.184,0.107-0.273,0.166   c-0.078,0.052-0.153,0.108-0.229,0.163c-0.085,0.062-0.171,0.123-0.253,0.189c-0.074,0.059-0.144,0.123-0.215,0.185   c-0.078,0.069-0.156,0.137-0.23,0.209c-0.068,0.067-0.133,0.137-0.199,0.206c-0.071,0.075-0.141,0.15-0.208,0.229   c-0.062,0.073-0.12,0.148-0.179,0.224c-0.063,0.081-0.126,0.163-0.185,0.248c-0.055,0.079-0.107,0.16-0.159,0.241   c-0.055,0.087-0.11,0.175-0.161,0.265c-0.048,0.084-0.092,0.169-0.136,0.256c-0.047,0.092-0.093,0.185-0.135,0.28   c-0.04,0.089-0.077,0.179-0.113,0.27c-0.038,0.097-0.075,0.196-0.108,0.295c-0.031,0.092-0.06,0.186-0.087,0.28   c-0.029,0.102-0.056,0.206-0.08,0.31c-0.022,0.096-0.042,0.192-0.06,0.289c-0.019,0.106-0.035,0.213-0.049,0.321   c-0.013,0.099-0.024,0.198-0.032,0.298c-0.004,0.046-0.012,0.091-0.015,0.138H28.095V35.881h6.465v4.273   c0,0.208,0.168,0.376,0.376,0.376h30.807c0.208,0,0.376-0.168,0.376-0.376v-4.273h5.786V73.465z M35.312,39.778v-4.273v-4.274   h30.054v4.274v4.273H35.312z M71.905,35.129h-5.786v-4.274c0-0.208-0.168-0.376-0.376-0.376H34.936   c-0.208,0-0.376,0.168-0.376,0.376v4.274h-6.465V21.785h6.465v4.274c0,0.208,0.168,0.376,0.376,0.376h30.807   c0.208,0,0.376-0.168,0.376-0.376v-4.274h5.786V35.129z M35.312,25.683v-4.274v-4.273h30.054v4.273v4.274H35.312z M71.905,21.033   h-5.786v-4.273c0-0.208-0.168-0.376-0.376-0.376H34.936c-0.208,0-0.376,0.168-0.376,0.376v4.273h-6.465V10.026   c0-2.356,1.918-4.273,4.274-4.273h35.262c2.357,0,4.275,1.917,4.275,4.273V21.033z"/>
    <path d="M50,59.153c-1.689,0-3.063,1.374-3.063,3.063c0,1.689,1.374,3.063,3.063,3.063c1.689,0,3.063-1.375,3.063-3.063   C53.063,60.528,51.689,59.153,50,59.153z M50,64.527c-1.274,0-2.311-1.036-2.311-2.311c0-1.274,1.037-2.31,2.311-2.31   c1.274,0,2.311,1.036,2.311,2.31C52.31,63.49,51.274,64.527,50,64.527z"/>
  </g>
  <g transform="matrix(1, 0, 0, 1, 13.606556, 1.139608)">
    <g transform="matrix(0.828614, 0, 0, 0.741116, 447.60553, 58.476715)">
      <circle fill="none" cx="50" cy="62.216" r="2.31"/>
      <path fill="none" d="M66.119,40.154c0,0.208-0.168,0.376-0.376,0.376H34.936c-0.208,0-0.376-0.168-0.376-0.376v-4.273h-6.465   v37.583h15.598c0.003-0.047,0.011-0.092,0.015-0.138c0.008-0.1,0.019-0.199,0.032-0.298c0.014-0.108,0.03-0.215,0.049-0.321   c0.018-0.097,0.038-0.194,0.06-0.289c0.024-0.104,0.051-0.208,0.08-0.31c0.027-0.094,0.056-0.187,0.087-0.28   c0.034-0.1,0.07-0.198,0.108-0.295c0.036-0.091,0.073-0.181,0.113-0.27c0.043-0.095,0.088-0.188,0.135-0.28   c0.044-0.086,0.089-0.172,0.136-0.256c0.051-0.09,0.106-0.178,0.161-0.265c0.052-0.081,0.104-0.162,0.159-0.241   c0.059-0.084,0.122-0.166,0.185-0.248c0.059-0.076,0.117-0.151,0.179-0.224c0.067-0.079,0.137-0.154,0.208-0.229   c0.065-0.07,0.13-0.14,0.199-0.206c0.074-0.072,0.152-0.141,0.23-0.209c0.071-0.063,0.141-0.126,0.215-0.185   c0.082-0.066,0.167-0.127,0.253-0.189c0.076-0.055,0.15-0.111,0.229-0.163c0.089-0.059,0.181-0.112,0.273-0.166   c0.08-0.047,0.159-0.097,0.241-0.141c0.096-0.051,0.196-0.096,0.294-0.142c0.083-0.039,0.164-0.08,0.249-0.115   c0.105-0.043,0.213-0.079,0.32-0.117c0.084-0.03,0.166-0.062,0.251-0.088c0.115-0.035,0.233-0.062,0.35-0.09   c0.082-0.02,0.162-0.044,0.245-0.061c0.131-0.026,0.266-0.043,0.4-0.061c0.072-0.01,0.143-0.024,0.216-0.032   c0.208-0.021,0.419-0.032,0.633-0.032s0.425,0.011,0.633,0.032c0.073,0.007,0.145,0.022,0.217,0.032   c0.134,0.018,0.268,0.035,0.399,0.061c0.084,0.017,0.164,0.041,0.247,0.061c0.117,0.029,0.234,0.055,0.348,0.09   c0.086,0.026,0.169,0.06,0.254,0.089c0.106,0.038,0.213,0.073,0.317,0.116c0.086,0.036,0.168,0.077,0.252,0.117   c0.098,0.046,0.197,0.09,0.292,0.141c0.083,0.044,0.162,0.093,0.242,0.141c0.092,0.054,0.184,0.107,0.273,0.166   c0.079,0.052,0.154,0.109,0.23,0.164c0.085,0.062,0.17,0.122,0.251,0.188c0.075,0.06,0.146,0.124,0.217,0.188   c0.077,0.068,0.154,0.136,0.228,0.208c0.069,0.067,0.134,0.137,0.2,0.207c0.07,0.075,0.14,0.15,0.207,0.228   c0.063,0.073,0.121,0.149,0.181,0.225c0.063,0.081,0.125,0.162,0.184,0.246c0.055,0.079,0.107,0.16,0.159,0.241   c0.056,0.087,0.11,0.175,0.161,0.265c0.048,0.084,0.092,0.169,0.136,0.255c0.047,0.093,0.093,0.186,0.136,0.282   c0.04,0.088,0.076,0.178,0.112,0.268c0.039,0.098,0.075,0.196,0.109,0.296c0.031,0.092,0.06,0.185,0.087,0.279   c0.029,0.103,0.056,0.206,0.08,0.31c0.022,0.095,0.042,0.191,0.06,0.288c0.02,0.107,0.036,0.215,0.049,0.323   c0.013,0.098,0.024,0.196,0.032,0.296c0.004,0.047,0.012,0.092,0.015,0.139h15.598V35.881h-5.786V40.154z M50,65.28   c-1.689,0-3.063-1.375-3.063-3.063c0-1.688,1.374-3.063,3.063-3.063c1.689,0,3.063,1.374,3.063,3.063   C53.063,63.905,51.689,65.28,50,65.28z"/>
      <circle fill="none" cx="50" cy="73.841" r="5.566"/>
      <path fill="none" d="M56.292,74.357c-0.008,0.099-0.019,0.197-0.032,0.295c-0.014,0.109-0.03,0.217-0.05,0.324   c-0.018,0.096-0.038,0.192-0.06,0.286c-0.024,0.105-0.051,0.209-0.081,0.313c-0.027,0.093-0.055,0.185-0.086,0.277   c-0.034,0.101-0.071,0.2-0.11,0.299c-0.035,0.089-0.072,0.178-0.111,0.265c-0.043,0.096-0.09,0.191-0.137,0.285   c-0.043,0.085-0.087,0.169-0.134,0.251c-0.052,0.091-0.107,0.18-0.164,0.269c-0.051,0.08-0.102,0.16-0.157,0.237   c-0.06,0.086-0.123,0.168-0.187,0.25c-0.058,0.075-0.116,0.149-0.177,0.221c-0.068,0.08-0.139,0.156-0.211,0.232   c-0.064,0.068-0.128,0.137-0.195,0.203c-0.075,0.073-0.154,0.143-0.234,0.212c-0.07,0.062-0.139,0.124-0.212,0.183   c-0.083,0.067-0.169,0.129-0.255,0.191c-0.075,0.054-0.148,0.11-0.226,0.161c-0.09,0.06-0.184,0.114-0.278,0.169   c-0.079,0.046-0.156,0.095-0.237,0.138c-0.097,0.052-0.198,0.097-0.299,0.144c-0.082,0.038-0.162,0.079-0.246,0.114   c-0.105,0.044-0.214,0.08-0.322,0.118c-0.083,0.029-0.164,0.062-0.249,0.088c-0.116,0.036-0.236,0.063-0.355,0.092   c-0.08,0.02-0.158,0.043-0.239,0.059c-0.132,0.027-0.268,0.044-0.403,0.062c-0.071,0.01-0.141,0.024-0.213,0.031   c-0.208,0.021-0.419,0.032-0.633,0.032s-0.425-0.011-0.633-0.032c-0.072-0.007-0.141-0.022-0.212-0.031   c-0.136-0.018-0.272-0.035-0.405-0.062c-0.08-0.016-0.158-0.04-0.237-0.059c-0.12-0.029-0.241-0.056-0.358-0.092   c-0.083-0.026-0.164-0.058-0.246-0.087c-0.109-0.039-0.219-0.075-0.325-0.119c-0.083-0.034-0.162-0.075-0.243-0.113   c-0.101-0.047-0.203-0.093-0.301-0.145c-0.081-0.043-0.158-0.091-0.236-0.138c-0.094-0.055-0.188-0.109-0.278-0.169   c-0.077-0.051-0.15-0.106-0.225-0.16c-0.087-0.063-0.174-0.125-0.257-0.192c-0.072-0.058-0.14-0.12-0.21-0.181   c-0.08-0.07-0.159-0.14-0.236-0.214c-0.067-0.065-0.13-0.134-0.194-0.202c-0.072-0.077-0.144-0.153-0.212-0.233   c-0.061-0.072-0.118-0.146-0.176-0.22c-0.065-0.083-0.128-0.166-0.189-0.252c-0.054-0.078-0.105-0.157-0.156-0.237   c-0.056-0.088-0.111-0.177-0.163-0.269c-0.047-0.083-0.091-0.167-0.135-0.252c-0.048-0.093-0.094-0.187-0.137-0.283   c-0.039-0.088-0.076-0.177-0.112-0.267c-0.039-0.098-0.075-0.197-0.109-0.298c-0.031-0.092-0.059-0.184-0.086-0.277   c-0.029-0.103-0.056-0.207-0.081-0.312c-0.022-0.095-0.042-0.191-0.06-0.288c-0.019-0.106-0.035-0.214-0.049-0.322   c-0.013-0.099-0.024-0.198-0.032-0.298c-0.004-0.046-0.012-0.091-0.015-0.138H28.095v15.756c0,2.357,1.918,4.274,4.274,4.274   h35.262c2.357,0,4.275-1.917,4.275-4.274V74.217H56.307C56.304,74.264,56.296,74.31,56.292,74.357z"/>
      <path fill="none" d="M66.119,26.059c0,0.208-0.168,0.376-0.376,0.376H34.936c-0.208,0-0.376-0.168-0.376-0.376v-4.274h-6.465   v13.343h6.465v-4.274c0-0.208,0.168-0.376,0.376-0.376h30.807c0.208,0,0.376,0.168,0.376,0.376v4.274h5.786V21.785h-5.786V26.059z"/>
      <path fill="none" d="M67.631,5.753H32.369c-2.357,0-4.274,1.917-4.274,4.273v11.007h6.465v-4.273c0-0.208,0.168-0.376,0.376-0.376   h30.807c0.208,0,0.376,0.168,0.376,0.376v4.273h5.786V10.026C71.905,7.67,69.988,5.753,67.631,5.753z"/>
      <polygon fill="none" points="65.366,17.135 35.312,17.135 35.312,21.409 35.312,25.683 65.366,25.683 65.366,21.409  "/>
      <polygon fill="none" points="65.366,31.231 35.312,31.231 35.312,35.505 35.312,39.778 65.366,39.778 65.366,35.505  "/>
      <path d="M67.631,5H32.369c-2.772,0-5.027,2.255-5.027,5.026v11.383v14.096v38.336v16.133c0,2.772,2.255,5.026,5.027,5.026h35.262   c2.772,0,5.027-2.255,5.027-5.026V73.841V35.505V21.409V10.026C72.658,7.254,70.403,5,67.631,5z M71.905,89.974   c0,2.357-1.918,4.274-4.275,4.274H32.369c-2.357,0-4.274-1.917-4.274-4.274V74.217h15.598c0.003,0.047,0.011,0.092,0.015,0.138   c0.008,0.1,0.019,0.199,0.032,0.298c0.014,0.108,0.03,0.216,0.049,0.322c0.018,0.097,0.038,0.192,0.06,0.288   c0.024,0.105,0.051,0.209,0.081,0.312c0.027,0.093,0.055,0.186,0.086,0.277c0.034,0.1,0.07,0.199,0.109,0.298   c0.036,0.09,0.072,0.179,0.112,0.267c0.043,0.096,0.089,0.19,0.137,0.283c0.043,0.085,0.088,0.17,0.135,0.252   c0.052,0.091,0.107,0.18,0.163,0.269c0.051,0.08,0.102,0.159,0.156,0.237c0.06,0.086,0.124,0.169,0.189,0.252   c0.058,0.074,0.115,0.148,0.176,0.22c0.068,0.08,0.14,0.157,0.212,0.233c0.064,0.068,0.127,0.136,0.194,0.202   c0.076,0.074,0.156,0.144,0.236,0.214c0.069,0.061,0.138,0.123,0.21,0.181c0.083,0.067,0.17,0.129,0.257,0.192   c0.075,0.054,0.148,0.11,0.225,0.16c0.09,0.06,0.184,0.114,0.278,0.169c0.078,0.046,0.156,0.095,0.236,0.138   c0.098,0.052,0.2,0.098,0.301,0.145c0.081,0.038,0.16,0.078,0.243,0.113c0.106,0.044,0.216,0.081,0.325,0.119   c0.082,0.029,0.162,0.061,0.246,0.087c0.117,0.036,0.238,0.063,0.358,0.092c0.079,0.019,0.157,0.043,0.237,0.059   c0.133,0.027,0.269,0.044,0.405,0.062c0.071,0.01,0.14,0.024,0.212,0.031c0.208,0.021,0.419,0.032,0.633,0.032   s0.425-0.011,0.633-0.032c0.072-0.007,0.142-0.022,0.213-0.031c0.135-0.018,0.271-0.035,0.403-0.062   c0.081-0.016,0.159-0.04,0.239-0.059c0.119-0.029,0.239-0.056,0.355-0.092c0.085-0.026,0.166-0.058,0.249-0.088   c0.108-0.038,0.217-0.074,0.322-0.118c0.084-0.035,0.164-0.076,0.246-0.114c0.1-0.047,0.201-0.092,0.299-0.144   c0.081-0.043,0.158-0.091,0.237-0.138c0.093-0.055,0.187-0.109,0.278-0.169c0.077-0.051,0.151-0.107,0.226-0.161   c0.086-0.063,0.173-0.125,0.255-0.191c0.073-0.059,0.142-0.121,0.212-0.183c0.079-0.07,0.158-0.139,0.234-0.212   c0.067-0.066,0.131-0.134,0.195-0.203c0.072-0.076,0.143-0.152,0.211-0.232c0.061-0.072,0.119-0.147,0.177-0.221   c0.064-0.082,0.127-0.165,0.187-0.25c0.054-0.078,0.106-0.157,0.157-0.237c0.056-0.089,0.112-0.177,0.164-0.269   c0.047-0.083,0.091-0.167,0.134-0.251c0.048-0.094,0.094-0.188,0.137-0.285c0.039-0.087,0.076-0.176,0.111-0.265   c0.039-0.099,0.076-0.198,0.11-0.299c0.031-0.091,0.059-0.183,0.086-0.277c0.03-0.103,0.056-0.207,0.081-0.313   c0.022-0.095,0.042-0.19,0.06-0.286c0.02-0.107,0.036-0.215,0.05-0.324c0.013-0.098,0.024-0.196,0.032-0.295   c0.004-0.047,0.012-0.092,0.015-0.139h15.598V89.974z M44.434,73.841c0-3.07,2.497-5.567,5.565-5.567   c3.069,0,5.566,2.497,5.566,5.567c0,3.068-2.497,5.565-5.566,5.565C46.931,79.406,44.434,76.909,44.434,73.841z M71.905,73.465   H56.307c-0.003-0.047-0.011-0.092-0.015-0.139c-0.008-0.099-0.019-0.198-0.032-0.296c-0.014-0.109-0.03-0.216-0.049-0.323   c-0.018-0.097-0.038-0.193-0.06-0.288c-0.024-0.104-0.051-0.208-0.08-0.31c-0.027-0.094-0.056-0.187-0.087-0.279   c-0.034-0.1-0.07-0.199-0.109-0.296c-0.036-0.09-0.072-0.18-0.112-0.268c-0.043-0.095-0.089-0.189-0.136-0.282   c-0.044-0.086-0.088-0.171-0.136-0.255c-0.051-0.09-0.106-0.178-0.161-0.265c-0.052-0.082-0.104-0.162-0.159-0.241   c-0.059-0.084-0.121-0.165-0.184-0.246c-0.059-0.076-0.118-0.152-0.181-0.225c-0.067-0.078-0.137-0.153-0.207-0.228   c-0.066-0.07-0.131-0.14-0.2-0.207c-0.074-0.072-0.151-0.139-0.228-0.208c-0.072-0.063-0.143-0.127-0.217-0.188   c-0.081-0.065-0.166-0.126-0.251-0.188c-0.076-0.055-0.151-0.112-0.23-0.164c-0.089-0.059-0.181-0.112-0.273-0.166   c-0.08-0.047-0.159-0.097-0.242-0.141c-0.095-0.051-0.194-0.095-0.292-0.141c-0.084-0.039-0.166-0.081-0.252-0.117   c-0.104-0.043-0.211-0.079-0.317-0.116c-0.085-0.03-0.168-0.063-0.254-0.089c-0.114-0.035-0.231-0.061-0.348-0.09   c-0.082-0.02-0.163-0.044-0.247-0.061c-0.131-0.026-0.265-0.043-0.399-0.061c-0.073-0.01-0.144-0.025-0.217-0.032   c-0.208-0.021-0.419-0.032-0.633-0.032s-0.425,0.011-0.633,0.032c-0.073,0.007-0.144,0.022-0.216,0.032   c-0.134,0.018-0.269,0.035-0.4,0.061c-0.083,0.017-0.163,0.041-0.245,0.061c-0.117,0.029-0.236,0.055-0.35,0.09   c-0.085,0.026-0.167,0.059-0.251,0.088c-0.107,0.038-0.216,0.074-0.32,0.117c-0.085,0.035-0.166,0.077-0.249,0.115   c-0.099,0.046-0.198,0.091-0.294,0.142c-0.082,0.044-0.161,0.093-0.241,0.141c-0.092,0.054-0.184,0.107-0.273,0.166   c-0.078,0.052-0.153,0.108-0.229,0.163c-0.085,0.062-0.171,0.123-0.253,0.189c-0.074,0.059-0.144,0.123-0.215,0.185   c-0.078,0.069-0.156,0.137-0.23,0.209c-0.068,0.067-0.133,0.137-0.199,0.206c-0.071,0.075-0.141,0.15-0.208,0.229   c-0.062,0.073-0.12,0.148-0.179,0.224c-0.063,0.081-0.126,0.163-0.185,0.248c-0.055,0.079-0.107,0.16-0.159,0.241   c-0.055,0.087-0.11,0.175-0.161,0.265c-0.048,0.084-0.092,0.169-0.136,0.256c-0.047,0.092-0.093,0.185-0.135,0.28   c-0.04,0.089-0.077,0.179-0.113,0.27c-0.038,0.097-0.075,0.196-0.108,0.295c-0.031,0.092-0.06,0.186-0.087,0.28   c-0.029,0.102-0.056,0.206-0.08,0.31c-0.022,0.096-0.042,0.192-0.06,0.289c-0.019,0.106-0.035,0.213-0.049,0.321   c-0.013,0.099-0.024,0.198-0.032,0.298c-0.004,0.046-0.012,0.091-0.015,0.138H28.095V35.881h6.465v4.273   c0,0.208,0.168,0.376,0.376,0.376h30.807c0.208,0,0.376-0.168,0.376-0.376v-4.273h5.786V73.465z M35.312,39.778v-4.273v-4.274   h30.054v4.274v4.273H35.312z M71.905,35.129h-5.786v-4.274c0-0.208-0.168-0.376-0.376-0.376H34.936   c-0.208,0-0.376,0.168-0.376,0.376v4.274h-6.465V21.785h6.465v4.274c0,0.208,0.168,0.376,0.376,0.376h30.807   c0.208,0,0.376-0.168,0.376-0.376v-4.274h5.786V35.129z M35.312,25.683v-4.274v-4.273h30.054v4.273v4.274H35.312z M71.905,21.033   h-5.786v-4.273c0-0.208-0.168-0.376-0.376-0.376H34.936c-0.208,0-0.376,0.168-0.376,0.376v4.273h-6.465V10.026   c0-2.356,1.918-4.273,4.274-4.273h35.262c2.357,0,4.275,1.917,4.275,4.273V21.033z"/>
      <path d="M50,59.153c-1.689,0-3.063,1.374-3.063,3.063c0,1.689,1.374,3.063,3.063,3.063c1.689,0,3.063-1.375,3.063-3.063   C53.063,60.528,51.689,59.153,50,59.153z M50,64.527c-1.274,0-2.311-1.036-2.311-2.311c0-1.274,1.037-2.31,2.311-2.31   c1.274,0,2.311,1.036,2.311,2.31C52.31,63.49,51.274,64.527,50,64.527z"/>
    </g>
  </g>
  <g transform="matrix(1.285668, 0, 0, 1.466667, 430.888428, 73.628967)">
    <path d="M0.001,18.5c0,2.481,6.28,4.5,14,4.5c7.713,0,13.988-2.016,13.999-4.494v-0.011c-0.001-0.168,0-3.583,0-3.583   C25.123,17.021,19.549,18,14.001,18C8.452,18,2.876,17.021,0,14.91C0,14.91,0.001,18.331,0.001,18.5z"/>
    <path d="M28,21.912C25.123,24.021,19.549,25,14.001,25C8.452,25,2.876,24.021,0,21.91V26l0,0c0.775,2.25,6.795,4,14.001,4   s13.225-1.75,14-4l0,0L28,21.912z"/>
    <path d="M0.001,11.5c0,2.481,6.28,4.5,14,4.5c7.713,0,13.988-2.016,13.999-4.494v-0.011c-0.001-0.168,0-3.583,0-3.583   C25.123,10.021,19.549,11,14.001,11C8.452,11,2.876,10.021,0,7.91C0,7.91,0.001,11.331,0.001,11.5z"/>
    <ellipse cx="14.001" cy="4.5" rx="14" ry="4.5"/>
  </g>
  <path d="M -94.316 92.081 Z" style="stroke: black; fill: none; stroke-width: 2;"/>
  <path d="M 293.147 352.691 Z" style="stroke: black; fill: none;"/>
  <path d="M 375.99 197.361 L 334.569 174.924" style="fill: none; stroke: black; stroke-width: 2;"/>
  <path d="M 412.371 201.279 L 483.996 201.279" style="fill: none; stroke: black; stroke-width: 2;"/>
  <g>
    <path d="M 430 161.47 L 430 192.53 C 430 196.777 439.055 199 448 199 C 456.945 199 466 196.777 466 192.53 L 466 161.47 C 466 157.223 456.945 155 448 155 C 439.055 155 430 157.223 430 161.47 Z M 463.429 182.177 C 463.429 183.546 457.571 186.059 448 186.059 C 438.429 186.059 432.571 183.546 432.571 182.177 L 432.571 175.322 C 435.894 177.282 441.97 178.294 448 178.294 C 454.03 178.294 460.106 177.283 463.429 175.322 L 463.429 182.177 Z M 463.429 171.823 C 463.429 173.193 457.571 175.705 448 175.705 C 438.429 175.705 432.571 173.193 432.571 171.823 L 432.571 164.969 C 435.894 166.928 441.97 167.941 448 167.941 C 454.03 167.941 460.106 166.929 463.429 164.969 L 463.429 171.823 Z M 448 196.412 C 438.429 196.412 432.571 193.898 432.571 192.53 L 432.571 185.676 C 435.894 187.635 441.97 188.647 448 188.647 C 454.03 188.647 460.106 187.636 463.429 185.676 L 463.429 192.53 C 463.429 193.898 457.571 196.412 448 196.412 Z M 448 157.588 C 457.571 157.588 463.429 160.101 463.429 161.47 C 463.429 162.839 457.571 165.352 448 165.352 C 438.429 165.352 432.571 162.839 432.571 161.47 C 432.571 160.101 438.429 157.588 448 157.588 Z"/>
  </g>
  <path d="M 412.229 119.832 L 483.854 119.832" style="fill: none; stroke: black; stroke-width: 2;"/>
  <path d="M 393.249 130.05 L 393.249 147.309" style="fill: none; stroke: black; stroke-width: 2;"/>
  <path d="M 120.213 41.061 C 158.069 41.061 285.99 110.664 315.035 123.923" style="fill: none; stroke: url(#pattern-1);"/>
  <path d="M 121.485 92.502 C 156.323 92.502 274.044 122.963 300.774 128.766" style="fill: none; stroke: url(#pattern-2);"/>
  <path d="M 124.505 98.111 C 159.343 98.111 277.064 128.572 303.794 134.375" style="fill: none; stroke: url(#pattern-3);"/>
  <path d="M 115.013 207.706 C 151.36 207.706 274.181 151.909 302.068 141.279" style="fill: none; stroke: url(#pattern-4);"/>
  <text x="145.977" y="25.634" style="font-size: 36px; font-family: Roboto; white-space: pre;" transform="matrix(0.183092, 0, 0, 0.3008, 95.080421, 56.778511)">Stop Updates</text>
  <text x="159.784" y="255.178" style="font-size: 36px; font-family: Roboto; white-space: pre;" transform="matrix(0.203698, 0, 0, 0.260056, 93.579239, 156.362396)">Location Updates</text>
  <text x="170.139" y="310.406" style="font-size: 36px; font-family: Roboto; white-space: pre;" transform="matrix(0.234128, 0, 0, 0.237242, 69.024757, 57.764046)">Failure Recovery Updates</text>
  <text x="151.154" y="370.813" style="font-size: 36px; font-family: Roboto; white-space: pre;" transform="matrix(0.350413, 0, 0, 0.260709, 385.129242, -26.590185)">SQL</text>
  <text x="142.525" y="350.102" style="font-size: 36px; font-family: Roboto; white-space: pre;" transform="matrix(0.20146, 0, 0, 0.342272, 407.480377, 30.557924)">NoSQL</text>
  <text x="151.154" y="341.472" style="font-size: 36px; font-family: Roboto; white-space: pre;" transform="matrix(0.248919, 0, 0, 0.404978, 339.433289, 91.853928)">Primary</text>
  <text x="152.88" y="401.879" style="font-size: 36px; font-family: Roboto; white-space: pre;" transform="matrix(0.199512, 0, 0, 0.424488, 346.192505, -109.068169)">Secondary</text>
  <path d="M 347.906 347.513 Z" style="fill: none; stroke: url(#gradient-1);"/>
  <path d="M 397.094 427.767 Z" style="stroke: black; fill: none;"/>
  <path d="M 447.145 416.549 Z" style="stroke: black; fill: none;"/>
  <rect x="529.484" y="150.861" width="24.294" height="51.445" style="fill: rgba(216, 216, 216, 0); stroke: rgb(0, 0, 0);"/>
  <g transform="matrix(0.555175, 0, 0, 0.372762, 394.994202, 151.784256)">
    <text x="233.196" y="16.055" style="font-size: 36px; font-family: Roboto; white-space: pre;" transform="matrix(1, 0, 0, 1.090529, 17.624842, 27.721292)">A</text>
    <text x="298.932" y="71.311" style="font-size: 36; font-family: Roboto; white-space: pre;" transform="matrix(0.999999, 0, 0, 1, -47.539883, 4.763466)">P</text>
    <text x="256.213" y="107.037" style="font-size: 36; font-family: Roboto; white-space: pre;">I</text>
  </g>
  <path d="M 521.3863525390625 177.06044006347656 C 524.56201171875 177.06044006347656 529.0078735351562 177.06044006347656 529.0078735351562 177.06044006347656" style="stroke: black; fill: none;"/>
  <path d="M 538.535 259.945 Z" style="stroke: black; fill: none;"/>
  <path d="M 544.727 102.274 Z" style="stroke: black; fill: none;"/>
  <text style="font-size: 36px; font-family: Roboto; white-space: pre;" x="227.528" y="61.15" transform="matrix(0.229721, 0, 0, 0.278166, 435.859711, 42.453037)">Backup</text>
</svg>