<?xml version="1.0" encoding="utf-8"?>
<svg viewBox="0 0 575 276" xmlns="http://www.w3.org/2000/svg" xmlns:xlink="http://www.w3.org/1999/xlink">
  <defs>
    <style id="bx-google-fonts">@import url(https://fonts.googleapis.com/css?family=Roboto:100,100italic,300,300italic,400,400italic,500,500italic,700,700italic,900,900italic);</style>
    <pattern id="pattern-0" x="0" y="0" width="20" height="20" patternUnits="userSpaceOnUse" viewBox="0 0 100 100">
      <path d="M 0 0 L 50 0 L 50 100 L 0 100 Z" style="fill: black;"/>
    </pattern>
    <pattern id="pattern-4" patternTransform="matrix(0.219875, 0, 0, -0.008225, 140.984406, 93.68338)" xlink:href="#pattern-0"/>
    <linearGradient id="gradient-1" gradientUnits="userSpaceOnUse" x1="347.906" y1="347.513" x2="347.906" y2="347.513">
      <stop offset="0" style="stop-color: rgba(0, 0, 0, 1)"/>
      <stop offset="1" style="stop-color: rgba(0, 0, 0, 1)"/>
    </linearGradient>
    <pattern id="pattern-0-1" patternTransform="matrix(1, 0, 0, 1, 227.017502, 349.594513)" xlink:href="#pattern-0"/>
    <pattern id="pattern-5" viewBox="0 0 100 100" patternUnits="userSpaceOnUse" preserveAspectRatio="none" width="100" height="100">
      <g>
        <rect x="-0.051" y="0.467" width="5.868" height="99.411" style="fill: rgb(1, 0, 0);"/>
        <rect x="8.751" y="0.467" width="18.122" height="99.756"/>
      </g>
      <g transform="matrix(1, 0, 0, 1, 39.695602, -0.17242)">
        <rect x="-0.051" y="0.467" width="5.868" height="99.411" style="fill: rgb(1, 0, 0);"/>
        <rect x="8.751" y="0.467" width="18.122" height="99.756"/>
      </g>
      <g transform="matrix(1, 0, 0, 1, 77.492607, -0.517597)">
        <rect x="-0.051" y="0.467" width="5.868" height="99.411" style="fill: rgb(1, 0, 0);"/>
        <rect x="8.751" y="0.467" width="18.122" height="99.756"/>
      </g>
    </pattern>
    <symbol id="symbol-0" viewBox="0 0 188.985 20.711">
      <path d="M 142.525 349.239 C 229.322 360.524 259.328 369.95 285.774 369.95 C 300.732 369.95 312.238 369.95 323.744 369.95 C 326.055 369.95 331.51 365.635 331.51 365.635" style="fill: none; stroke: url(#pattern-0-1);" transform="matrix(0.9999999999999999, 0, 0, 0.9999999999999999, -142.52500915527344, -349.239013671875)"/>
    </symbol>
    <symbol id="symbol-1" viewBox="0 0 100 100"/>
    <pattern id="pattern-0-0" patternTransform="matrix(1, 0, 0, 1, 281.311005, 155.151993)" xlink:href="#pattern-0"/>
  </defs>
  <g transform="matrix(1, 0, 0, 1, -50.720074, -13.086814)">
    <g transform="matrix(1, 0, 0, 1, 68.813759, 50.665073)">
      <path d="M 76.849 19.098 C 74.861 19.098 73.248 20.71 73.248 22.699 C 73.248 24.688 74.86 26.3 76.849 26.3 C 78.838 26.3 80.45 24.688 80.45 22.699 C 80.45 20.71 78.838 19.098 76.849 19.098 Z M 76.849 24.784 C 75.697 24.784 74.763 23.85 74.763 22.698 C 74.763 21.546 75.697 20.612 76.849 20.612 C 78.001 20.612 78.935 21.546 78.935 22.698 C 78.935 23.85 78.001 24.784 76.849 24.784 Z"/>
      <path d="M 17.502 19.098 C 15.514 19.098 13.901 20.71 13.901 22.699 C 13.901 24.688 15.513 26.3 17.502 26.3 C 19.491 26.3 21.103 24.688 21.103 22.699 C 21.103 20.71 19.49 19.098 17.502 19.098 Z M 17.502 24.784 C 16.35 24.784 15.416 23.85 15.416 22.698 C 15.416 21.546 16.35 20.612 17.502 20.612 C 18.654 20.612 19.588 21.546 19.588 22.698 C 19.588 23.85 18.654 24.784 17.502 24.784 Z"/>
      <circle cx="17.502" cy="22.624" r="0.72"/>
      <circle cx="76.849" cy="22.624" r="0.72"/>
      <rect x="18.905" width="26.163" height="3.874"/>
      <polygon points="17.502 0 14.175 2.93 14.175 3.874 18.458 3.874 18.458 0"/>
      <rect x="45.515" width="26.163" height="3.874"/>
      <polygon points="73.081 0 76.408 2.93 76.408 3.874 72.125 3.874 72.125 0"/>
      <path d="M 100 21.316 L 98.848 20.348 L 97.07 4.271 L 2.104 4.271 L 2.104 7.748 L 3.57 7.748 C 3.57 7.748 2.204 10.207 1.955 12.516 L 1.198 21.845 L 0.149 21.904 L 0 24.138 L 13.113 24.138 C 12.964 23.685 12.883 23.201 12.883 22.699 C 12.883 20.147 14.951 18.08 17.502 18.08 C 20.053 18.08 22.121 20.147 22.121 22.699 C 22.121 23.202 22.039 23.685 21.891 24.138 L 72.459 24.138 C 72.311 23.685 72.23 23.201 72.23 22.699 C 72.23 20.147 74.298 18.08 76.849 18.08 C 79.4 18.08 81.468 20.147 81.468 22.699 C 81.468 23.202 81.386 23.685 81.238 24.138 L 86.541 24.138 L 98.781 22.768 L 100 22.768 L 100 21.316 Z M 12.386 15.05 C 12.386 15.954 11.653 16.689 10.747 16.689 L 5.532 16.689 C 4.627 16.689 3.892 15.955 3.892 15.05 L 3.892 10.033 C 3.892 9.128 4.626 8.394 5.532 8.394 L 10.747 8.394 C 11.652 8.394 12.386 9.128 12.386 10.033 L 12.386 15.05 Z M 80.282 8.394 L 87.633 8.394 C 88.505 8.394 89.216 9.075 89.268 9.934 L 78.648 9.934 C 78.7 9.075 79.411 8.394 80.282 8.394 Z M 67.366 8.394 L 74.717 8.394 C 75.589 8.394 76.3 9.075 76.351 9.934 L 65.732 9.934 C 65.784 9.075 66.494 8.394 67.366 8.394 Z M 54.288 8.394 L 61.963 8.394 C 62.834 8.394 63.545 9.075 63.597 9.934 L 52.654 9.934 C 52.706 9.075 53.417 8.394 54.288 8.394 Z M 41.372 8.394 L 49.046 8.394 C 49.918 8.394 50.629 9.075 50.681 9.934 L 39.738 9.934 C 39.79 9.075 40.501 8.394 41.372 8.394 Z M 28.456 8.394 L 36.13 8.394 C 37.002 8.394 37.713 9.075 37.765 9.934 L 26.822 9.934 C 26.874 9.075 27.585 8.394 28.456 8.394 Z M 15.54 8.394 L 23.214 8.394 C 24.086 8.394 24.796 9.075 24.848 9.934 L 13.906 9.934 C 13.958 9.075 14.668 8.394 15.54 8.394 Z M 23.214 16.688 L 15.54 16.688 C 14.635 16.688 13.901 15.954 13.901 15.049 L 13.901 10.528 L 24.852 10.528 L 24.852 15.049 C 24.853 15.954 24.119 16.688 23.214 16.688 Z M 36.13 16.688 L 28.456 16.688 C 27.551 16.688 26.817 15.954 26.817 15.049 L 26.817 10.528 L 37.77 10.528 L 37.77 15.049 C 37.77 15.954 37.035 16.688 36.13 16.688 Z M 49.046 16.688 L 41.372 16.688 C 40.467 16.688 39.733 15.954 39.733 15.049 L 39.733 10.528 L 50.685 10.528 L 50.685 15.049 C 50.686 15.954 49.951 16.688 49.046 16.688 Z M 61.963 16.688 L 54.288 16.688 C 53.383 16.688 52.649 15.954 52.649 15.049 L 52.649 10.528 L 63.601 10.528 L 63.601 15.049 C 63.602 15.954 62.867 16.688 61.963 16.688 Z M 74.717 15.198 L 67.366 15.198 C 66.461 15.198 65.726 14.465 65.726 13.559 L 65.726 10.529 L 76.356 10.529 L 76.356 13.559 C 76.356 14.465 75.622 15.198 74.717 15.198 Z M 87.633 15.198 L 80.282 15.198 C 79.377 15.198 78.643 14.465 78.643 13.559 L 78.643 10.529 L 89.272 10.529 L 89.272 13.559 C 89.272 14.465 88.538 15.198 87.633 15.198 Z"/>
    </g>
    <g transform="matrix(1, 0, 0, 1, 153.670807, -993.935242)">
      <g transform="translate(628,-140.49998)">
        <g transform="translate(-599.5,50.350676)">
          <g transform="translate(-29.5,89.649313)">
            <g transform="translate(1.5,-1.5000527)">
              <path style="color:#000000;font-style:normal;font-variant:normal;font-weight:normal;font-stretch:normal;font-size:medium;line-height:normal;font-family:sans-serif;text-indent:0;text-align:start;text-decoration:none;text-decoration-line:none;text-decoration-style:solid;text-decoration-color:#000000;letter-spacing:normal;word-spacing:normal;text-transform:none;direction:ltr;block-progression:tb;writing-mode:lr-tb;baseline-shift:baseline;text-anchor:start;white-space:normal;clip-rule:nonzero;display:inline;overflow:visible;visibility:visible;opacity:1;isolation:auto;mix-blend-mode:normal;color-interpolation:sRGB;color-interpolation-filters:linearRGB;solid-color:#000000;solid-opacity:1;fill:#000000;fill-opacity:1;fill-rule:nonzero;stroke:none;stroke-width:1;stroke-linecap:round;stroke-linejoin:round;stroke-miterlimit:4;stroke-dasharray:none;stroke-dashoffset:0;stroke-opacity:1;color-rendering:auto;image-rendering:auto;shape-rendering:auto;text-rendering:auto;enable-background:accumulate" d="M 2.1796875 0 A 0.48405063 0.51657831 0 0 0 1.8320312 0.15625 C -0.61194405 2.76445 -0.61193725 7.0089875 1.8320312 9.6171875 A 0.48445689 0.51701187 0 0 0 2.5175781 8.8867188 C 0.44353036 6.6733187 0.44353036 3.1020719 2.5175781 0.88867188 A 0.48405063 0.51657831 0 0 0 2.5273438 0.15625 A 0.48405063 0.51657831 0 0 0 2.1796875 0 z M 13.820312 0 A 0.48405063 0.51657831 0 0 0 13.472656 0.15625 A 0.48405063 0.51657831 0 0 0 13.484375 0.88671875 C 15.558416 3.1002188 15.55643 6.6733187 13.482422 8.8867188 A 0.48445693 0.51701191 0 0 0 14.167969 9.6171875 C 16.611937 7.0089875 16.611937 2.76445 14.167969 0.15625 A 0.48405063 0.51657831 0 0 0 13.820312 0 z M 3.7070312 1.2480469 A 0.48405063 0.51657831 0 0 0 3.3613281 1.4042969 C 1.5632115 3.3232969 1.5632115 6.4501406 3.3613281 8.3691406 A 0.48443864 0.51699239 0 0 0 4.0449219 7.6386719 C 2.6167294 6.1144719 2.6167261 3.6589656 4.0449219 2.1347656 A 0.48405063 0.51657831 0 0 0 4.0546875 1.4042969 A 0.48405063 0.51657831 0 0 0 3.7070312 1.2480469 z M 12.292969 1.2480469 A 0.48405063 0.51657831 0 0 0 11.945312 1.4042969 A 0.48405063 0.51657831 0 0 0 11.955078 2.1347656 C 13.383267 3.6589656 13.383234 6.1144719 11.955078 7.6386719 A 0.48443864 0.51699239 0 1 0 12.638672 8.3691406 C 14.436789 6.4501406 14.436782 3.3232969 12.638672 1.4042969 A 0.48405063 0.51657831 0 0 0 12.292969 1.2480469 z M 5.2128906 2.4941406 A 0.48405063 0.51657831 0 0 0 4.8652344 2.6523438 C 3.7130244 3.8819437 3.7130176 5.8914938 4.8652344 7.1210938 A 0.48443864 0.51699239 0 1 0 5.5507812 6.390625 C 4.7684783 5.555725 4.7684852 4.2177125 5.5507812 3.3828125 A 0.48405063 0.51657831 0 0 0 5.5605469 2.6542969 L 5.5605469 2.6523438 A 0.48405063 0.51657831 0 0 0 5.2128906 2.4941406 z M 10.787109 2.4941406 A 0.48405063 0.51657831 0 0 0 10.439453 2.6523438 L 10.439453 2.6542969 A 0.48405063 0.51657831 0 0 0 10.449219 3.3828125 C 11.231514 4.2177125 11.231521 5.555725 10.449219 6.390625 A 0.48443864 0.51699239 0 1 0 11.134766 7.1210938 C 12.286983 5.8914938 12.286976 3.8819437 11.134766 2.6523438 A 0.48405063 0.51657831 0 0 0 10.787109 2.4941406 z M 7.9980469 2.7832031 C 6.8995642 2.7832031 5.9980612 3.6847031 5.9980469 4.7832031 C 5.9980589 5.7079043 6.640674 6.4856537 7.4980469 6.7109375 L 7.4980469 13.494141 A 0.50005 0.50005 0 1 0 8.4980469 13.494141 L 8.4980469 6.7109375 C 9.3554198 6.4856537 9.9980348 5.7079043 9.9980469 4.7832031 C 9.9980326 3.6847031 9.0965296 2.7832031 7.9980469 2.7832031 z M 7.9980469 3.7832031 C 8.5560945 3.7832031 8.9980396 4.2252031 8.9980469 4.7832031 C 8.9980396 5.3413031 8.5560945 5.7832031 7.9980469 5.7832031 C 7.4399993 5.7832031 6.9980541 5.3413031 6.9980469 4.7832031 C 6.9980541 4.2252031 7.4399993 3.7832031 7.9980469 3.7832031 z M 5.5 15 A 0.5 0.5 0 0 0 5 15.5 A 0.5 0.5 0 0 0 5.5 16 A 0.5 0.5 0 0 0 6 15.5 A 0.5 0.5 0 0 0 5.5 15 z M 8 15 A 0.5 0.5 0 0 0 7.5 15.5 A 0.5 0.5 0 0 0 8 16 A 0.5 0.5 0 0 0 8.5 15.5 A 0.5 0.5 0 0 0 8 15 z M 10.5 15 A 0.5 0.5 0 0 0 10 15.5 A 0.5 0.5 0 0 0 10.5 16 A 0.5 0.5 0 0 0 11 15.5 A 0.5 0.5 0 0 0 10.5 15 z " transform="translate(-0.5,1038.3622)"/>
            </g>
          </g>
        </g>
      </g>
    </g>
  </g>
  <g transform="matrix(1, 0, 0, 1, -16.899439, 147.065994)">
    <g transform="matrix(1, 0, 0, 1, 68.813759, 50.665073)">
      <path d="M 76.849 19.098 C 74.861 19.098 73.248 20.71 73.248 22.699 C 73.248 24.688 74.86 26.3 76.849 26.3 C 78.838 26.3 80.45 24.688 80.45 22.699 C 80.45 20.71 78.838 19.098 76.849 19.098 Z M 76.849 24.784 C 75.697 24.784 74.763 23.85 74.763 22.698 C 74.763 21.546 75.697 20.612 76.849 20.612 C 78.001 20.612 78.935 21.546 78.935 22.698 C 78.935 23.85 78.001 24.784 76.849 24.784 Z"/>
      <path d="M 17.502 19.098 C 15.514 19.098 13.901 20.71 13.901 22.699 C 13.901 24.688 15.513 26.3 17.502 26.3 C 19.491 26.3 21.103 24.688 21.103 22.699 C 21.103 20.71 19.49 19.098 17.502 19.098 Z M 17.502 24.784 C 16.35 24.784 15.416 23.85 15.416 22.698 C 15.416 21.546 16.35 20.612 17.502 20.612 C 18.654 20.612 19.588 21.546 19.588 22.698 C 19.588 23.85 18.654 24.784 17.502 24.784 Z"/>
      <circle cx="17.502" cy="22.624" r="0.72"/>
      <circle cx="76.849" cy="22.624" r="0.72"/>
      <rect x="18.905" width="26.163" height="3.874"/>
      <polygon points="17.502 0 14.175 2.93 14.175 3.874 18.458 3.874 18.458 0"/>
      <rect x="45.515" width="26.163" height="3.874"/>
      <polygon points="73.081 0 76.408 2.93 76.408 3.874 72.125 3.874 72.125 0"/>
      <path d="M 100 21.316 L 98.848 20.348 L 97.07 4.271 L 2.104 4.271 L 2.104 7.748 L 3.57 7.748 C 3.57 7.748 2.204 10.207 1.955 12.516 L 1.198 21.845 L 0.149 21.904 L 0 24.138 L 13.113 24.138 C 12.964 23.685 12.883 23.201 12.883 22.699 C 12.883 20.147 14.951 18.08 17.502 18.08 C 20.053 18.08 22.121 20.147 22.121 22.699 C 22.121 23.202 22.039 23.685 21.891 24.138 L 72.459 24.138 C 72.311 23.685 72.23 23.201 72.23 22.699 C 72.23 20.147 74.298 18.08 76.849 18.08 C 79.4 18.08 81.468 20.147 81.468 22.699 C 81.468 23.202 81.386 23.685 81.238 24.138 L 86.541 24.138 L 98.781 22.768 L 100 22.768 L 100 21.316 Z M 12.386 15.05 C 12.386 15.954 11.653 16.689 10.747 16.689 L 5.532 16.689 C 4.627 16.689 3.892 15.955 3.892 15.05 L 3.892 10.033 C 3.892 9.128 4.626 8.394 5.532 8.394 L 10.747 8.394 C 11.652 8.394 12.386 9.128 12.386 10.033 L 12.386 15.05 Z M 80.282 8.394 L 87.633 8.394 C 88.505 8.394 89.216 9.075 89.268 9.934 L 78.648 9.934 C 78.7 9.075 79.411 8.394 80.282 8.394 Z M 67.366 8.394 L 74.717 8.394 C 75.589 8.394 76.3 9.075 76.351 9.934 L 65.732 9.934 C 65.784 9.075 66.494 8.394 67.366 8.394 Z M 54.288 8.394 L 61.963 8.394 C 62.834 8.394 63.545 9.075 63.597 9.934 L 52.654 9.934 C 52.706 9.075 53.417 8.394 54.288 8.394 Z M 41.372 8.394 L 49.046 8.394 C 49.918 8.394 50.629 9.075 50.681 9.934 L 39.738 9.934 C 39.79 9.075 40.501 8.394 41.372 8.394 Z M 28.456 8.394 L 36.13 8.394 C 37.002 8.394 37.713 9.075 37.765 9.934 L 26.822 9.934 C 26.874 9.075 27.585 8.394 28.456 8.394 Z M 15.54 8.394 L 23.214 8.394 C 24.086 8.394 24.796 9.075 24.848 9.934 L 13.906 9.934 C 13.958 9.075 14.668 8.394 15.54 8.394 Z M 23.214 16.688 L 15.54 16.688 C 14.635 16.688 13.901 15.954 13.901 15.049 L 13.901 10.528 L 24.852 10.528 L 24.852 15.049 C 24.853 15.954 24.119 16.688 23.214 16.688 Z M 36.13 16.688 L 28.456 16.688 C 27.551 16.688 26.817 15.954 26.817 15.049 L 26.817 10.528 L 37.77 10.528 L 37.77 15.049 C 37.77 15.954 37.035 16.688 36.13 16.688 Z M 49.046 16.688 L 41.372 16.688 C 40.467 16.688 39.733 15.954 39.733 15.049 L 39.733 10.528 L 50.685 10.528 L 50.685 15.049 C 50.686 15.954 49.951 16.688 49.046 16.688 Z M 61.963 16.688 L 54.288 16.688 C 53.383 16.688 52.649 15.954 52.649 15.049 L 52.649 10.528 L 63.601 10.528 L 63.601 15.049 C 63.602 15.954 62.867 16.688 61.963 16.688 Z M 74.717 15.198 L 67.366 15.198 C 66.461 15.198 65.726 14.465 65.726 13.559 L 65.726 10.529 L 76.356 10.529 L 76.356 13.559 C 76.356 14.465 75.622 15.198 74.717 15.198 Z M 87.633 15.198 L 80.282 15.198 C 79.377 15.198 78.643 14.465 78.643 13.559 L 78.643 10.529 L 89.272 10.529 L 89.272 13.559 C 89.272 14.465 88.538 15.198 87.633 15.198 Z"/>
    </g>
    <g transform="matrix(1, 0, 0, 1, 153.670807, -993.935242)">
      <g transform="translate(628,-140.49998)">
        <g transform="translate(-599.5,50.350676)">
          <g transform="translate(-29.5,89.649313)">
            <g transform="translate(1.5,-1.5000527)">
              <path style="color:#000000;font-style:normal;font-variant:normal;font-weight:normal;font-stretch:normal;font-size:medium;line-height:normal;font-family:sans-serif;text-indent:0;text-align:start;text-decoration:none;text-decoration-line:none;text-decoration-style:solid;text-decoration-color:#000000;letter-spacing:normal;word-spacing:normal;text-transform:none;direction:ltr;block-progression:tb;writing-mode:lr-tb;baseline-shift:baseline;text-anchor:start;white-space:normal;clip-rule:nonzero;display:inline;overflow:visible;visibility:visible;opacity:1;isolation:auto;mix-blend-mode:normal;color-interpolation:sRGB;color-interpolation-filters:linearRGB;solid-color:#000000;solid-opacity:1;fill:#000000;fill-opacity:1;fill-rule:nonzero;stroke:none;stroke-width:1;stroke-linecap:round;stroke-linejoin:round;stroke-miterlimit:4;stroke-dasharray:none;stroke-dashoffset:0;stroke-opacity:1;color-rendering:auto;image-rendering:auto;shape-rendering:auto;text-rendering:auto;enable-background:accumulate" d="M 2.1796875 0 A 0.48405063 0.51657831 0 0 0 1.8320312 0.15625 C -0.61194405 2.76445 -0.61193725 7.0089875 1.8320312 9.6171875 A 0.48445689 0.51701187 0 0 0 2.5175781 8.8867188 C 0.44353036 6.6733187 0.44353036 3.1020719 2.5175781 0.88867188 A 0.48405063 0.51657831 0 0 0 2.5273438 0.15625 A 0.48405063 0.51657831 0 0 0 2.1796875 0 z M 13.820312 0 A 0.48405063 0.51657831 0 0 0 13.472656 0.15625 A 0.48405063 0.51657831 0 0 0 13.484375 0.88671875 C 15.558416 3.1002188 15.55643 6.6733187 13.482422 8.8867188 A 0.48445693 0.51701191 0 0 0 14.167969 9.6171875 C 16.611937 7.0089875 16.611937 2.76445 14.167969 0.15625 A 0.48405063 0.51657831 0 0 0 13.820312 0 z M 3.7070312 1.2480469 A 0.48405063 0.51657831 0 0 0 3.3613281 1.4042969 C 1.5632115 3.3232969 1.5632115 6.4501406 3.3613281 8.3691406 A 0.48443864 0.51699239 0 0 0 4.0449219 7.6386719 C 2.6167294 6.1144719 2.6167261 3.6589656 4.0449219 2.1347656 A 0.48405063 0.51657831 0 0 0 4.0546875 1.4042969 A 0.48405063 0.51657831 0 0 0 3.7070312 1.2480469 z M 12.292969 1.2480469 A 0.48405063 0.51657831 0 0 0 11.945312 1.4042969 A 0.48405063 0.51657831 0 0 0 11.955078 2.1347656 C 13.383267 3.6589656 13.383234 6.1144719 11.955078 7.6386719 A 0.48443864 0.51699239 0 1 0 12.638672 8.3691406 C 14.436789 6.4501406 14.436782 3.3232969 12.638672 1.4042969 A 0.48405063 0.51657831 0 0 0 12.292969 1.2480469 z M 5.2128906 2.4941406 A 0.48405063 0.51657831 0 0 0 4.8652344 2.6523438 C 3.7130244 3.8819437 3.7130176 5.8914938 4.8652344 7.1210938 A 0.48443864 0.51699239 0 1 0 5.5507812 6.390625 C 4.7684783 5.555725 4.7684852 4.2177125 5.5507812 3.3828125 A 0.48405063 0.51657831 0 0 0 5.5605469 2.6542969 L 5.5605469 2.6523438 A 0.48405063 0.51657831 0 0 0 5.2128906 2.4941406 z M 10.787109 2.4941406 A 0.48405063 0.51657831 0 0 0 10.439453 2.6523438 L 10.439453 2.6542969 A 0.48405063 0.51657831 0 0 0 10.449219 3.3828125 C 11.231514 4.2177125 11.231521 5.555725 10.449219 6.390625 A 0.48443864 0.51699239 0 1 0 11.134766 7.1210938 C 12.286983 5.8914938 12.286976 3.8819437 11.134766 2.6523438 A 0.48405063 0.51657831 0 0 0 10.787109 2.4941406 z M 7.9980469 2.7832031 C 6.8995642 2.7832031 5.9980612 3.6847031 5.9980469 4.7832031 C 5.9980589 5.7079043 6.640674 6.4856537 7.4980469 6.7109375 L 7.4980469 13.494141 A 0.50005 0.50005 0 1 0 8.4980469 13.494141 L 8.4980469 6.7109375 C 9.3554198 6.4856537 9.9980348 5.7079043 9.9980469 4.7832031 C 9.9980326 3.6847031 9.0965296 2.7832031 7.9980469 2.7832031 z M 7.9980469 3.7832031 C 8.5560945 3.7832031 8.9980396 4.2252031 8.9980469 4.7832031 C 8.9980396 5.3413031 8.5560945 5.7832031 7.9980469 5.7832031 C 7.4399993 5.7832031 6.9980541 5.3413031 6.9980469 4.7832031 C 6.9980541 4.2252031 7.4399993 3.7832031 7.9980469 3.7832031 z M 5.5 15 A 0.5 0.5 0 0 0 5 15.5 A 0.5 0.5 0 0 0 5.5 16 A 0.5 0.5 0 0 0 6 15.5 A 0.5 0.5 0 0 0 5.5 15 z M 8 15 A 0.5 0.5 0 0 0 7.5 15.5 A 0.5 0.5 0 0 0 8 16 A 0.5 0.5 0 0 0 8.5 15.5 A 0.5 0.5 0 0 0 8 15 z M 10.5 15 A 0.5 0.5 0 0 0 10 15.5 A 0.5 0.5 0 0 0 10.5 16 A 0.5 0.5 0 0 0 11 15.5 A 0.5 0.5 0 0 0 10.5 15 z " transform="translate(-0.5,1038.3622)"/>
            </g>
          </g>
        </g>
      </g>
    </g>
  </g>
  <g transform="matrix(1, 0, 0, 1, 222.17038, 128.723541)">
    <g transform="matrix(1, 0, 0, 1, 68.813759, 50.665073)">
      <path d="M 76.849 19.098 C 74.861 19.098 73.248 20.71 73.248 22.699 C 73.248 24.688 74.86 26.3 76.849 26.3 C 78.838 26.3 80.45 24.688 80.45 22.699 C 80.45 20.71 78.838 19.098 76.849 19.098 Z M 76.849 24.784 C 75.697 24.784 74.763 23.85 74.763 22.698 C 74.763 21.546 75.697 20.612 76.849 20.612 C 78.001 20.612 78.935 21.546 78.935 22.698 C 78.935 23.85 78.001 24.784 76.849 24.784 Z"/>
      <path d="M 17.502 19.098 C 15.514 19.098 13.901 20.71 13.901 22.699 C 13.901 24.688 15.513 26.3 17.502 26.3 C 19.491 26.3 21.103 24.688 21.103 22.699 C 21.103 20.71 19.49 19.098 17.502 19.098 Z M 17.502 24.784 C 16.35 24.784 15.416 23.85 15.416 22.698 C 15.416 21.546 16.35 20.612 17.502 20.612 C 18.654 20.612 19.588 21.546 19.588 22.698 C 19.588 23.85 18.654 24.784 17.502 24.784 Z"/>
      <circle cx="17.502" cy="22.624" r="0.72"/>
      <circle cx="76.849" cy="22.624" r="0.72"/>
      <rect x="18.905" width="26.163" height="3.874"/>
      <polygon points="17.502 0 14.175 2.93 14.175 3.874 18.458 3.874 18.458 0"/>
      <rect x="45.515" width="26.163" height="3.874"/>
      <polygon points="73.081 0 76.408 2.93 76.408 3.874 72.125 3.874 72.125 0"/>
      <path d="M 100 21.316 L 98.848 20.348 L 97.07 4.271 L 2.104 4.271 L 2.104 7.748 L 3.57 7.748 C 3.57 7.748 2.204 10.207 1.955 12.516 L 1.198 21.845 L 0.149 21.904 L 0 24.138 L 13.113 24.138 C 12.964 23.685 12.883 23.201 12.883 22.699 C 12.883 20.147 14.951 18.08 17.502 18.08 C 20.053 18.08 22.121 20.147 22.121 22.699 C 22.121 23.202 22.039 23.685 21.891 24.138 L 72.459 24.138 C 72.311 23.685 72.23 23.201 72.23 22.699 C 72.23 20.147 74.298 18.08 76.849 18.08 C 79.4 18.08 81.468 20.147 81.468 22.699 C 81.468 23.202 81.386 23.685 81.238 24.138 L 86.541 24.138 L 98.781 22.768 L 100 22.768 L 100 21.316 Z M 12.386 15.05 C 12.386 15.954 11.653 16.689 10.747 16.689 L 5.532 16.689 C 4.627 16.689 3.892 15.955 3.892 15.05 L 3.892 10.033 C 3.892 9.128 4.626 8.394 5.532 8.394 L 10.747 8.394 C 11.652 8.394 12.386 9.128 12.386 10.033 L 12.386 15.05 Z M 80.282 8.394 L 87.633 8.394 C 88.505 8.394 89.216 9.075 89.268 9.934 L 78.648 9.934 C 78.7 9.075 79.411 8.394 80.282 8.394 Z M 67.366 8.394 L 74.717 8.394 C 75.589 8.394 76.3 9.075 76.351 9.934 L 65.732 9.934 C 65.784 9.075 66.494 8.394 67.366 8.394 Z M 54.288 8.394 L 61.963 8.394 C 62.834 8.394 63.545 9.075 63.597 9.934 L 52.654 9.934 C 52.706 9.075 53.417 8.394 54.288 8.394 Z M 41.372 8.394 L 49.046 8.394 C 49.918 8.394 50.629 9.075 50.681 9.934 L 39.738 9.934 C 39.79 9.075 40.501 8.394 41.372 8.394 Z M 28.456 8.394 L 36.13 8.394 C 37.002 8.394 37.713 9.075 37.765 9.934 L 26.822 9.934 C 26.874 9.075 27.585 8.394 28.456 8.394 Z M 15.54 8.394 L 23.214 8.394 C 24.086 8.394 24.796 9.075 24.848 9.934 L 13.906 9.934 C 13.958 9.075 14.668 8.394 15.54 8.394 Z M 23.214 16.688 L 15.54 16.688 C 14.635 16.688 13.901 15.954 13.901 15.049 L 13.901 10.528 L 24.852 10.528 L 24.852 15.049 C 24.853 15.954 24.119 16.688 23.214 16.688 Z M 36.13 16.688 L 28.456 16.688 C 27.551 16.688 26.817 15.954 26.817 15.049 L 26.817 10.528 L 37.77 10.528 L 37.77 15.049 C 37.77 15.954 37.035 16.688 36.13 16.688 Z M 49.046 16.688 L 41.372 16.688 C 40.467 16.688 39.733 15.954 39.733 15.049 L 39.733 10.528 L 50.685 10.528 L 50.685 15.049 C 50.686 15.954 49.951 16.688 49.046 16.688 Z M 61.963 16.688 L 54.288 16.688 C 53.383 16.688 52.649 15.954 52.649 15.049 L 52.649 10.528 L 63.601 10.528 L 63.601 15.049 C 63.602 15.954 62.867 16.688 61.963 16.688 Z M 74.717 15.198 L 67.366 15.198 C 66.461 15.198 65.726 14.465 65.726 13.559 L 65.726 10.529 L 76.356 10.529 L 76.356 13.559 C 76.356 14.465 75.622 15.198 74.717 15.198 Z M 87.633 15.198 L 80.282 15.198 C 79.377 15.198 78.643 14.465 78.643 13.559 L 78.643 10.529 L 89.272 10.529 L 89.272 13.559 C 89.272 14.465 88.538 15.198 87.633 15.198 Z"/>
    </g>
    <g transform="matrix(1, 0, 0, 1, 153.670807, -993.935242)">
      <g transform="translate(628,-140.49998)">
        <g transform="translate(-599.5,50.350676)">
          <g transform="translate(-29.5,89.649313)">
            <g transform="translate(1.5,-1.5000527)">
              <path style="color:#000000;font-style:normal;font-variant:normal;font-weight:normal;font-stretch:normal;font-size:medium;line-height:normal;font-family:sans-serif;text-indent:0;text-align:start;text-decoration:none;text-decoration-line:none;text-decoration-style:solid;text-decoration-color:#000000;letter-spacing:normal;word-spacing:normal;text-transform:none;direction:ltr;block-progression:tb;writing-mode:lr-tb;baseline-shift:baseline;text-anchor:start;white-space:normal;clip-rule:nonzero;display:inline;overflow:visible;visibility:visible;opacity:1;isolation:auto;mix-blend-mode:normal;color-interpolation:sRGB;color-interpolation-filters:linearRGB;solid-color:#000000;solid-opacity:1;fill:#000000;fill-opacity:1;fill-rule:nonzero;stroke:none;stroke-width:1;stroke-linecap:round;stroke-linejoin:round;stroke-miterlimit:4;stroke-dasharray:none;stroke-dashoffset:0;stroke-opacity:1;color-rendering:auto;image-rendering:auto;shape-rendering:auto;text-rendering:auto;enable-background:accumulate" d="M 2.1796875 0 A 0.48405063 0.51657831 0 0 0 1.8320312 0.15625 C -0.61194405 2.76445 -0.61193725 7.0089875 1.8320312 9.6171875 A 0.48445689 0.51701187 0 0 0 2.5175781 8.8867188 C 0.44353036 6.6733187 0.44353036 3.1020719 2.5175781 0.88867188 A 0.48405063 0.51657831 0 0 0 2.5273438 0.15625 A 0.48405063 0.51657831 0 0 0 2.1796875 0 z M 13.820312 0 A 0.48405063 0.51657831 0 0 0 13.472656 0.15625 A 0.48405063 0.51657831 0 0 0 13.484375 0.88671875 C 15.558416 3.1002188 15.55643 6.6733187 13.482422 8.8867188 A 0.48445693 0.51701191 0 0 0 14.167969 9.6171875 C 16.611937 7.0089875 16.611937 2.76445 14.167969 0.15625 A 0.48405063 0.51657831 0 0 0 13.820312 0 z M 3.7070312 1.2480469 A 0.48405063 0.51657831 0 0 0 3.3613281 1.4042969 C 1.5632115 3.3232969 1.5632115 6.4501406 3.3613281 8.3691406 A 0.48443864 0.51699239 0 0 0 4.0449219 7.6386719 C 2.6167294 6.1144719 2.6167261 3.6589656 4.0449219 2.1347656 A 0.48405063 0.51657831 0 0 0 4.0546875 1.4042969 A 0.48405063 0.51657831 0 0 0 3.7070312 1.2480469 z M 12.292969 1.2480469 A 0.48405063 0.51657831 0 0 0 11.945312 1.4042969 A 0.48405063 0.51657831 0 0 0 11.955078 2.1347656 C 13.383267 3.6589656 13.383234 6.1144719 11.955078 7.6386719 A 0.48443864 0.51699239 0 1 0 12.638672 8.3691406 C 14.436789 6.4501406 14.436782 3.3232969 12.638672 1.4042969 A 0.48405063 0.51657831 0 0 0 12.292969 1.2480469 z M 5.2128906 2.4941406 A 0.48405063 0.51657831 0 0 0 4.8652344 2.6523438 C 3.7130244 3.8819437 3.7130176 5.8914938 4.8652344 7.1210938 A 0.48443864 0.51699239 0 1 0 5.5507812 6.390625 C 4.7684783 5.555725 4.7684852 4.2177125 5.5507812 3.3828125 A 0.48405063 0.51657831 0 0 0 5.5605469 2.6542969 L 5.5605469 2.6523438 A 0.48405063 0.51657831 0 0 0 5.2128906 2.4941406 z M 10.787109 2.4941406 A 0.48405063 0.51657831 0 0 0 10.439453 2.6523438 L 10.439453 2.6542969 A 0.48405063 0.51657831 0 0 0 10.449219 3.3828125 C 11.231514 4.2177125 11.231521 5.555725 10.449219 6.390625 A 0.48443864 0.51699239 0 1 0 11.134766 7.1210938 C 12.286983 5.8914938 12.286976 3.8819437 11.134766 2.6523438 A 0.48405063 0.51657831 0 0 0 10.787109 2.4941406 z M 7.9980469 2.7832031 C 6.8995642 2.7832031 5.9980612 3.6847031 5.9980469 4.7832031 C 5.9980589 5.7079043 6.640674 6.4856537 7.4980469 6.7109375 L 7.4980469 13.494141 A 0.50005 0.50005 0 1 0 8.4980469 13.494141 L 8.4980469 6.7109375 C 9.3554198 6.4856537 9.9980348 5.7079043 9.9980469 4.7832031 C 9.9980326 3.6847031 9.0965296 2.7832031 7.9980469 2.7832031 z M 7.9980469 3.7832031 C 8.5560945 3.7832031 8.9980396 4.2252031 8.9980469 4.7832031 C 8.9980396 5.3413031 8.5560945 5.7832031 7.9980469 5.7832031 C 7.4399993 5.7832031 6.9980541 5.3413031 6.9980469 4.7832031 C 6.9980541 4.2252031 7.4399993 3.7832031 7.9980469 3.7832031 z M 5.5 15 A 0.5 0.5 0 0 0 5 15.5 A 0.5 0.5 0 0 0 5.5 16 A 0.5 0.5 0 0 0 6 15.5 A 0.5 0.5 0 0 0 5.5 15 z M 8 15 A 0.5 0.5 0 0 0 7.5 15.5 A 0.5 0.5 0 0 0 8 16 A 0.5 0.5 0 0 0 8.5 15.5 A 0.5 0.5 0 0 0 8 15 z M 10.5 15 A 0.5 0.5 0 0 0 10 15.5 A 0.5 0.5 0 0 0 10.5 16 A 0.5 0.5 0 0 0 11 15.5 A 0.5 0.5 0 0 0 10.5 15 z " transform="translate(-0.5,1038.3622)"/>
            </g>
          </g>
        </g>
      </g>
    </g>
  </g>
  <path d="M 500.678 298.426 Z" style="stroke: black; fill: none;"/>
  <path d="M 361.666 298.426 Z" style="stroke: black; fill: none;"/>
  <g transform="matrix(-1, 0, 0, 1, 491.260101, 55.359688)">
    <path d="M60.808,20.632l3.245,0.115c0.145-4.058-3.039-7.477-7.097-7.622l-0.116,3.245C59.109,16.451,60.888,18.363,60.808,20.632z   "/>
    <path d="M67.522,10.143c-2.756-2.959-6.498-4.668-10.539-4.812l-0.116,3.245c3.174,0.113,6.114,1.456,8.278,3.78   c2.164,2.325,3.293,5.353,3.18,8.527l3.245,0.116C71.714,16.957,70.277,13.102,67.522,10.143z"/>
    <path d="M59.402,62.137L58.53,59.77l0,0l-7.035-19.108h1.74v-3.168H50.43v-9.588h-2.686v9.588h-2.769v3.168h1.676L27.98,91.377   h-0.557v3.167h4.95v-3.167h-1.018l1.397-3.795l16.063-9.534l16.721,9.924l1.253,3.405h-0.989v3.167h4.95v-3.167h-0.584   L59.402,62.137z M49.073,43.251l5.137,13.955l-8.432-5.004L49.073,43.251z M34.488,82.869l4.026-10.935l7.2,4.272L34.488,82.869z    M39.626,68.911l5.039-13.686l11.281,6.695l2.482,6.741l-9.611,5.704L39.626,68.911z M51.92,76.207l7.621-4.522l4.261,11.574   L51.92,76.207z"/>
  </g>
  <path d="M -94.316 92.081 Z" style="stroke: black; fill: none; stroke-width: 2;"/>
  <path d="M 293.147 352.691 Z" style="stroke: black; fill: none;"/>
  <path d="M 495.269 146.537 L 453.848 124.1" style="fill: none; stroke: black; stroke-width: 2;"/>
  <path d="M 153.763 191.055 C 161.116 185.126 267.529 106.813 418.043 71.282" style="fill: none; stroke: url(#pattern-4);"/>
  <path d="M 347.906 347.513 Z" style="fill: none; stroke: url(#gradient-1);"/>
  <path d="M 397.094 427.767 Z" style="stroke: black; fill: none;"/>
  <path d="M 447.145 416.549 Z" style="stroke: black; fill: none;"/>
  <path d="M 538.535 259.945 Z" style="stroke: black; fill: none;"/>
  <path d="M 544.727 102.274 Z" style="stroke: black; fill: none;"/>
  <path d="M 574.307 147.104 L 574.307 115.582 L 568.397 115.582 L 568.397 111.608 L 565.644 111.608 L 565.644 82.443 L 560.436 82.443 L 560.436 111.608 L 557.683 111.608 L 557.683 115.582 L 551.8 115.582 L 551.8 96.831 L 527.99 107.653 L 527.99 96.831 L 504.18 107.653 L 504.18 96.831 L 477.991 108.736 L 477.991 147.104 L 476.149 147.104 L 476.149 149.733 L 576.149 149.733 L 576.149 147.104 L 574.307 147.104 L 574.307 147.104 Z M 493.386 132.562 L 490.047 132.562 L 490.047 129.223 L 493.386 129.223 L 493.386 132.562 Z M 493.386 126.048 L 490.047 126.048 L 490.047 122.709 L 493.386 122.709 L 493.386 126.048 Z M 499.899 132.562 L 496.56 132.562 L 496.56 129.223 L 499.899 129.223 L 499.899 132.562 Z M 499.899 126.048 L 496.56 126.048 L 496.56 122.709 L 499.899 122.709 L 499.899 126.048 Z M 506.412 132.562 L 503.073 132.562 L 503.073 129.223 L 506.412 129.223 L 506.412 132.562 Z M 506.412 126.048 L 503.073 126.048 L 503.073 122.709 L 506.412 122.709 L 506.412 126.048 Z M 525.132 132.562 L 521.793 132.562 L 521.793 129.223 L 525.132 129.223 L 525.132 132.562 Z M 525.132 126.048 L 521.793 126.048 L 521.793 122.709 L 525.132 122.709 L 525.132 126.048 Z M 531.645 132.562 L 528.306 132.562 L 528.306 129.223 L 531.645 129.223 L 531.645 132.562 Z M 531.645 126.048 L 528.306 126.048 L 528.306 122.709 L 531.645 122.709 L 531.645 126.048 Z M 538.159 132.562 L 534.82 132.562 L 534.82 129.223 L 538.159 129.223 L 538.159 132.562 Z M 538.159 126.048 L 534.82 126.048 L 534.82 122.709 L 538.159 122.709 L 538.159 126.048 Z M 560.65 139.075 L 557.311 139.075 L 557.311 135.736 L 560.65 135.736 L 560.65 139.075 Z M 560.65 132.562 L 557.311 132.562 L 557.311 129.223 L 560.65 129.223 L 560.65 132.562 Z M 560.65 126.048 L 557.311 126.048 L 557.311 122.709 L 560.65 122.709 L 560.65 126.048 Z M 567.164 139.075 L 563.825 139.075 L 563.825 135.736 L 567.164 135.736 L 567.164 139.075 Z M 567.164 132.562 L 563.825 132.562 L 563.825 129.223 L 567.164 129.223 L 567.164 132.562 Z M 567.164 126.048 L 563.825 126.048 L 563.825 122.709 L 567.164 122.709 L 567.164 126.048 Z"/>
  <path d="M 423.097 54.967 L 429.408 57.051 L 426.732 50.308" style="fill: none; stroke: black;"/>
  <path d="M 157.689 196.414 L 165.285 198.794 L 159.493 204.278" style="fill: none; stroke: black;" transform="matrix(-1, 0, 0, -1, 321.898983, 397.059027)"/>
  <g transform="matrix(2.000329, 0, 0, 2.016207, 343.010864, -4.252538)">
    <circle fill="none" stroke="#000000" stroke-miterlimit="10" stroke-dasharray="9.9182,4.9591" cx="80.5" cy="75.296" r="41.862" style="stroke-width: 0.497942;" transform="matrix(1.214321, 0, 0, 1.107628, -26.89727, 4.535819)"/>
  </g>
  <path d="M 429.352 48.485 C 417.51 58.259 149.076 62.135 119.149 26.345" style="fill: none; stroke: black;" transform="matrix(-1, 0, 0, -1, 547.676032, 82.960388)"/>
  <text x="209.379" y="210.881" style="font-size: 36px; font-family: Roboto; white-space: pre;" transform="matrix(0.198348, 0, 0, 0.314098, 454.60675, 96.404655)">MBTA Warehouse</text>
  <text x="475.181" y="257.087" style="font-size: 36px; font-family: Roboto; white-space: pre;" transform="matrix(0.303527, 0, 0, 0.287335, 332.944214, 190.334915)">WiFi</text>
  <path d="M 291.311 165.152 C 291.311 165.152 291.311 165.152 291.311 165.152 Z" style="fill: none; stroke: url(#pattern-0-0);"/>
  <path d="M 419.533 86.974 Z" style="stroke: black; fill: none;"/>
  <path style="stroke: black; fill: none;"/>
  <path style="stroke: black; fill: none;"/>
  <path d="M 300.878 131.94" style="fill: none; stroke: black;"/>
  <text x="153.177" y="182.376" style="font-size: 36px; font-family: Roboto; white-space: pre;" transform="matrix(0.559308, 0, 0, 0.518356, 237.148102, 64.015472)">(a)</text>
  <text x="46.427" y="201.077" style="font-size: 36px; font-family: Roboto; white-space: pre;" transform="matrix(0.600077, 0, 0, 0.57393, 413.226318, 102.109734)">(b)</text>
  <text x="43.31" y="236.92" transform="matrix(0.480161, 0, 0, 0.463514, 34.078594, -80.975945)" style="font-size: 36px; font-family: Roboto; white-space: pre;">(c)</text>
  <text x="71.361" y="226.011" style="font-size: 36px; font-family: Roboto; white-space: pre;" transform="matrix(0.462285, 0, 0, 0.444256, 47.864346, 140.105942)">(d)</text>
  <g transform="matrix(1, 0, 0, 1, -13.952694, -37.344288)">
    <circle cx="36.079" cy="33.556" r="5.115" transform="matrix(0.481014, 0, 0, 0.499507, 18.81851, 199.801987)"/>
    <path d="M 53.491 223.993 C 59.295 223.474 63.867 218.405 63.867 212.244 C 63.867 205.74 58.772 200.449 52.509 200.449 C 46.246 200.449 41.151 205.741 41.151 212.244 C 41.151 218.405 45.723 223.473 51.528 223.993 L 51.528 242.739 L 39.728 242.739 L 39.735 223.697 L 40.775 223.675 L 40.775 231.725 C 40.775 233.344 42.992 233.344 42.987 231.725 L 42.987 223.504 C 42.986 221.005 41.466 219.82 39.061 219.82 L 33.403 219.817 L 33.402 219.811 L 25.081 217.177 C 23.335 216.679 22.746 218.931 24.29 219.446 L 32.617 222.375 L 32.614 242.739 L 30.127 242.739 L 30.127 246.903 L 21.925 246.903 L 21.925 248.941 L 32.09 248.941 L 32.09 244.777 L 62.059 244.777 L 62.059 242.739 L 53.491 242.739 L 53.491 223.993 Z M 42.858 212.244 C 42.858 206.718 47.187 202.222 52.509 202.222 C 57.831 202.222 62.16 206.718 62.16 212.244 C 62.16 217.77 57.83 222.266 52.509 222.266 C 47.187 222.266 42.858 217.77 42.858 212.244 Z M 35.524 232.231 L 36.822 232.231 L 36.819 242.739 L 35.522 242.739 L 35.524 232.231 Z"/>
    <path d="M 58.433 211.233 L 57.864 206.804 C 57.789 206.117 57.281 205.567 56.354 205.169 C 55.247 204.698 53.953 204.459 52.508 204.459 C 51.063 204.459 49.769 204.698 48.662 205.169 C 47.737 205.566 47.223 206.115 47.133 206.8 L 46.582 211.264 L 46.582 217.599 L 47.542 217.599 L 47.542 218.321 C 47.542 219.037 47.914 219.431 48.591 219.431 C 49.267 219.431 49.639 219.037 49.639 218.321 L 49.639 217.599 L 55.378 217.599 L 55.378 218.321 C 55.378 219.037 55.75 219.431 56.426 219.431 C 57.103 219.431 57.475 219.037 57.475 218.321 L 57.475 217.599 L 58.434 217.599 L 58.433 211.233 Z M 48.483 207.659 C 48.502 207.534 48.541 207.47 48.71 207.47 L 50.944 207.47 L 50.944 205.943 L 54.075 205.943 L 54.075 207.47 L 56.309 207.47 C 56.477 207.47 56.517 207.534 56.535 207.654 L 56.987 211.159 L 57.003 211.244 C 57.003 211.405 56.967 211.477 56.759 211.477 L 48.26 211.477 C 48.051 211.477 48.016 211.405 48.013 211.282 L 48.483 207.659 Z M 48.949 215.644 C 48.333 215.644 47.832 215.124 47.832 214.483 C 47.832 213.842 48.333 213.323 48.949 213.323 C 49.566 213.323 50.067 213.843 50.067 214.483 C 50.067 215.124 49.566 215.644 48.949 215.644 Z M 56.069 215.644 C 55.452 215.644 54.951 215.124 54.951 214.483 C 54.951 213.842 55.452 213.323 56.069 213.323 C 56.686 213.323 57.186 213.843 57.186 214.483 C 57.187 215.124 56.686 215.644 56.069 215.644 Z"/>
  </g>
  <g transform="matrix(1, 0, 0, 1, -16.870888, 101.168816)">
    <g transform="matrix(1, 0, 0, 1, 68.813759, 50.665073)">
      <path d="M 76.849 19.098 C 74.861 19.098 73.248 20.71 73.248 22.699 C 73.248 24.688 74.86 26.3 76.849 26.3 C 78.838 26.3 80.45 24.688 80.45 22.699 C 80.45 20.71 78.838 19.098 76.849 19.098 Z M 76.849 24.784 C 75.697 24.784 74.763 23.85 74.763 22.698 C 74.763 21.546 75.697 20.612 76.849 20.612 C 78.001 20.612 78.935 21.546 78.935 22.698 C 78.935 23.85 78.001 24.784 76.849 24.784 Z"/>
      <path d="M 17.502 19.098 C 15.514 19.098 13.901 20.71 13.901 22.699 C 13.901 24.688 15.513 26.3 17.502 26.3 C 19.491 26.3 21.103 24.688 21.103 22.699 C 21.103 20.71 19.49 19.098 17.502 19.098 Z M 17.502 24.784 C 16.35 24.784 15.416 23.85 15.416 22.698 C 15.416 21.546 16.35 20.612 17.502 20.612 C 18.654 20.612 19.588 21.546 19.588 22.698 C 19.588 23.85 18.654 24.784 17.502 24.784 Z"/>
      <circle cx="17.502" cy="22.624" r="0.72"/>
      <circle cx="76.849" cy="22.624" r="0.72"/>
      <rect x="18.905" width="26.163" height="3.874"/>
      <polygon points="17.502 0 14.175 2.93 14.175 3.874 18.458 3.874 18.458 0"/>
      <rect x="45.515" width="26.163" height="3.874"/>
      <polygon points="73.081 0 76.408 2.93 76.408 3.874 72.125 3.874 72.125 0"/>
      <path d="M 100 21.316 L 98.848 20.348 L 97.07 4.271 L 2.104 4.271 L 2.104 7.748 L 3.57 7.748 C 3.57 7.748 2.204 10.207 1.955 12.516 L 1.198 21.845 L 0.149 21.904 L 0 24.138 L 13.113 24.138 C 12.964 23.685 12.883 23.201 12.883 22.699 C 12.883 20.147 14.951 18.08 17.502 18.08 C 20.053 18.08 22.121 20.147 22.121 22.699 C 22.121 23.202 22.039 23.685 21.891 24.138 L 72.459 24.138 C 72.311 23.685 72.23 23.201 72.23 22.699 C 72.23 20.147 74.298 18.08 76.849 18.08 C 79.4 18.08 81.468 20.147 81.468 22.699 C 81.468 23.202 81.386 23.685 81.238 24.138 L 86.541 24.138 L 98.781 22.768 L 100 22.768 L 100 21.316 Z M 12.386 15.05 C 12.386 15.954 11.653 16.689 10.747 16.689 L 5.532 16.689 C 4.627 16.689 3.892 15.955 3.892 15.05 L 3.892 10.033 C 3.892 9.128 4.626 8.394 5.532 8.394 L 10.747 8.394 C 11.652 8.394 12.386 9.128 12.386 10.033 L 12.386 15.05 Z M 80.282 8.394 L 87.633 8.394 C 88.505 8.394 89.216 9.075 89.268 9.934 L 78.648 9.934 C 78.7 9.075 79.411 8.394 80.282 8.394 Z M 67.366 8.394 L 74.717 8.394 C 75.589 8.394 76.3 9.075 76.351 9.934 L 65.732 9.934 C 65.784 9.075 66.494 8.394 67.366 8.394 Z M 54.288 8.394 L 61.963 8.394 C 62.834 8.394 63.545 9.075 63.597 9.934 L 52.654 9.934 C 52.706 9.075 53.417 8.394 54.288 8.394 Z M 41.372 8.394 L 49.046 8.394 C 49.918 8.394 50.629 9.075 50.681 9.934 L 39.738 9.934 C 39.79 9.075 40.501 8.394 41.372 8.394 Z M 28.456 8.394 L 36.13 8.394 C 37.002 8.394 37.713 9.075 37.765 9.934 L 26.822 9.934 C 26.874 9.075 27.585 8.394 28.456 8.394 Z M 15.54 8.394 L 23.214 8.394 C 24.086 8.394 24.796 9.075 24.848 9.934 L 13.906 9.934 C 13.958 9.075 14.668 8.394 15.54 8.394 Z M 23.214 16.688 L 15.54 16.688 C 14.635 16.688 13.901 15.954 13.901 15.049 L 13.901 10.528 L 24.852 10.528 L 24.852 15.049 C 24.853 15.954 24.119 16.688 23.214 16.688 Z M 36.13 16.688 L 28.456 16.688 C 27.551 16.688 26.817 15.954 26.817 15.049 L 26.817 10.528 L 37.77 10.528 L 37.77 15.049 C 37.77 15.954 37.035 16.688 36.13 16.688 Z M 49.046 16.688 L 41.372 16.688 C 40.467 16.688 39.733 15.954 39.733 15.049 L 39.733 10.528 L 50.685 10.528 L 50.685 15.049 C 50.686 15.954 49.951 16.688 49.046 16.688 Z M 61.963 16.688 L 54.288 16.688 C 53.383 16.688 52.649 15.954 52.649 15.049 L 52.649 10.528 L 63.601 10.528 L 63.601 15.049 C 63.602 15.954 62.867 16.688 61.963 16.688 Z M 74.717 15.198 L 67.366 15.198 C 66.461 15.198 65.726 14.465 65.726 13.559 L 65.726 10.529 L 76.356 10.529 L 76.356 13.559 C 76.356 14.465 75.622 15.198 74.717 15.198 Z M 87.633 15.198 L 80.282 15.198 C 79.377 15.198 78.643 14.465 78.643 13.559 L 78.643 10.529 L 89.272 10.529 L 89.272 13.559 C 89.272 14.465 88.538 15.198 87.633 15.198 Z"/>
    </g>
    <g transform="matrix(1, 0, 0, 1, 153.670807, -993.935242)">
      <g transform="translate(628,-140.49998)">
        <g transform="translate(-599.5,50.350676)">
          <g transform="translate(-29.5,89.649313)">
            <g transform="translate(1.5,-1.5000527)">
              <path style="color:#000000;font-style:normal;font-variant:normal;font-weight:normal;font-stretch:normal;font-size:medium;line-height:normal;font-family:sans-serif;text-indent:0;text-align:start;text-decoration:none;text-decoration-line:none;text-decoration-style:solid;text-decoration-color:#000000;letter-spacing:normal;word-spacing:normal;text-transform:none;direction:ltr;block-progression:tb;writing-mode:lr-tb;baseline-shift:baseline;text-anchor:start;white-space:normal;clip-rule:nonzero;display:inline;overflow:visible;visibility:visible;opacity:1;isolation:auto;mix-blend-mode:normal;color-interpolation:sRGB;color-interpolation-filters:linearRGB;solid-color:#000000;solid-opacity:1;fill:#000000;fill-opacity:1;fill-rule:nonzero;stroke:none;stroke-width:1;stroke-linecap:round;stroke-linejoin:round;stroke-miterlimit:4;stroke-dasharray:none;stroke-dashoffset:0;stroke-opacity:1;color-rendering:auto;image-rendering:auto;shape-rendering:auto;text-rendering:auto;enable-background:accumulate" d="M 2.1796875 0 A 0.48405063 0.51657831 0 0 0 1.8320312 0.15625 C -0.61194405 2.76445 -0.61193725 7.0089875 1.8320312 9.6171875 A 0.48445689 0.51701187 0 0 0 2.5175781 8.8867188 C 0.44353036 6.6733187 0.44353036 3.1020719 2.5175781 0.88867188 A 0.48405063 0.51657831 0 0 0 2.5273438 0.15625 A 0.48405063 0.51657831 0 0 0 2.1796875 0 z M 13.820312 0 A 0.48405063 0.51657831 0 0 0 13.472656 0.15625 A 0.48405063 0.51657831 0 0 0 13.484375 0.88671875 C 15.558416 3.1002188 15.55643 6.6733187 13.482422 8.8867188 A 0.48445693 0.51701191 0 0 0 14.167969 9.6171875 C 16.611937 7.0089875 16.611937 2.76445 14.167969 0.15625 A 0.48405063 0.51657831 0 0 0 13.820312 0 z M 3.7070312 1.2480469 A 0.48405063 0.51657831 0 0 0 3.3613281 1.4042969 C 1.5632115 3.3232969 1.5632115 6.4501406 3.3613281 8.3691406 A 0.48443864 0.51699239 0 0 0 4.0449219 7.6386719 C 2.6167294 6.1144719 2.6167261 3.6589656 4.0449219 2.1347656 A 0.48405063 0.51657831 0 0 0 4.0546875 1.4042969 A 0.48405063 0.51657831 0 0 0 3.7070312 1.2480469 z M 12.292969 1.2480469 A 0.48405063 0.51657831 0 0 0 11.945312 1.4042969 A 0.48405063 0.51657831 0 0 0 11.955078 2.1347656 C 13.383267 3.6589656 13.383234 6.1144719 11.955078 7.6386719 A 0.48443864 0.51699239 0 1 0 12.638672 8.3691406 C 14.436789 6.4501406 14.436782 3.3232969 12.638672 1.4042969 A 0.48405063 0.51657831 0 0 0 12.292969 1.2480469 z M 5.2128906 2.4941406 A 0.48405063 0.51657831 0 0 0 4.8652344 2.6523438 C 3.7130244 3.8819437 3.7130176 5.8914938 4.8652344 7.1210938 A 0.48443864 0.51699239 0 1 0 5.5507812 6.390625 C 4.7684783 5.555725 4.7684852 4.2177125 5.5507812 3.3828125 A 0.48405063 0.51657831 0 0 0 5.5605469 2.6542969 L 5.5605469 2.6523438 A 0.48405063 0.51657831 0 0 0 5.2128906 2.4941406 z M 10.787109 2.4941406 A 0.48405063 0.51657831 0 0 0 10.439453 2.6523438 L 10.439453 2.6542969 A 0.48405063 0.51657831 0 0 0 10.449219 3.3828125 C 11.231514 4.2177125 11.231521 5.555725 10.449219 6.390625 A 0.48443864 0.51699239 0 1 0 11.134766 7.1210938 C 12.286983 5.8914938 12.286976 3.8819437 11.134766 2.6523438 A 0.48405063 0.51657831 0 0 0 10.787109 2.4941406 z M 7.9980469 2.7832031 C 6.8995642 2.7832031 5.9980612 3.6847031 5.9980469 4.7832031 C 5.9980589 5.7079043 6.640674 6.4856537 7.4980469 6.7109375 L 7.4980469 13.494141 A 0.50005 0.50005 0 1 0 8.4980469 13.494141 L 8.4980469 6.7109375 C 9.3554198 6.4856537 9.9980348 5.7079043 9.9980469 4.7832031 C 9.9980326 3.6847031 9.0965296 2.7832031 7.9980469 2.7832031 z M 7.9980469 3.7832031 C 8.5560945 3.7832031 8.9980396 4.2252031 8.9980469 4.7832031 C 8.9980396 5.3413031 8.5560945 5.7832031 7.9980469 5.7832031 C 7.4399993 5.7832031 6.9980541 5.3413031 6.9980469 4.7832031 C 6.9980541 4.2252031 7.4399993 3.7832031 7.9980469 3.7832031 z M 5.5 15 A 0.5 0.5 0 0 0 5 15.5 A 0.5 0.5 0 0 0 5.5 16 A 0.5 0.5 0 0 0 6 15.5 A 0.5 0.5 0 0 0 5.5 15 z M 8 15 A 0.5 0.5 0 0 0 7.5 15.5 A 0.5 0.5 0 0 0 8 16 A 0.5 0.5 0 0 0 8.5 15.5 A 0.5 0.5 0 0 0 8 15 z M 10.5 15 A 0.5 0.5 0 0 0 10 15.5 A 0.5 0.5 0 0 0 10.5 16 A 0.5 0.5 0 0 0 11 15.5 A 0.5 0.5 0 0 0 10.5 15 z " transform="translate(-0.5,1038.3622)"/>
            </g>
          </g>
        </g>
      </g>
    </g>
  </g>
  <path d="M 413.86 74.685 L 418.331 71.033 L 412.449 69.994" style="fill: none; stroke: black;"/>
  <text x="43.31" y="236.92" transform="matrix(0.480161, 0, 0, 0.463514, 62.026478, 36.574287)" style="font-size: 36px; font-family: Roboto; white-space: pre;">(c)</text>
  <path d="M 419.908 63.939 L 425.088 62.281 L 420.736 58.759" style="fill: none; stroke: black;"/>
  <path d="M 165.905 53.851" style="fill: none; stroke: black;"/>
  <g transform="matrix(-1, 0, 0, 1, 559.897705, 172.975616)">
    <g transform="matrix(1, 0, 0, 1, 68.813759, 50.665073)">
      <path d="M 76.849 19.098 C 74.861 19.098 73.248 20.71 73.248 22.699 C 73.248 24.688 74.86 26.3 76.849 26.3 C 78.838 26.3 80.45 24.688 80.45 22.699 C 80.45 20.71 78.838 19.098 76.849 19.098 Z M 76.849 24.784 C 75.697 24.784 74.763 23.85 74.763 22.698 C 74.763 21.546 75.697 20.612 76.849 20.612 C 78.001 20.612 78.935 21.546 78.935 22.698 C 78.935 23.85 78.001 24.784 76.849 24.784 Z"/>
      <path d="M 17.502 19.098 C 15.514 19.098 13.901 20.71 13.901 22.699 C 13.901 24.688 15.513 26.3 17.502 26.3 C 19.491 26.3 21.103 24.688 21.103 22.699 C 21.103 20.71 19.49 19.098 17.502 19.098 Z M 17.502 24.784 C 16.35 24.784 15.416 23.85 15.416 22.698 C 15.416 21.546 16.35 20.612 17.502 20.612 C 18.654 20.612 19.588 21.546 19.588 22.698 C 19.588 23.85 18.654 24.784 17.502 24.784 Z"/>
      <circle cx="17.502" cy="22.624" r="0.72"/>
      <circle cx="76.849" cy="22.624" r="0.72"/>
      <rect x="18.905" width="26.163" height="3.874"/>
      <polygon points="17.502 0 14.175 2.93 14.175 3.874 18.458 3.874 18.458 0"/>
      <rect x="45.515" width="26.163" height="3.874"/>
      <polygon points="73.081 0 76.408 2.93 76.408 3.874 72.125 3.874 72.125 0"/>
      <path d="M 100 21.316 L 98.848 20.348 L 97.07 4.271 L 2.104 4.271 L 2.104 7.748 L 3.57 7.748 C 3.57 7.748 2.204 10.207 1.955 12.516 L 1.198 21.845 L 0.149 21.904 L 0 24.138 L 13.113 24.138 C 12.964 23.685 12.883 23.201 12.883 22.699 C 12.883 20.147 14.951 18.08 17.502 18.08 C 20.053 18.08 22.121 20.147 22.121 22.699 C 22.121 23.202 22.039 23.685 21.891 24.138 L 72.459 24.138 C 72.311 23.685 72.23 23.201 72.23 22.699 C 72.23 20.147 74.298 18.08 76.849 18.08 C 79.4 18.08 81.468 20.147 81.468 22.699 C 81.468 23.202 81.386 23.685 81.238 24.138 L 86.541 24.138 L 98.781 22.768 L 100 22.768 L 100 21.316 Z M 12.386 15.05 C 12.386 15.954 11.653 16.689 10.747 16.689 L 5.532 16.689 C 4.627 16.689 3.892 15.955 3.892 15.05 L 3.892 10.033 C 3.892 9.128 4.626 8.394 5.532 8.394 L 10.747 8.394 C 11.652 8.394 12.386 9.128 12.386 10.033 L 12.386 15.05 Z M 80.282 8.394 L 87.633 8.394 C 88.505 8.394 89.216 9.075 89.268 9.934 L 78.648 9.934 C 78.7 9.075 79.411 8.394 80.282 8.394 Z M 67.366 8.394 L 74.717 8.394 C 75.589 8.394 76.3 9.075 76.351 9.934 L 65.732 9.934 C 65.784 9.075 66.494 8.394 67.366 8.394 Z M 54.288 8.394 L 61.963 8.394 C 62.834 8.394 63.545 9.075 63.597 9.934 L 52.654 9.934 C 52.706 9.075 53.417 8.394 54.288 8.394 Z M 41.372 8.394 L 49.046 8.394 C 49.918 8.394 50.629 9.075 50.681 9.934 L 39.738 9.934 C 39.79 9.075 40.501 8.394 41.372 8.394 Z M 28.456 8.394 L 36.13 8.394 C 37.002 8.394 37.713 9.075 37.765 9.934 L 26.822 9.934 C 26.874 9.075 27.585 8.394 28.456 8.394 Z M 15.54 8.394 L 23.214 8.394 C 24.086 8.394 24.796 9.075 24.848 9.934 L 13.906 9.934 C 13.958 9.075 14.668 8.394 15.54 8.394 Z M 23.214 16.688 L 15.54 16.688 C 14.635 16.688 13.901 15.954 13.901 15.049 L 13.901 10.528 L 24.852 10.528 L 24.852 15.049 C 24.853 15.954 24.119 16.688 23.214 16.688 Z M 36.13 16.688 L 28.456 16.688 C 27.551 16.688 26.817 15.954 26.817 15.049 L 26.817 10.528 L 37.77 10.528 L 37.77 15.049 C 37.77 15.954 37.035 16.688 36.13 16.688 Z M 49.046 16.688 L 41.372 16.688 C 40.467 16.688 39.733 15.954 39.733 15.049 L 39.733 10.528 L 50.685 10.528 L 50.685 15.049 C 50.686 15.954 49.951 16.688 49.046 16.688 Z M 61.963 16.688 L 54.288 16.688 C 53.383 16.688 52.649 15.954 52.649 15.049 L 52.649 10.528 L 63.601 10.528 L 63.601 15.049 C 63.602 15.954 62.867 16.688 61.963 16.688 Z M 74.717 15.198 L 67.366 15.198 C 66.461 15.198 65.726 14.465 65.726 13.559 L 65.726 10.529 L 76.356 10.529 L 76.356 13.559 C 76.356 14.465 75.622 15.198 74.717 15.198 Z M 87.633 15.198 L 80.282 15.198 C 79.377 15.198 78.643 14.465 78.643 13.559 L 78.643 10.529 L 89.272 10.529 L 89.272 13.559 C 89.272 14.465 88.538 15.198 87.633 15.198 Z"/>
    </g>
    <g transform="matrix(1, 0, 0, 1, 153.670807, -993.935242)">
      <g transform="translate(628,-140.49998)">
        <g transform="translate(-599.5,50.350676)">
          <g transform="translate(-29.5,89.649313)">
            <g transform="translate(1.5,-1.5000527)">
              <path style="color:#000000;font-style:normal;font-variant:normal;font-weight:normal;font-stretch:normal;font-size:medium;line-height:normal;font-family:sans-serif;text-indent:0;text-align:start;text-decoration:none;text-decoration-line:none;text-decoration-style:solid;text-decoration-color:#000000;letter-spacing:normal;word-spacing:normal;text-transform:none;direction:ltr;block-progression:tb;writing-mode:lr-tb;baseline-shift:baseline;text-anchor:start;white-space:normal;clip-rule:nonzero;display:inline;overflow:visible;visibility:visible;opacity:1;isolation:auto;mix-blend-mode:normal;color-interpolation:sRGB;color-interpolation-filters:linearRGB;solid-color:#000000;solid-opacity:1;fill:#000000;fill-opacity:1;fill-rule:nonzero;stroke:none;stroke-width:1;stroke-linecap:round;stroke-linejoin:round;stroke-miterlimit:4;stroke-dasharray:none;stroke-dashoffset:0;stroke-opacity:1;color-rendering:auto;image-rendering:auto;shape-rendering:auto;text-rendering:auto;enable-background:accumulate" d="M 2.1796875 0 A 0.48405063 0.51657831 0 0 0 1.8320312 0.15625 C -0.61194405 2.76445 -0.61193725 7.0089875 1.8320312 9.6171875 A 0.48445689 0.51701187 0 0 0 2.5175781 8.8867188 C 0.44353036 6.6733187 0.44353036 3.1020719 2.5175781 0.88867188 A 0.48405063 0.51657831 0 0 0 2.5273438 0.15625 A 0.48405063 0.51657831 0 0 0 2.1796875 0 z M 13.820312 0 A 0.48405063 0.51657831 0 0 0 13.472656 0.15625 A 0.48405063 0.51657831 0 0 0 13.484375 0.88671875 C 15.558416 3.1002188 15.55643 6.6733187 13.482422 8.8867188 A 0.48445693 0.51701191 0 0 0 14.167969 9.6171875 C 16.611937 7.0089875 16.611937 2.76445 14.167969 0.15625 A 0.48405063 0.51657831 0 0 0 13.820312 0 z M 3.7070312 1.2480469 A 0.48405063 0.51657831 0 0 0 3.3613281 1.4042969 C 1.5632115 3.3232969 1.5632115 6.4501406 3.3613281 8.3691406 A 0.48443864 0.51699239 0 0 0 4.0449219 7.6386719 C 2.6167294 6.1144719 2.6167261 3.6589656 4.0449219 2.1347656 A 0.48405063 0.51657831 0 0 0 4.0546875 1.4042969 A 0.48405063 0.51657831 0 0 0 3.7070312 1.2480469 z M 12.292969 1.2480469 A 0.48405063 0.51657831 0 0 0 11.945312 1.4042969 A 0.48405063 0.51657831 0 0 0 11.955078 2.1347656 C 13.383267 3.6589656 13.383234 6.1144719 11.955078 7.6386719 A 0.48443864 0.51699239 0 1 0 12.638672 8.3691406 C 14.436789 6.4501406 14.436782 3.3232969 12.638672 1.4042969 A 0.48405063 0.51657831 0 0 0 12.292969 1.2480469 z M 5.2128906 2.4941406 A 0.48405063 0.51657831 0 0 0 4.8652344 2.6523438 C 3.7130244 3.8819437 3.7130176 5.8914938 4.8652344 7.1210938 A 0.48443864 0.51699239 0 1 0 5.5507812 6.390625 C 4.7684783 5.555725 4.7684852 4.2177125 5.5507812 3.3828125 A 0.48405063 0.51657831 0 0 0 5.5605469 2.6542969 L 5.5605469 2.6523438 A 0.48405063 0.51657831 0 0 0 5.2128906 2.4941406 z M 10.787109 2.4941406 A 0.48405063 0.51657831 0 0 0 10.439453 2.6523438 L 10.439453 2.6542969 A 0.48405063 0.51657831 0 0 0 10.449219 3.3828125 C 11.231514 4.2177125 11.231521 5.555725 10.449219 6.390625 A 0.48443864 0.51699239 0 1 0 11.134766 7.1210938 C 12.286983 5.8914938 12.286976 3.8819437 11.134766 2.6523438 A 0.48405063 0.51657831 0 0 0 10.787109 2.4941406 z M 7.9980469 2.7832031 C 6.8995642 2.7832031 5.9980612 3.6847031 5.9980469 4.7832031 C 5.9980589 5.7079043 6.640674 6.4856537 7.4980469 6.7109375 L 7.4980469 13.494141 A 0.50005 0.50005 0 1 0 8.4980469 13.494141 L 8.4980469 6.7109375 C 9.3554198 6.4856537 9.9980348 5.7079043 9.9980469 4.7832031 C 9.9980326 3.6847031 9.0965296 2.7832031 7.9980469 2.7832031 z M 7.9980469 3.7832031 C 8.5560945 3.7832031 8.9980396 4.2252031 8.9980469 4.7832031 C 8.9980396 5.3413031 8.5560945 5.7832031 7.9980469 5.7832031 C 7.4399993 5.7832031 6.9980541 5.3413031 6.9980469 4.7832031 C 6.9980541 4.2252031 7.4399993 3.7832031 7.9980469 3.7832031 z M 5.5 15 A 0.5 0.5 0 0 0 5 15.5 A 0.5 0.5 0 0 0 5.5 16 A 0.5 0.5 0 0 0 6 15.5 A 0.5 0.5 0 0 0 5.5 15 z M 8 15 A 0.5 0.5 0 0 0 7.5 15.5 A 0.5 0.5 0 0 0 8 16 A 0.5 0.5 0 0 0 8.5 15.5 A 0.5 0.5 0 0 0 8 15 z M 10.5 15 A 0.5 0.5 0 0 0 10 15.5 A 0.5 0.5 0 0 0 10.5 16 A 0.5 0.5 0 0 0 11 15.5 A 0.5 0.5 0 0 0 10.5 15 z " transform="translate(-0.5,1038.3622)"/>
            </g>
          </g>
        </g>
      </g>
    </g>
  </g>
  <path d="M 152.875 145.58 C 201.523 83.385 314.848 49.837 423.899 62.061" style="fill: none; stroke: black;"/>
  <path d="M 157.543 198.153 C 159.392 200.465 420.212 79.24 420.734 77.605" style="fill: none; stroke: black;"/>
  <path d="M 277.624 114.912 C 275.585 114.912 273.933 116.597 273.933 118.676 L 273.933 126.134 C 273.933 126.496 274.22 126.789 274.575 126.789 L 280.673 126.789 C 281.027 126.789 281.315 126.496 281.315 126.134 L 281.316 118.676 C 281.316 116.597 279.663 114.912 277.624 114.912 Z M 278.066 123.039 L 278.066 124.218 C 278.066 124.466 277.868 124.668 277.624 124.668 C 277.381 124.668 277.183 124.466 277.183 124.218 L 277.183 123.039 C 276.997 122.9 276.876 122.678 276.876 122.425 C 276.876 122.003 277.211 121.661 277.624 121.661 C 278.038 121.661 278.373 122.003 278.373 122.425 C 278.373 122.678 278.251 122.9 278.066 123.039 Z M 280.345 119.252 L 274.904 119.252 L 274.904 118.676 C 274.904 117.146 276.124 115.902 277.624 115.902 C 279.124 115.902 280.345 117.146 280.345 118.676 L 280.345 119.252 Z"/>
  <text x="259.181" y="23.834" style="font-size: 8px; white-space: pre;">GPS</text>
  <text x="232.954" y="57.822" style="font-size: 8px; white-space: pre;" transform="matrix(0.999999, 0, 0, 1, 17.32928, 13.774414)">STOP</text>
  <text x="184.966" y="86.26" style="font-size: 8px; white-space: pre;" transform="matrix(1.000001, 0, 0, 1, 57.319196, 37.768547)">VIDEO</text>
  <path d="M 474.112 139.445 L 393.765 171.298" style="fill: none; stroke: black;"/>
  <path d="M 406.245 213.784 L 475.117 152.466" style="fill: none; stroke: black;"/>
  <text x="216.958" y="179.237" style="font-size: 8px; white-space: pre;">COUNT</text>
  <path d="M 470.065 146.182 L 392.549 179.048" style="fill: none; stroke: black;"/>
  <path d="M 397.095 172.063 L 393.05 171.657 L 395.68 168.219" style="fill: none; stroke: black;"/>
  <path d="M 469.095 149.365 L 470.511 145.724 L 466.264 145.32" style="fill: none; stroke: black;"/>
  <text x="393.668" y="160.691" style="font-size: 8px; white-space: pre;">ROUTE</text>
  <text x="403.185" y="180.477" style="font-size: 7px; white-space: pre;">ACK</text>
  <path d="M 473.949 158.264 L 474.959 152.601 L 467.477 153.814" style="fill: none; stroke: black;"/>
  <text x="446.016" y="184.208" style="font-size: 7px; white-space: pre;">END</text>
  <g transform="matrix(0.016504, 0, 0, 0.014682, 74.697983, 209.02475)">
    <path d="M 312.3 150.4 C 281.5 107.1 291.8 47.8 335.1 18.2 C 378.4 -12.5 437.6 -2.3 467.2 41 C 498 84.3 487.7 143.6 444.4 173.2 C 401.1 202.8 341.9 192.6 312.3 150.4"/>
    <path d="M 478.6 299.7 L 472.9 515.1 C 472.9 516.2 471.8 517.4 471.8 519.7 C 459.3 547 430.8 563 401.1 561.9 L 355.5 558.5 C 354.4 558.5 356.6 558.5 355.5 558.5 L 246.1 549.4 L 213.1 792.1 L 144.7 783 L 175.5 491.3 C 177.8 484.5 182.3 477.6 188 473.1 L 336.1 451.4 L 355.5 345.4 L 344.1 354.5 C 338.4 359.1 331.6 361.3 324.7 362.5 L 133.3 417.2 L 127.6 367.1 L 305.4 293 L 361.2 218.9 C 377.2 207.5 397.7 201.8 418.2 205.2 C 436.4 208.6 452.4 218.9 462.6 232.5 L 462.6 232.5 C 462.6 232.5 467.2 238.2 468.3 240.5 C 476.4 256.4 478.6 299.7 478.6 299.7 Z"/>
  </g>
  <g transform="matrix(0.016504, 0, 0, 0.014682, 132.403946, 206.554367)">
    <path d="M 312.3 150.4 C 281.5 107.1 291.8 47.8 335.1 18.2 C 378.4 -12.5 437.6 -2.3 467.2 41 C 498 84.3 487.7 143.6 444.4 173.2 C 401.1 202.8 341.9 192.6 312.3 150.4"/>
    <path d="M 478.6 299.7 L 472.9 515.1 C 472.9 516.2 471.8 517.4 471.8 519.7 C 459.3 547 430.8 563 401.1 561.9 L 355.5 558.5 C 354.4 558.5 356.6 558.5 355.5 558.5 L 246.1 549.4 L 213.1 792.1 L 144.7 783 L 175.5 491.3 C 177.8 484.5 182.3 477.6 188 473.1 L 336.1 451.4 L 355.5 345.4 L 344.1 354.5 C 338.4 359.1 331.6 361.3 324.7 362.5 L 133.3 417.2 L 127.6 367.1 L 305.4 293 L 361.2 218.9 C 377.2 207.5 397.7 201.8 418.2 205.2 C 436.4 208.6 452.4 218.9 462.6 232.5 L 462.6 232.5 C 462.6 232.5 467.2 238.2 468.3 240.5 C 476.4 256.4 478.6 299.7 478.6 299.7 Z"/>
  </g>
  <g transform="matrix(0.016504, 0, 0, 0.014682, 80.805626, 209.300308)">
    <path d="M 312.3 150.4 C 281.5 107.1 291.8 47.8 335.1 18.2 C 378.4 -12.5 437.6 -2.3 467.2 41 C 498 84.3 487.7 143.6 444.4 173.2 C 401.1 202.8 341.9 192.6 312.3 150.4"/>
    <path d="M 478.6 299.7 L 472.9 515.1 C 472.9 516.2 471.8 517.4 471.8 519.7 C 459.3 547 430.8 563 401.1 561.9 L 355.5 558.5 C 354.4 558.5 356.6 558.5 355.5 558.5 L 246.1 549.4 L 213.1 792.1 L 144.7 783 L 175.5 491.3 C 177.8 484.5 182.3 477.6 188 473.1 L 336.1 451.4 L 355.5 345.4 L 344.1 354.5 C 338.4 359.1 331.6 361.3 324.7 362.5 L 133.3 417.2 L 127.6 367.1 L 305.4 293 L 361.2 218.9 C 377.2 207.5 397.7 201.8 418.2 205.2 C 436.4 208.6 452.4 218.9 462.6 232.5 L 462.6 232.5 C 462.6 232.5 467.2 238.2 468.3 240.5 C 476.4 256.4 478.6 299.7 478.6 299.7 Z"/>
  </g>
  <g transform="matrix(0.016504, 0, 0, 0.014682, 89.781532, 209.963486)">
    <path d="M 312.3 150.4 C 281.5 107.1 291.8 47.8 335.1 18.2 C 378.4 -12.5 437.6 -2.3 467.2 41 C 498 84.3 487.7 143.6 444.4 173.2 C 401.1 202.8 341.9 192.6 312.3 150.4"/>
    <path d="M 478.6 299.7 L 472.9 515.1 C 472.9 516.2 471.8 517.4 471.8 519.7 C 459.3 547 430.8 563 401.1 561.9 L 355.5 558.5 C 354.4 558.5 356.6 558.5 355.5 558.5 L 246.1 549.4 L 213.1 792.1 L 144.7 783 L 175.5 491.3 C 177.8 484.5 182.3 477.6 188 473.1 L 336.1 451.4 L 355.5 345.4 L 344.1 354.5 C 338.4 359.1 331.6 361.3 324.7 362.5 L 133.3 417.2 L 127.6 367.1 L 305.4 293 L 361.2 218.9 C 377.2 207.5 397.7 201.8 418.2 205.2 C 436.4 208.6 452.4 218.9 462.6 232.5 L 462.6 232.5 C 462.6 232.5 467.2 238.2 468.3 240.5 C 476.4 256.4 478.6 299.7 478.6 299.7 Z"/>
  </g>
  <g transform="matrix(0.016504, 0, 0, 0.014682, 99.903297, 209.536407)">
    <path d="M 312.3 150.4 C 281.5 107.1 291.8 47.8 335.1 18.2 C 378.4 -12.5 437.6 -2.3 467.2 41 C 498 84.3 487.7 143.6 444.4 173.2 C 401.1 202.8 341.9 192.6 312.3 150.4"/>
    <path d="M 478.6 299.7 L 472.9 515.1 C 472.9 516.2 471.8 517.4 471.8 519.7 C 459.3 547 430.8 563 401.1 561.9 L 355.5 558.5 C 354.4 558.5 356.6 558.5 355.5 558.5 L 246.1 549.4 L 213.1 792.1 L 144.7 783 L 175.5 491.3 C 177.8 484.5 182.3 477.6 188 473.1 L 336.1 451.4 L 355.5 345.4 L 344.1 354.5 C 338.4 359.1 331.6 361.3 324.7 362.5 L 133.3 417.2 L 127.6 367.1 L 305.4 293 L 361.2 218.9 C 377.2 207.5 397.7 201.8 418.2 205.2 C 436.4 208.6 452.4 218.9 462.6 232.5 L 462.6 232.5 C 462.6 232.5 467.2 238.2 468.3 240.5 C 476.4 256.4 478.6 299.7 478.6 299.7 Z"/>
  </g>
  <g transform="matrix(0.016504, 0, 0, 0.014682, 105.205528, 210.019104)">
    <path d="M 312.3 150.4 C 281.5 107.1 291.8 47.8 335.1 18.2 C 378.4 -12.5 437.6 -2.3 467.2 41 C 498 84.3 487.7 143.6 444.4 173.2 C 401.1 202.8 341.9 192.6 312.3 150.4"/>
    <path d="M 478.6 299.7 L 472.9 515.1 C 472.9 516.2 471.8 517.4 471.8 519.7 C 459.3 547 430.8 563 401.1 561.9 L 355.5 558.5 C 354.4 558.5 356.6 558.5 355.5 558.5 L 246.1 549.4 L 213.1 792.1 L 144.7 783 L 175.5 491.3 C 177.8 484.5 182.3 477.6 188 473.1 L 336.1 451.4 L 355.5 345.4 L 344.1 354.5 C 338.4 359.1 331.6 361.3 324.7 362.5 L 133.3 417.2 L 127.6 367.1 L 305.4 293 L 361.2 218.9 C 377.2 207.5 397.7 201.8 418.2 205.2 C 436.4 208.6 452.4 218.9 462.6 232.5 L 462.6 232.5 C 462.6 232.5 467.2 238.2 468.3 240.5 C 476.4 256.4 478.6 299.7 478.6 299.7 Z"/>
  </g>
  <g transform="matrix(0.016504, 0, 0, 0.014682, 115.563385, 208.255203)">
    <path d="M 312.3 150.4 C 281.5 107.1 291.8 47.8 335.1 18.2 C 378.4 -12.5 437.6 -2.3 467.2 41 C 498 84.3 487.7 143.6 444.4 173.2 C 401.1 202.8 341.9 192.6 312.3 150.4"/>
    <path d="M 478.6 299.7 L 472.9 515.1 C 472.9 516.2 471.8 517.4 471.8 519.7 C 459.3 547 430.8 563 401.1 561.9 L 355.5 558.5 C 354.4 558.5 356.6 558.5 355.5 558.5 L 246.1 549.4 L 213.1 792.1 L 144.7 783 L 175.5 491.3 C 177.8 484.5 182.3 477.6 188 473.1 L 336.1 451.4 L 355.5 345.4 L 344.1 354.5 C 338.4 359.1 331.6 361.3 324.7 362.5 L 133.3 417.2 L 127.6 367.1 L 305.4 293 L 361.2 218.9 C 377.2 207.5 397.7 201.8 418.2 205.2 C 436.4 208.6 452.4 218.9 462.6 232.5 L 462.6 232.5 C 462.6 232.5 467.2 238.2 468.3 240.5 C 476.4 256.4 478.6 299.7 478.6 299.7 Z"/>
  </g>
  <g transform="matrix(0.016504, 0, 0, 0.014682, 53.395206, 208.19957)">
    <path d="M 312.3 150.4 C 281.5 107.1 291.8 47.8 335.1 18.2 C 378.4 -12.5 437.6 -2.3 467.2 41 C 498 84.3 487.7 143.6 444.4 173.2 C 401.1 202.8 341.9 192.6 312.3 150.4"/>
    <path d="M 478.6 299.7 L 472.9 515.1 C 472.9 516.2 471.8 517.4 471.8 519.7 C 459.3 547 430.8 563 401.1 561.9 L 355.5 558.5 C 354.4 558.5 356.6 558.5 355.5 558.5 L 246.1 549.4 L 213.1 792.1 L 144.7 783 L 175.5 491.3 C 177.8 484.5 182.3 477.6 188 473.1 L 336.1 451.4 L 355.5 345.4 L 344.1 354.5 C 338.4 359.1 331.6 361.3 324.7 362.5 L 133.3 417.2 L 127.6 367.1 L 305.4 293 L 361.2 218.9 C 377.2 207.5 397.7 201.8 418.2 205.2 C 436.4 208.6 452.4 218.9 462.6 232.5 L 462.6 232.5 C 462.6 232.5 467.2 238.2 468.3 240.5 C 476.4 256.4 478.6 299.7 478.6 299.7 Z"/>
  </g>
  <g transform="matrix(0.016504, 0, 0, 0.014682, 52.923019, 161.601257)">
    <path d="M 312.3 150.4 C 281.5 107.1 291.8 47.8 335.1 18.2 C 378.4 -12.5 437.6 -2.3 467.2 41 C 498 84.3 487.7 143.6 444.4 173.2 C 401.1 202.8 341.9 192.6 312.3 150.4"/>
    <path d="M 478.6 299.7 L 472.9 515.1 C 472.9 516.2 471.8 517.4 471.8 519.7 C 459.3 547 430.8 563 401.1 561.9 L 355.5 558.5 C 354.4 558.5 356.6 558.5 355.5 558.5 L 246.1 549.4 L 213.1 792.1 L 144.7 783 L 175.5 491.3 C 177.8 484.5 182.3 477.6 188 473.1 L 336.1 451.4 L 355.5 345.4 L 344.1 354.5 C 338.4 359.1 331.6 361.3 324.7 362.5 L 133.3 417.2 L 127.6 367.1 L 305.4 293 L 361.2 218.9 C 377.2 207.5 397.7 201.8 418.2 205.2 C 436.4 208.6 452.4 218.9 462.6 232.5 L 462.6 232.5 C 462.6 232.5 467.2 238.2 468.3 240.5 C 476.4 256.4 478.6 299.7 478.6 299.7 Z"/>
  </g>
  <g transform="matrix(0.016504, 0, 0, 0.014682, 18.265997, 47.588139)">
    <path d="M 312.3 150.4 C 281.5 107.1 291.8 47.8 335.1 18.2 C 378.4 -12.5 437.6 -2.3 467.2 41 C 498 84.3 487.7 143.6 444.4 173.2 C 401.1 202.8 341.9 192.6 312.3 150.4"/>
    <path d="M 478.6 299.7 L 472.9 515.1 C 472.9 516.2 471.8 517.4 471.8 519.7 C 459.3 547 430.8 563 401.1 561.9 L 355.5 558.5 C 354.4 558.5 356.6 558.5 355.5 558.5 L 246.1 549.4 L 213.1 792.1 L 144.7 783 L 175.5 491.3 C 177.8 484.5 182.3 477.6 188 473.1 L 336.1 451.4 L 355.5 345.4 L 344.1 354.5 C 338.4 359.1 331.6 361.3 324.7 362.5 L 133.3 417.2 L 127.6 367.1 L 305.4 293 L 361.2 218.9 C 377.2 207.5 397.7 201.8 418.2 205.2 C 436.4 208.6 452.4 218.9 462.6 232.5 L 462.6 232.5 C 462.6 232.5 467.2 238.2 468.3 240.5 C 476.4 256.4 478.6 299.7 478.6 299.7 Z"/>
  </g>
  <g transform="matrix(0.016504, 0, 0, 0.014682, 94.128876, 208.963486)">
    <path d="M 312.3 150.4 C 281.5 107.1 291.8 47.8 335.1 18.2 C 378.4 -12.5 437.6 -2.3 467.2 41 C 498 84.3 487.7 143.6 444.4 173.2 C 401.1 202.8 341.9 192.6 312.3 150.4"/>
    <path d="M 478.6 299.7 L 472.9 515.1 C 472.9 516.2 471.8 517.4 471.8 519.7 C 459.3 547 430.8 563 401.1 561.9 L 355.5 558.5 C 354.4 558.5 356.6 558.5 355.5 558.5 L 246.1 549.4 L 213.1 792.1 L 144.7 783 L 175.5 491.3 C 177.8 484.5 182.3 477.6 188 473.1 L 336.1 451.4 L 355.5 345.4 L 344.1 354.5 C 338.4 359.1 331.6 361.3 324.7 362.5 L 133.3 417.2 L 127.6 367.1 L 305.4 293 L 361.2 218.9 C 377.2 207.5 397.7 201.8 418.2 205.2 C 436.4 208.6 452.4 218.9 462.6 232.5 L 462.6 232.5 C 462.6 232.5 467.2 238.2 468.3 240.5 C 476.4 256.4 478.6 299.7 478.6 299.7 Z"/>
  </g>
  <g transform="matrix(0.016504, 0, 0, 0.014682, 291.816772, 190.258469)">
    <path d="M 312.3 150.4 C 281.5 107.1 291.8 47.8 335.1 18.2 C 378.4 -12.5 437.6 -2.3 467.2 41 C 498 84.3 487.7 143.6 444.4 173.2 C 401.1 202.8 341.9 192.6 312.3 150.4"/>
    <path d="M 478.6 299.7 L 472.9 515.1 C 472.9 516.2 471.8 517.4 471.8 519.7 C 459.3 547 430.8 563 401.1 561.9 L 355.5 558.5 C 354.4 558.5 356.6 558.5 355.5 558.5 L 246.1 549.4 L 213.1 792.1 L 144.7 783 L 175.5 491.3 C 177.8 484.5 182.3 477.6 188 473.1 L 336.1 451.4 L 355.5 345.4 L 344.1 354.5 C 338.4 359.1 331.6 361.3 324.7 362.5 L 133.3 417.2 L 127.6 367.1 L 305.4 293 L 361.2 218.9 C 377.2 207.5 397.7 201.8 418.2 205.2 C 436.4 208.6 452.4 218.9 462.6 232.5 L 462.6 232.5 C 462.6 232.5 467.2 238.2 468.3 240.5 C 476.4 256.4 478.6 299.7 478.6 299.7 Z"/>
  </g>
  <g transform="matrix(-0.016504, 0, 0, 0.014682, 490.848938, 233.926254)">
    <path d="M 312.3 150.4 C 281.5 107.1 291.8 47.8 335.1 18.2 C 378.4 -12.5 437.6 -2.3 467.2 41 C 498 84.3 487.7 143.6 444.4 173.2 C 401.1 202.8 341.9 192.6 312.3 150.4"/>
    <path d="M 478.6 299.7 L 472.9 515.1 C 472.9 516.2 471.8 517.4 471.8 519.7 C 459.3 547 430.8 563 401.1 561.9 L 355.5 558.5 C 354.4 558.5 356.6 558.5 355.5 558.5 L 246.1 549.4 L 213.1 792.1 L 144.7 783 L 175.5 491.3 C 177.8 484.5 182.3 477.6 188 473.1 L 336.1 451.4 L 355.5 345.4 L 344.1 354.5 C 338.4 359.1 331.6 361.3 324.7 362.5 L 133.3 417.2 L 127.6 367.1 L 305.4 293 L 361.2 218.9 C 377.2 207.5 397.7 201.8 418.2 205.2 C 436.4 208.6 452.4 218.9 462.6 232.5 L 462.6 232.5 C 462.6 232.5 467.2 238.2 468.3 240.5 C 476.4 256.4 478.6 299.7 478.6 299.7 Z"/>
  </g>
</svg>